<mxfile host="app.diagrams.net" agent="Mozilla/5.0 (Windows NT 10.0; Win64; x64) AppleWebKit/537.36 (KHTML, like Gecko) Chrome/130.0.0.0 Safari/537.36 Edg/130.0.0.0" version="24.7.17">
  <diagram name="Page-1" id="T7no24166q1Ip-7MRX3Q">
    <mxGraphModel dx="5507" dy="913" grid="1" gridSize="10" guides="1" tooltips="1" connect="1" arrows="1" fold="1" page="1" pageScale="1" pageWidth="1169" pageHeight="827" math="0" shadow="0">
      <root>
        <mxCell id="0" />
        <mxCell id="1" parent="0" />
        <mxCell id="5iqBXnzq-JTinNB5eCyv-2" value="" style="group" vertex="1" connectable="0" parent="1">
          <mxGeometry x="-2252.98" y="1120" width="104.21" height="170" as="geometry" />
        </mxCell>
        <mxCell id="5iqBXnzq-JTinNB5eCyv-70" value="" style="group" vertex="1" connectable="0" parent="5iqBXnzq-JTinNB5eCyv-2">
          <mxGeometry x="0.010000000000000009" width="104.21" height="170" as="geometry" />
        </mxCell>
        <mxCell id="5iqBXnzq-JTinNB5eCyv-3" value="&lt;font&gt;&lt;b&gt;Sirene 4&amp;nbsp;&lt;/b&gt;&lt;/font&gt;&lt;div&gt;&lt;font&gt;&lt;b&gt;NAF 2008&lt;/b&gt;&lt;/font&gt;&lt;div&gt;&lt;div style=&quot;font-size: 11px;&quot;&gt;2,7M&lt;/div&gt;&lt;/div&gt;&lt;/div&gt;" style="strokeWidth=2;html=1;shape=mxgraph.flowchart.database;whiteSpace=wrap;fillColor=#ffe6cc;strokeColor=#d79b00;fontFamily=Work Sans;fontSource=https%3A%2F%2Ffonts.googleapis.com%2Fcss%3Ffamily%3DWork%2BSans;" vertex="1" parent="5iqBXnzq-JTinNB5eCyv-70">
          <mxGeometry width="104.21" height="170" as="geometry" />
        </mxCell>
        <mxCell id="5iqBXnzq-JTinNB5eCyv-69" value="" style="shape=image;verticalLabelPosition=bottom;labelBackgroundColor=default;verticalAlign=top;aspect=fixed;imageAspect=0;image=https://upload.wikimedia.org/wikipedia/commons/thumb/4/47/Apache_Parquet_logo.svg/2560px-Apache_Parquet_logo.svg.png;" vertex="1" parent="5iqBXnzq-JTinNB5eCyv-70">
          <mxGeometry x="8.960000000000255" y="120" width="86.27" height="17.62" as="geometry" />
        </mxCell>
        <mxCell id="5iqBXnzq-JTinNB5eCyv-5" value="" style="group" vertex="1" connectable="0" parent="1">
          <mxGeometry x="-2066.9999999999995" y="950" width="104.21" height="170" as="geometry" />
        </mxCell>
        <mxCell id="5iqBXnzq-JTinNB5eCyv-6" value="" style="group" vertex="1" connectable="0" parent="5iqBXnzq-JTinNB5eCyv-5">
          <mxGeometry width="104.21" height="170" as="geometry" />
        </mxCell>
        <mxCell id="5iqBXnzq-JTinNB5eCyv-7" value="&lt;div&gt;&lt;font&gt;&lt;b&gt;Univoques&lt;/b&gt;&lt;/font&gt;&lt;/div&gt;&lt;div&gt;&lt;font&gt;&lt;b&gt;NAF 2008&lt;/b&gt;&lt;/font&gt;&lt;/div&gt;&lt;div&gt;1,3M&lt;/div&gt;" style="strokeWidth=2;html=1;shape=mxgraph.flowchart.database;whiteSpace=wrap;fillColor=#ffe6cc;strokeColor=#d79b00;fontFamily=Work Sans;fontSource=https%3A%2F%2Ffonts.googleapis.com%2Fcss%3Ffamily%3DWork%2BSans;" vertex="1" parent="5iqBXnzq-JTinNB5eCyv-6">
          <mxGeometry width="104.21" height="170" as="geometry" />
        </mxCell>
        <mxCell id="5iqBXnzq-JTinNB5eCyv-8" value="" style="shape=image;verticalLabelPosition=bottom;labelBackgroundColor=default;verticalAlign=top;aspect=fixed;imageAspect=0;image=https://upload.wikimedia.org/wikipedia/commons/thumb/4/47/Apache_Parquet_logo.svg/2560px-Apache_Parquet_logo.svg.png;" vertex="1" parent="5iqBXnzq-JTinNB5eCyv-6">
          <mxGeometry x="8.969999999999999" y="120" width="86.27" height="17.62" as="geometry" />
        </mxCell>
        <mxCell id="5iqBXnzq-JTinNB5eCyv-18" value="" style="group" vertex="1" connectable="0" parent="1">
          <mxGeometry x="-2067" y="1290" width="104.21" height="170" as="geometry" />
        </mxCell>
        <mxCell id="5iqBXnzq-JTinNB5eCyv-19" value="" style="group" vertex="1" connectable="0" parent="5iqBXnzq-JTinNB5eCyv-18">
          <mxGeometry width="104.21" height="170" as="geometry" />
        </mxCell>
        <mxCell id="5iqBXnzq-JTinNB5eCyv-20" value="&lt;font&gt;&lt;b&gt;Multivoques&lt;/b&gt;&lt;/font&gt;&lt;div&gt;&lt;b&gt;NAF 2008&lt;br&gt;&lt;/b&gt;&lt;div&gt;1,4M&lt;/div&gt;&lt;/div&gt;" style="strokeWidth=2;html=1;shape=mxgraph.flowchart.database;whiteSpace=wrap;fillColor=#ffe6cc;strokeColor=#d79b00;fontFamily=Work Sans;fontSource=https%3A%2F%2Ffonts.googleapis.com%2Fcss%3Ffamily%3DWork%2BSans;" vertex="1" parent="5iqBXnzq-JTinNB5eCyv-19">
          <mxGeometry width="104.21" height="170" as="geometry" />
        </mxCell>
        <mxCell id="5iqBXnzq-JTinNB5eCyv-21" value="" style="shape=image;verticalLabelPosition=bottom;labelBackgroundColor=default;verticalAlign=top;aspect=fixed;imageAspect=0;image=https://upload.wikimedia.org/wikipedia/commons/thumb/4/47/Apache_Parquet_logo.svg/2560px-Apache_Parquet_logo.svg.png;" vertex="1" parent="5iqBXnzq-JTinNB5eCyv-19">
          <mxGeometry x="8.969999999999999" y="120" width="86.27" height="17.62" as="geometry" />
        </mxCell>
        <mxCell id="5iqBXnzq-JTinNB5eCyv-27" value="" style="group" vertex="1" connectable="0" parent="1">
          <mxGeometry x="-1775.79" y="1460" width="111.29999999999995" height="134" as="geometry" />
        </mxCell>
        <mxCell id="5iqBXnzq-JTinNB5eCyv-28" value="" style="shape=image;verticalLabelPosition=bottom;labelBackgroundColor=default;verticalAlign=top;aspect=fixed;imageAspect=0;image=data:image/png,iVBORw0KGgoAAAANSUhEUgAAAgAAAAIACAYAAAD0eNT6AAAAAXNSR0IArs4c6QAAIABJREFUeAHtnQcYNUV1/l8EFQsWxAZiRaOClWpP1KixxhZrNDZssUeNJrEXsCBEBKMxUewiEnsBBBU7KiiIqCBiQSxgAxSU//++cNdvv/12d8qZ3Z3Zfed57rN3d2bOOfOb2Znd2SmAnAiIgAiIgAiIgAiIgAiIgAiIgAiIgAiIgAiIgAiIgAiIgAiIgAiIgAiIgAiIgAiIgAiIgAiIgAiIgAiIgAiIgAiIgAiIgAiIgAiIgAiIgAiIgAiIgAiIgAiIgAiIgAiIgAjMl8A1AfwdgCcAeBmAgwAcBeAEACcDOAPAmQD+DOD/rf/znH7fB3A0gHcBeNXK76kA7gNgBwCbzReZUiYCIiACIiACZRHYBsA/rBvrwwD8ct2os2FP/fsNgM8A2A/AIwBsVxYqWSsCIiACIiAC5RK4OIA7AnglgGNqb/GpG3tfeccD2AfA3QBcqlysslwEREAEREAE8iNwMQC3Xb95s/vet3EeO9w5AN4H4F6rTw9b5IdRFomACIiACIhAGQS2B/AKAKdl3Oh3PWT8dN0zcP0yUMtKERABERABEZiewM7rgXvnFdjwNx8IONDww6uBhXeeHqssEAEREAEREIE8CfA7+pdm0Og3HwKq86+sZxTkSV9WiYAIiIAIiMDIBPYAcMSMG/7qAaA68iHn9iMzljoREAEREAERyIYAv4+ze7xqGJd2PGS13sANsskNGSICIiACIiACAxPgVL7nrn7nLrjxrx52OM5hr9Vgx0sMzFziRUAEREAERGBSApzOx7nzVQOo40Usvglg10lzRspFQAREQAREYAACfOvn0roXqPHvfPg5H8DLAXDdAzkREAEREAERKJ7A9QBwBLze9v0YvHv1IMAHJjkREAEREAERKJbAQwBwDX01/mEMXlhsjstwERABERCBRRPgznlcxU8NfxwDDg5kz4mcCIiACIiACBRD4JIA3qnG3/zw89JiclyGioAIiIAILJ7AVTJZzY8b8xwN4L8APA8AP0XcarXE8HUBbLvaWOiKADZf59Zl1+fXALA7gHsDeDKA/VebEB0OYKoNiL62+NIkACIgAiIgAkUQuDqAEyd68+c4g4MB7Ang5gPsxsdFix4J4H8A/GykNP6qiFyXkSIgAiIgAosmsN3qLfukkRrGalzBLwG8fr3RzpgL6XCaHnsKuIDPjwdO86ILlRIvAiIgAiKQNwFu2/u9gRvCqtHn7nqfXPU0PAgAxxpM7fgZ4a7r3oc/DcBg6vRJvwiIgAiIgAi0EtgGwHcHaPiqBr86cpGctwG4YasVeVzk+AL2SJydkEceKZMVIiACIiACIlAjsOV6oF3VSA9x5Fv1m9eD92qqs/7LsRAHAuBUPiuTrBMq40RABERABJZHgN/B35eggetrID8L4GYFo+VOf33p8/ErOPkyXQREQAREYI4EuK6/TwMWE4bT7h4KgIsJle5i0l+PU3r6Zb8IiIAIiMCMCNxrwE19OMCP8/Tn4uqNecz/uXBQOkRABERABAonwIFuZw3w9s+Fe544k7f+ehbHNPr1OHVZ+i8CIiACIiACkxDgDnVfHKDx/wmAXSdJ0fBK6415zP/hLZQGERABERABEXAQeN0Ajf+XVsv1ctT8XF1Mo1+PM1cuSpcIiIAIiEAhBPYAwEV46o2T9f+hq9X0OJVwzs7KaM5slDYREAEREIHMCXCZ3eMTN/6cQshPCnN3egCYew4rfSIgAiIwYwIvSNz4v2eAzXpyxa8HgFxzRnaJgAiIgAj0EuAueH9I+ADwodo2vL2KZ+KpB4CZZKSSIQIiIAJLI8Atdq2NWBX/GACXzRzgTQDst/7k8XsA/PHzx74AdoqwvUp77DFCZdZRUvPNOrEyTgREQARKJbBbwgV/fgDgahmD4M6CBzgGOnJfgv0BhGw9HNvwV/EyRhZk2lB8g4xQYBEQAREQAT8CRyR6++emOLv7qZwkFBunTweklVx8HwKqhjz2OAmQxEqH5JvYVIkTAREQARG4W0CD6GrcnpY5Tu7c50pD05/b/vq4ZrzQcx8duYcZkm/uaZd9IiACIlAcgc9ENIptjdtHM1/el9+kY9Y34OeAHT1ytY1JyDUPFVkHGZpv1omXcSIgAiJQGoGdEzX+v1p9V79K5onngL+QBrkedh+PtNXDx/z3UJF1kKH5Zp14GScCIiACpRF4h6FRrDdyjy0g4ScY0votj/TVecT891CRdZCh+WadeBknAiIgAiUR4Fa8fzQ0ilUj97nMu/6rPPmdIa2/rYT0HCsescce0UV4Dc23CAgyUgREQATGJLAVgF0APHS18M5LAbwXwBcAfBPAyQDOXDf056///xDAdwCcYmgQq0aO39RvOmZiDboqm2OPLtWxcqt4Lvmh/mPPw6/SEXsMTZ/Ci4AIiMDiCLDBvweA1wL4RuTAtthKuhnv3QXRb9oeeu5Kaqi8ZniXfF//qebhN9MTeu6bPoUTAREQgUURuByARwM4EgDf5EMr1yHCc3T8DQvKBSsDV1KHlu/ST/8p5+HnkH4fRgojAiIgAtkT2AzAXQG8C8A5mTT69Ur+7dkT3NjAuu0x/zeWtulZjMx6nE0lhl+Zch5+PS0x/8NTqxgiIAIiMDMCm6++0T8YwHEZNvr1iv3mhXGv2x7z35XcGJn1OC75Lv+p5+HX0xLz35U++YuACIjAbAmw4X8UgJMyb/hZuXOQYWkuplGqx3Gltx425r9LvsufmxjF6GUcn3UOXPpjdVfxXPLlLwIiIAKzJLAHgK8bKvCqEh3r+IgCc8HKxpXkoeW79E89D3/q9Lv4yF8EREAEsiJwJQBvmngkf2jFzWmFW2ZF0c+Y0HQ2w7u0NMOHnrvku/y5VkGoziq8zzoHLv2VrNijS778RUAERGA2BO4F4BeGSju2orXGO6jQHLCm25XsoeVLv4uA/EVABEQgcwJbrOx7UWFv/fXG7b6Z8+0yr56GmP9dcqvrMTLrcSo5sce6rJj/sXqreDE663EqOTqKgAiIwCwJbA/g6ALf+quKmtMRL1NozlRpiD26kh0rt4rnku/yr+TEHl3yXf6xeqt4LvnyFwEREIFiCdwSwBkFN/6sqA8pln7893HfBqoKF3u0oo3VW8UrXb/VfsUXAREQgUEI3BGAZZBWVUlPfeQSxKU6KztXuoeWL/0uAvIXAREQgcwI/D2Acwt/82fj9plCdv3ryv6hG+ih5Xelq7q+dP0VBx1FQAREIAsCDwDANfOtlfPU8X8M4NpZEI03wsrQpXlo+dLvIiB/ERABEciEALv9/zCDxp/bCt8gE6YWM4ZuoIeW70r70vW7+MhfBERABEYhwAF/vxm58ecAw4+uFunZC8DDAewOYAcAV17vEsed4q6yvrYzgAeurr8SwCc71iP47ioNzyh00Z+2TB66gRxaflua6teWrr/OQv9FQAREYBIC1xpxtP/XVinkmgK7AbiYMbXbrrYbvgOA2wLYzigrx+hDN5BDy3cxXbp+Fx/5i4AIiMCgBLjIz9Dz/PlZ4X0Abj1oSuYnfOgGcmj5rhxZun4XH/mLgAiIwKAEXjNgtz9nEuwNYOtBUzBf4UM3kEPLd+XM0vW7+MhfBERABAYjwLX9LxjgAYAy3w7gmoNZvgzBQzeQQ8t35dLS9bv4yF8EREAEBiHAXf2G2NjnpwDuMojFyxM6dAM5tHxXji1dv4uP/EVABERgEALc0tdaATfjHwpgm0GsXabQJt/Qcxe1UHnN8C75Lv+mvNBzl3yXf6i+ZniXfPmLgAiIQHYEdh1gZz9O5dssu5SWbVCzwQk9d6U+VF4zvEu+y78pL/TcJd/lH6qvGd4lX/4iIAIikBWBzQF8PeHbP1cNfEJWKZyPMc0GJ/TcRSJUXjO8S77Lvykv9Nwl3+Ufqq8Z3iVf/iIgAiKQFYFHJW78759V6uZlTLPBCT130QiV1wzvku/yb8oLPXfJd/mH6muGd8mXvwiIgAhkQ4Bv/yclfAB4SjYpm6chzQYn9NxFJVReM7xLvsu/KS/03CXf5R+qrxneJV/+IiACIpANgQcnbPxfkk2q5mtIs8EJPXeRCZXXDO+S7/Jvygs9d8l3+Yfqa4Z3yZe/CIiACGRBgAP0jkv0APAhDfgbJU+bDU7oucvIUHnN8C75Lv+mvNBzl3yXf6i+ZniXfPmLgAiIQBYE7pqo8T99vVlPFomauRHNBif03IUnVF4zvEu+y78pL/TcJd/lH6qvGd4lX/4iIAIikAWBdyV4AOAKf/fIIjXLMKLZ4ISeuyiFymuGd8l3+TflhZ675Lv8Q/U1w7vky18EREAEJidwOQBnJ3gA4PK+cuMRaDY4oecuS0PlNcO75Lv8m/JCz13yXf6h+prhXfLlLwIiIAKTE3hMgsafG/tw22C58Qj81pBvv/Ews9mghZ57qOgNEqqvGb5XuIdnU17ouYcKBREBERCBaQkcaWhIqkqRu/rJjUvgBEO+fcvD1CpvY48eKnqDxOqt4vUK9/Cs5MQePVQoiAiIgAhMR2ArAOcbGhJWjudoS99JMnBfQ7691sPi2IaviuehojdIJSf22CvcwzNWbxXPQ4WCiIAIiMB0BO5paESqiu6/pzN/0Zp3AsCllqt88D0yzo09yPnK6wrnoaI3SJdc3+u9wj08ffV0hfNQoSAiIAIiMB0Bvgl2VWC+13eezvzFa94/Iv/286Tmm/9d4TzVdAbrkut7vVOwp4evnq5wnmoUTAREQASmIWDd+Odr05gtrWsClwBweMBDwGEALu5Jr6th873uqaYzmK+ernCdgj09uuT6XvdUo2AiIAIiMD4Bfv//c0Dj0VbxvWh8s6WxQYAPAa93fA5gtz/f/H0bf6poy++Qaw0zg09DdLWFDVbYiNAmM+RaQ5xORUAERCAfArskqOR3yyc5i7dkRwD7AOAI/9+tf/zPzzw+3/ybAEMau7awTXmh520yQ66F6muGD9HVFrYpT+ciIAIikA2BhxkfAH4O4GLZpEaGpCbQ1qiFXLPaE6KrLWzp+q32K74IiIAIdBLgjn1tFafvtY92SpbHHAj4loOucFYGXXJ9r5eu32q/4ouACIhAJ4H3GR8A9uqULI85EPBtaLvCWRl0yfW9Xrp+q/2KLwIiIAKdBD5vfAB4eKdkecyBgG9D2xXOyqBLru/10vVb7Vd8ERABEegk8E3jA4AGAHainYWHb0PbFc4KoUuu7/XS9VvtV3wREAER6CRwqvEBYIdOyfKYAwHfhrYrnJVBl1zf66Xrt9qv+CIgAiLQSeBXxgeAbToly2MOBHwb2q5wVgZdcn2vl67far/ii4AIiEAngT8aHwBCFpXpNEIe2RLwbWi7wlkT1iXX93rp+q32K74IiMCCCGwO4AYA7gHgaasd+v4TwAcAfBbAtwFw3v6Z6937fCvRvnCXXBDbJSa1L+99/KzMfHT0hbHq/63hAfk3VuUjxL8WgIcAePW6njgWwC8A0HZy5SqhrC9+BIADht++Wm3y3wHcZbXg1OVGsE8qREAEeghcbX0Ds6E/GsDvDRVWX0Xa5adPAD2ZMwOvrnz3vW5F4KunK5xV/wmG+4krMObmtljVE3cGcMC6Ue/i5nOdDwdfBvBcANfPLaGyRwTmSKC6gbnuO9/ofW7UIcNce46Qlaa/ELCWnb8Iivwztf59DfcYl1/OxW27MoR7dvzUkB5XXnwGwIMAcF8KOREQgUQEuNQuu9zeBsA6aM91E4f63yJRGiUmTwKh5aEZ3pqqprzQc6v+nRwbLHXZw42XYvZesNrbjH91AAcCOG/Ahr/JgDOLHgWALytyIiACkQT4fY5L9Z424s3bvJld5w+OTJuilUHAlf8uf2sqXfJd/lb9jL9/xP3HXRendHwLfyGAsyNsdzH19T8RwF9PCUG6RaBEArsCeA+A8ye8eX1vcj6gyM2XgG856ApnJdMl1/e6VT/jszE9POBePCxwy+UUNtZl7AHg+AB7fVnGhLsAwFsAXL5uoP6LgAhsSuBvVk/MR2Vy4/re7IdsmgxdmREB33LQFc6Kokuu73Wr/io+HwI47oZd+1266cc3/6mmxm622v75WZm+OHwPwM0rmDqKgAhsIHDbAhv+qhL8xoZk6N8MCVT5HHu0IonVW8Wz6m/G33E1/W0fABzh/7v1j/854G/Kb/6XWum3buxVMRvqeC6AhzaB6lwElkpgewAHAWA32VA33dByOapYbr4ErOXHSmZq/Vb7x4h/WQD87GBlNUZ81nXPHgOKdIhArgS4eA6/nf+hkJu2r2L4Ya6QZVcSAn157+NnNcJHR18Yq/7c4/Pb+jEF1iPPzx2s7BOBIQjcHsB3CrxhuyrZTw0BSTKzIdCV777XrQnx1dMVzqo/5/hbAjiy4LrkCTnDlW0ikJIA3/pfU3h3f1sly+WG5eZLoC3PQ65ZyYToagtr1Z9rfA74e2/BjT/ziisJ3jNXwLJLBFIRuBEADpZrq6BKvsb1wjW9J1UpyVOOtXxaUzW1fqv9Q8V/xkzqE+4zcN2hIEmuCExNgEtjcrSwtSLLMb5G9E5duobXby13Vgun1m+1f4j4txp5ZT9rHrjicwzDVFMnh8gfyRQBcFc+ThdyFf4S/TmS98XK40UQsJZPK6Sp9VvtTx2fnxJz2APEmi/N+M9LDUryRGAqApcB8OGZNv5clvj+U4GV3tEJNCvq0HOrwaH6muGt+nOL/4KZ1itcI4DbmMuJQNEErprJtJyz1suXcmWyp64H2+wC4Jqr1cquWNuxiz0VPOemITsA4GqEj1n5v2K1xec7AXwSwKcBvGE1e4Hr/qurrujiGWx8s0ENPQ9W2IgQqq8ZviGu6FPu6HfOQA8AHM/zLgCPBcClyK+8vte5wNA1AOy2rkc48HCoLcffX3TuyPjFE2Djb9k/vFl5hZyfsWrA37FuvLU39+KLYjIAIWWwLazVkDaZIdes+nOKz4fwkLT7hD1ptdnYowFcOiChl1ttK7wngFMS28NPi3xJkROB4ghcZYINOH62GoX/OgC3Ay4cc1AcNBmcPQGfRqQvjDWBfbJ9/Kz6c4nPt/A/Jmxw2ZPAfQMsW/ZyHQJ+u2f3vU9e+IT5YC7AZYcI+BJgdxnXA/cp4NYwfEr+xGpa4X3UHe+bPQpnIGAtrwbVF0adWr/V/lTxX5SwfvkugJ1SGbZ+az81kX3cUOnaCW2TKBEYlMA2AI5LVPj7KjveGG9NfOMOCkbCZ0Ggr0z6+Fkh+OjoC2PVn0N8jrv5SaI65uvr7/up08Ue0FSfP1+Z2jjJE4EhCHCAzJcT3ZhdlRjf+D+wWvWLiwnJicDYBLrKpe91q72+errCWfXnEP8uieoYvvmzt3Iox0GK309gK2cacaVDORHImgAH3XVVPCmuf2H9fT9rCDJu1gSs5dgKZ2r9VvtTxH9jgnqG3+lvlsIYh4xbJhqrsLNDj7xFYFICz01wU3ZVblwe82GTpk7KReAiAl1l1Pe6laOvnq5wVv05xE/R/c8Bf2M57vTXlR++17lbqpwIZEngHuuNLHwLc0g4DvDbLstUX2TUTVbrBnBtgePX84E5J5j/99X4hIxzLd60kLLbFjZe80Ux22SGXLPqnzo+18kPSW9bWE71s4z2D2XA1Qp/ZLSbuxzGuGb91MYj5Jrqt5hcmHEcfovnohkhhcgnLAsat8fM9dsXb+oDHA8+HKi4f22RoRkXg8Ukzafs9oWxguqT7eNn1T91fO634ZPOvjCc5z+2e6LRbu6fwkXKfJ1P/dTHyMdP9Ztvbsw0HEfjchStT2EJCcOn5ZtnzIw3F1cD9E3TEXoIyDg3w0zzzfOucGHaNg3dJdf3+qYSy7ry2oD7ro0JX1ZCFvlJReeyCVYt3NHTmND6qY1TyDXVb54ZM7dgQ6zD/VUAHD2bszswohJ6fc4Jkm3eBEIqxraw3oo6ArbJDLnWIbaYy4dG3Ht1Plzedypntf1enobH1E91RjH/Vb95Zs5cgnEEbcqVuFjoDpno6TwkT/hN7c8RlRC7y3yf4EPsUdhxCcRUjvU4VmvrsmL+W/VPHf/YiHuvzolr+0/lnmS0/SkehsfWT3VGMf9Vv3lkzlyCsOv/G8bC3Cxk/wPgYgUA4oC/pu2+59wOWa5sAr553RXOmvouub7Xrfqnjn+64f4jI27sM5W7vdF2nwWBLPWTbxnqCqf6baqSNbLelMtwsjC9J3CAy8jJ3UidZXUvLo8sVzaBrsrP97o19b56usJZ9U8d3zrgmCuVTuW4OVpXvvhcZ+Pucpb6yceGvjCq31y5MwP/awH4g7Eg1wsRp/lx0EopjqNx6/aH/P9tKYmUnZ0EQvK7LWynYE+PNpkh1zzVZBvsfMP9R06XmDBl3DUwJK+aYd/kYbulfmrqCz1X/eaRQaUHOchYiOuFiqNHuYNWSc467mHKCqgkzrnaWi+/Mf+t6YrRWY9j1T91fDYy9fSE/udy5VM56g61tx7e5wHAyqeuL/Q/e2fkZkzgppED4NoK0g9Xc+Sn7I6LzaZfGW/irWMVK14WBNrKcsg1ayJCdLWFteqfOv53jPcftxGeym1vtP01HobrE4AHJAWJI/AxYwGuKiR+QtglzoTJY/3AyOB6k6dABlgIVGU49mjRzbixeqt4Vv1Txw9Zf6NKc/2424QJuI0x/17oYTtXIK2nd8z/XKNBbqYE/iZhwdqzYEYc6GK5qbiTmVy5BCx5z7hWN7V+q/3W+NYNx3ym0llt7IpvnQb4mC7Btes7AeCUPGs5CY1PnTeu2aG/MyPw2USFimMISnafMnJ4asmJl+3mitWKMLRiboa36p8yPlfT40JhzTSFnL93wgT8n9H2O3jazuXHQ5ikCOszQ8HTfAXLjQCX5U1RSM5YbZxzxdwSF2iP9eaaciWywKQqeAsB633QIjLo0tT6g4xNGJiNf4qXEO4xwtH4Y7utAFhH6PuukMqBxocnqrN9ytthALg2jNxMCfx3osL0jzPgwy5En5uiK8zPMt7gaAbZM3gSuvLV97rVQF89XeGs+qeIn6rxr5hM8QmSPX+V/pgjB02HOD4EcHneIT8HUDbf/NX4h+RMYWE5av0cY+FlgefgnVx39gvJkr9NwGLK1chC0qqwmxKIqbzrcTaVGHalLivmf5i26UOnbvzJ7JSRpx9znRPqjMmvKs67I7OCy49zhT6OXbL2QNAWyqAsDvjTN//ITCkp2rONBZeFhqP+/6qkRPfYyqmLMXsBVDcyj//ZI19eeROo52PMf2vqYnTW41j1jxl/iMa/YvG8EROSYuXUx41or1SJwIUEuDa/9cmVN9wbZsbTuiHJLwFcZmZMlpKcqgGJPVo5xeqt4ln1jxV/yMafLM4daSoyx09ZV07lCweXEZYTgVEJWOet8kY7DwCXD56TY5daVaHGHp8+JyALSktsflfxrKgqObFHq/4x4g/d+FfsTgVwlQETxEF7P0pQV3Dwo5wIjE6AK09VN0vs8X9Ht3p4hfdMwOXH6gUYPqMG0BB7H1TxrCZVcmKPVv1Dxx+r8a/4ceU839H1IWmnzOMS1BO085EhihVWBFIRONlYgDlKdC7f/utMuX/BWUY2vLH3qgvV/yIIVA1H7NGayFi9VTyr/iHjj934V0y+D2DnhAljt3+KN3/a94uRBywmxCBRJRO4WYIG7pCSAThs58YcVQUSe+TnkVs49Mg7LwKxeV3Fs6amkhN7tOofKv5UjX/FkZt8Pd+4MylH+3PAn/Wbf2UTjy8ZCrjkikAfgRQjV+/dp6Bwv9sleADgDf69iRYmKRz/ZObXK+eY/1bDY3TW41j1DxF/6sa/zodv7k8EQJt8HRf54Tz/FAOm67acCeAKvkYonAikJPANYwPHXfPmvPUt1zT4rpFRdbN/AMDmKTNPsgYjUOVZ7NFqWKzeKp5Vf+r4OTX+FSMeOUvgUABcv//261H4XMWUs3e4oyAHSNOPy/ummF9f1139/9fUsCVPBHwI8InWOtf9jT6KCg/DubnVzWo9/lfhLJZivjWfrZym1m+1vx6fjemRCe8hK5uc4nPbY441khOB0QncKcFNyS7yuTsugcklOlNVHJwxscXcoRWePmteW5M/tX6r/VV8Nf7d9QZfvm5bgdJRBMYmwMEwloqG691zEaElOOsa303O7HZkD4xcngSa+RV6bk1VqL5meKv+FPFz7fZvsprq/JUpIEuGCMQS+JDxAeB9sYoLjMduOg7kS1lZcGyBZgfkWRis+WxN1dT6rfbrzb+/rjhKvYDWIqb4VgKnGxs07pi3JHcXI6+2Sv389U5b6g3IqyS15VXINWtqQnS1hbXqt8Qf8s3/c6vPcY9KMHapjdlY17juytUsgBVXBKwEtk/QmHENgaW59yfg1lbR/BTAM7RqYDbFqS2PQq5ZExKiqy2sVX9sfDb+bKTbbLJeo1zKp/vngXRYbXTF50vX9dZp0EEEJiPAKS+uwtrnz7mrS/n+X88kTg3iJj99bCx+lM39vXefybbKdXYl/bfkIeNa3dT6Y+wfq/GvbHsugAsGvBetedCMz8b/JpXxOorAlAQebrxxDpvS+Il1c4+AMSqeMwC8BwA3FLrbernlrWe+7sLEWfsX9c3KO/T8L4Ii/4Tqa4aPVBsdbezGvzL0sQC4FHkz/bmds9tfb/5Vruk4OYF/M940S5/PnmIDJUsl9XsAx69WENsXwE4JShPfTPZby6Rsl22p9SdIQlIRrvS7/K3GuOS7/K36Q+JP1fhXNv4dAC5I5mIylT/XQNA2v1Vu6ZgFAS7gY7khlr56FdcG4EheC8NUcfkGtH9kzwDXNT/AOKjKoj+Lm6HFCGvetIgMujS1fl9jp278KzuvDeArmdyPVd5xnj+n+mnNjyqXdMyGwMeNN8s/ZJOS6Qzh+t2ptgKtKg3L8YjAhwA2/p82loO6vaH6p8s5t+Z6umL+uzX0h4jRWY/TLz2N75BT/Y6OWCeDDe3TAPj0YNVZDfHdrQAoAAAgAElEQVSfU3z/Jg1mSRGB9AS+aaz4d01vUpESrz7A5iCWCokDCH3dgcYy0GZniH5fO6cI15a2kGtWm0N0tYW16nfFz+XNv83O668+i3G2zhjjdJrsOTiaC6zNeX+UNua6VhgB66I2HA0vdxEBDu5JvUNYs2LxPWd3/I4eGcNv/tZ9INps8tXvYeKkQdrSFnLNanyIrrawVv198XNu/Ot277zexIdlso1Rymscg/Bi7epXx6//OROwrm2/Tc6Jm8A2Luxh3VkxVYW0j0f6OeAvlb6mHB/9HiZOGqSZptBzq/Gh+prhrfq74pfS+Nft5/gAfos/NXGZ5wM01yb4R23oU8et/yUQ4MIzzUoj5Fwr122ay5fPZGDgtzY1bZMrJxjzv6+s+OjfxKDMLvSlz8fPmhwfHX1hrPrb4pfY+NfTwa29d1m/qXPsS8xYgdMAcAn0x2hkfx2t/pdG4BfGBoADyOQ2JcCBSC8aqHu9r8Kv+/12U7M2uTLU3ua0w0f/JgZldqHOM+a/NTkxOutxrPqb8Utv/Jvp4Tnv1RsBuNd68ODL1tNqOcWZv71WdeQLATwSwB21fG8bQl0rlQAr6XqFEfKfg2v4NC3XTYCLBQ25YmBffv2m26y/+Fjyv083/Xz0/8WQTP+40ujytybLJd/lb9Vfj5/baP+6bfovAiIQQeBswwMAv31tHqFzaVG2Ww3IO9jA2VXJd/n7dMHrE0B/aexi63u9X7rb11dPVzi3Br8Qc3zz90u5QonAjAlYV8668ozZpE4a5wN/e8QHgdd6JIArCHY1HtbrPvo9TJw0iJWB1fip9dN+TmUbarGr+sY+VlaKLwIiEEjAOiKW387k/AlwzMSTV1uZWmdfuBoGTnm6sYdZXD54iOlRvvo9TJw0iIuzy99qvEu+y9+qn/G5uqRLT4y/Gv8UuSMZImAgwHXkY27eKg53E5QLJ8C3Ko4gPsnIv8qH5pHT+3zdEBV8iH5fO6cI1+Qaem61OVRfM7xVP9eSGOIBUY2/NWcUXwQSELAuAXu/BDYsWQQHUd5mNbKYezJw9bBmBR5zzh0auUeBr+PDyOGJdNPeUP2+dk4RLoZ/PY7V5rqsmP9W/UN8IopZ3teaDsUXARFoIfAOY8XPNbfl0hDg5wHuaPbq1ZSkr0VMIeSbGt+8Qxr/ynI+BHD5XsvbnkV/ZUdux5hGtx7Hmp66rJj/Vv2pB4nqzd+aI4ovAgkJvMr4APCWhLZI1MYEtl6tMHYnAE9cN+yfAPD11Ypj3FOcUwv/CIDz+DnanwPufL75b6xh0zN2+XIFP8r0WSMgtf5NLZr2SkyjW49jtb4uK+a/Vb9PGfC1S42/NTcUXwQSE2Dj4nsDt4U7JrE9EicCORFoK/Mh16xpCdHVFnZq/ZVNavytOTFMfC7lfo+VaC5a9k4AX1yNTfrR+nPk+eu24SwAXDGWdf2hqx7GlwN4EABOb5YrnADfMKubNOZ4rva5LrwEyPw+AjH3RD1On2wfv7qsmP8+OvrCxOhsxlHj30d4fL+brZdBTrFnCTeTe91qDNFtAVxs/KRIo5XA9sYHAN7sPrvOWe1UfBGYgkCzMQs9t9ocqq8Zfmr9avytOZAm/qUBPH49tqhZRlKdfx/AcwDw06VcIQQ4Ct26GNDjCkmrzBSBUALWyjFUXzN86fq5gqDcdATY8D9rNY7ojAQver5lkcuL770aVHyl6ZItzSEEPmUsHP8XokxhRaAgAr6VXlc4a1K75PpeL12/1f4lx3/A+nu+b1lJHY4vlk/RcvH5F0HukW3JfG6nuWX+yZSFIhBMwHJfMK7VLV2/ld8S418NwMeMdbq13NXjf2m92+IS86KINHMbzHqGxfzn/HU5EZgbgZh7oR7HyqMuK+Z/6fqt9i8t/t1G7u73LZPnAPinpWVGKem9gnEBGBYCLicrJwJzI+BbwXWFs/Lokut7vXT9VvuXFJ/f+rlDq2/ZmCLcAfokkGeR5BxPS4H4OQCuZCcnAnMiYLknGNfqlq7fym8J8Tn97kBj/W0tZyHxPwSAgxPlMiLAxR1CMrEt7MMzSo9MEYEUBNrKecg1qw0hutrClq7fav/c43MWV0mNf1VGuV/IpeaeOSWlb48EDwBfKCnBslUEPAhUFVbs0UNFb5BYvVW8XuEenpWc2KOHCgUxEHhDgno7Nm+t8T6iReQMOZ84KruRTk9QmHZObJfEicCUBKyVnNX2peu38ptz/GckqK+t5csa/01zzqDS0pZiX3htDlRarsvePgLWCq5Pto/f0vX7MFpimL9NMHDbWrZSxX/0EjMwxzSn+AzADSRumGPiZJMIRBCwVnIRKjeKsnT9G8HQyYUEuIEPN+exlo1c4nMdmRspb6cnwAEl3NzBWjC4Y5ScCMyBgPVesDJYun4rvznGPyRBHW0tV6njc7EgbSaUQWl9XqLCdZsM0iITRMBKwFrRSb+VgOLXCdw9Uf1sLddDxP/nekL1fxoCVwbwhwSF7POrLSfZoyAnAiUTsFZ01rQvXb+V35ziXyJRD21bmfoNgA8AeAKAWwPYdv1GfkUAVwFwu7Ufw3BVvzYZ1mvcO4CL0slNTOCgRBl8j4nTIfUiYCVgrdSk30pA8SsC3M7XWh6b8fnJ98kALlMp8Thyh8cnAjhtAHu4L43chAR2BXBCoow9asJ0SLUIpCDQrDBDz602hOprhi9dv9X+ucS/OIAfJKqXWUbOXS0b/B8A2KsQ67jyKz8Z/zGhXdxKWL0AsTliiMeC8DIAHMXfrERizylrK4NNiioCUxOILftVPKv9lZzYY+n6rfbPJf6DEtbLPwRwk4Rgbgng+wnte3ZC2yTKg8B1AVj3AuiqoHb30K8gIpArga5y7Xvdmi5fPV3hStdvtX8u8bl0blceh1w/bv19PzWXqyfsOeZnCY0fS51DHfLuC+CsRIWrrSDeoUOvLotACQTaynTINWsaQ3S1hS1dv9X+OcS/VqJd/vjmz8F9QzkOFjw1UVvCgYhyAxLgE9ZLAVyQKMPaKh9eu/6AaZBoERiaQFe59r1utc9XT1e40vVb7Z9D/KckqKP5zT9lt38X113W4wu6yqPv9X26FOi6nQB3YXpfgkLlyswztbiDPbMkYVICrjLu8rca75Lv8i9dv9X+OcT/eIK6mgP+xnIp1pI5cSxjl6ZnawBfTFCgXBUP/due4vgUuh+A4wFwCUj++H9fADstLTOU3uwJ+JTzvjDWBPbJ9vErXb/V/tTxbwqAe6awgTp7hHqUS/6eZ9TDb+qW0f6hDLdMNGNhu1DFCt9P4GoAvmksTD6VDsNwUYf69yZOGTnA8S3rT+uba8zC2k9Mvksn4Fveu8JZ+XXJ9b1eun6r/aniX9qj/vLNk7HDcZ7/2I7rBFjTeb+xjZ6zvu0HXEWqmdGc/vf3NZhs/D8dUCCOGPmJtWaq/orARgSaZTv0fCNhESeh+prhI1RuFKUpL/R8I2GFntw44Qj3UH7W8FzhL2SRn1RZdPkEPSQvT2XM0uXwzf+kgAbYUug4o+DeDeAHRuh+fUOGTkVgCgKWe4FxrW7p+q38rPEfuf5Mac2HqeJz6d6p3MER9X6dE8epyRkJcOtIfmOvgx3iP79TvRnAVRv28pv/nyP083PAjg1ZOhWBsQlY7xWrvUvXb+UXG59d/v8bUW9Z8yt1fK7tP5V7mpEf16aRMxDgaH9us5i6UNXlsbv/LQC4mFCb44C/eviQ/22DCNt06JoIDEUgpLy2hbXa1SYz5Frp+q32x8Qvucu/WTamnE+/h6HuZzq4boFcJAHurWztgmkWpuY5v+u7Ru5b9hX4VmTaFU0EUhFolvnQc6sdofqa4UvXb7U/NH7pXf7N/K8PxA5lYQ3PcWdNe0LOf2c1YMnxuatSCOyQsGespsFwbWofx0wMkV0Py40h5ERgSgL18hjz32p7jM56nNL1W+33jT+XLv963vM/B2BP5ci0aU/IOTcZkosgwEF4Q63w92EAXPfZ11l3itKUQF/SCjcEgZAKqy2s1aY2mSHXStdvtd8n/g1HnB4dkncpwk4xA6BizocPSxr0AFCRDDjeAACnfljAt8U9Z7X/86MD7KiC/tJoCwcxyonAVATa7oWQa1a7Q3S1hS1dv9V+V/y5dfk3ywDX55/KUXfTnpBztmNyAQT4tnysEXpbBnGrx5sH2FEPat0cYte6MP0XgZEJtN0PIdes5oboagtbun6r/V3x59rl3ywDt+0CMMJ16yBAth1yAQSG+O7/OQBXCrChGdS6zfDjmgJ1LgIjEmhWqKHnVlND9TXDl67fan9b/DmN8m/md/N8ymmAjze+jH6lLfN0rZ3AbQBw7nyzAFjO3wuA6zpb3LuMNr3bolxxRcBIwHL/MK7VLV2/lV8z/ty7/JvlZcqFgKwbzrHtkPMgwMEW3zE2tM2Cw0UwOJXQ6l5otIuzCKYcyGJNv+KXTaB5X4SeW1Mfqq8ZvnT9Vvur+Evp8m/mP8duXbaCMOKRdbZlBhjT8aIR7S1a1QuMjWyz0HBhnxSNP6HeP4Ftjyk6d2R8yQSa90bouTXtofqa4UvXb7Wf8ZfU5d/Mf55zY56xHT/dttkScu2eYxtdor7rAzg3AewqY9htk6rxJ0+OBLVOSfwugIuXmDmyuXgC1X0Re7QCiNVbxStdv9X+0rv8U2wHfNrI6wFwMPrJxjaJbcaUMxis5W60+P9nBF1VFDweNVBBSbEF8bNHIzqtIu6dwOWTuX/D7z3ylmEYdl+PVRlTpKxpH2/UMwH8Yr3hFMvQQQBeBuAfAPxV4gfKFGkIkVG/P2L+h+hqCxujsx6nTWbItbqsmP8hulKGHbPLn/cfexmGcp/0qAdcefO8oYxrkfuvCez9eotcXWoQ4BQPV8b7+nOq3xUb8lOdck1/Xzu6wrGXg9NK5uo4juOAyI2TKmYcBLr/QFspW+zjt8CPAODmIFx0pSRXsY09WtMaq7eKV7r+GPvH7PLnWCk+bAzprJvqsCxwUZ1bDmnkWjb3HvhDgvpeWwF7ZNYXEoBm4TgbwE099MUG2SWRnaevNh7i+tJzc2xcua9CVWlbj0ckfghIbd9xAJ6z2j1yuwIy0poX1iQuXX8ov7G6/NnzRl1jONZ5MTuqNssOX/KG3BuAdrKObuqNOR+yPRojzwbXcddEoJk5jxjcWsCyKVC9ALHxuMYI9o6p4sCEeVmxen3CBAxhH+3kFtLvHOnNJBZHxTP2GKu3ihert4pXyYk9VnJij7F6Q+Nx1PlY2/cO3eXflvbDEtURrIeH+LbOxj/Fp16WM20C11YCGtc+m6hAcK7/GO5fEtnLAsKnzLl8DuA39RRP980Kmp8DdkyQsUPZ17SXY1k4XiA317Qz9NyanlB9zfCl6/exf25d/m1pfkDC+pMr7O3cpiTy2q0Svvmz/E65eFEkgnGj3S5RYfgxgK1HMn2r9WCxZgUVe87vTJz+WPoaARzwF8vAFY9jL6yOgwtdelL5s0fgdSN8Uw1hYk1biK62sEvX38akfm2OXf719FX/N08wsr5eljimigMDLQu9cbQ/ZaT45l/Zxr1jhh5TUTEt9nhIokqZc/THdFzYocroVEf2BnCea6kPAqk+jbTxTNGVNqR9bTbz2kkZ9fB02eh73Xp/+erpCle6/i77597l35buxw5Qf7I3gPXn5dsUdlwj+z0TP5BU5fe5HTp1eU2A37/PT1AQPjEBUc4y+HkC26vCUj9ypPl7Vl1RXH969/V3rhK2EraullVn0Pz/2wR5PKR9TXvr5yzjT01gv1VE3aaY/9JvJbBp/CV0+W+aaoC9AEM9kHMg+MHrmTr8vMpv+nwTZx3KMQOsU9k1z0/GQ9UJXPNAb/9tOV+79pIEDSi7Wrlt8BTuUQnsD6mIx54nH8qUjXRIekLCpthOc0j7fNLCaY0pF6YKzR8fG/vChOprhu+T7ePXlBd67qOjL0yoPlf4pXT5d3G4y4D1RV8+juH3kK5E6/pFBFgRclUna2a8cUKgmwE4OkEaYhgMOU8+FulQT/TkU+ongGbeplyaOjSfmraEnofqa4YP1dcM35QXet6UF3oeqq8r/BK7/LtYvH2i+jM070PCc7EjOQeBv06Q8Rz8MfU0uusB+HWCtIQUsHrY1PPkHdnW6z3kILvX9mr28xzSvnqeuP5zkaQpnMsul7/VZpd8l3/p+mk/F49KNcXMxYurWOY+noifUvnt3pWWUvy5kug1rQV1CfHfnCDT35AJqAcmSIulgKecJ29ButMA2ziTC3s7UixPOpR9MXk3xaYmMXbW41jKBuPWZcX8L13/0rv8u/KPq8DyU25MmcgpDpcSv09XInV9A4EtAPzKmOGcb87Ng3JxfEOdqjCmmiefgiW/c6fmwOmFqdwQ9sWklxXebqkS5Sknxs56HE81ncHqsmL+dwr29IjRWY/jqWaTYGN2+fMzXIqH5U0SMfCFFDvu1fNqiv//PjCj2YhPMff/g5nR4HiAsVbvaivcKebJp0DKkbaHJ3wI4KphKXdPTG1fW174XmNXcMq0ufLP166ucC75Lv8uub7XXfJd/r56usK55Lf5L3WUfxsL17VXJKw3uvJwqOv/DYBtgJwHgb0TZHSO+yuzMv9ogrTFFNIUg+Q8ss4rCBtZfpZgz0RMWhiHcfnmP0QDmcK+2HQ143EfgbFcU3foudXOUH3N8KXp/yfPXTCb6Qw9H3Mtf2seuOLnMk4nJA+4BDinNcp5ErAOguGCOfyMkKOjXRzpHVKAUoRNMU8+NU8u38ueCT6c+My3ZRiG5eeUMboxQ+1LkU9NGdx6eKyBWk3doefW8hGqrxm+FP3q8o/PKb5Fc/vtZt7nes5ZaGr8A/L7SqtlbzlYwpKhKUaEB5gcHJSF+NXGNIbyyfEBIBjcxBG4UyAXCtkBANcE52pl7Mn4vLE3w5WXzxgp3S47XP5WM13yXf4l6FeXvzWXLorP1fm47a+rTEzlzzFoz0+T1GVJ4ShJa6ZxDEEJjssTjzVFMKdPACXkTaiNV14/EKTc6ri6D7gr5Biu0hd7tNoYq7eKl7t+dflbc2jj+FzFL8VaMVX5SXVkr93dNjZVZ74EXmN8ACD8krpcrgsg1W6HfQU4l0GAvuWg5HBcSvQjxnLczEvODx/aNXWGnlvtC9XXDJ+rfnX5W3OmO/4VALw18b3WLFch59zp82rd5srHReBIY2a+w6UgQ39+EuAc4DOMae8qqKnmyWeILmuTHgyAO3515UvI9aeNkNIQe9rCWk1skxlyLUf96vK35opf/DuvxweFlJeUYU9eLeB0Pz9TFaqPgHX+P78Nler4NMttf60MmgU75Tz5UtlOZfe1AJyS4CHgbSMkoFluQs+tJobqa4a36L9sgjxq6leXf5PIsOccYM39V76bIC+bZavr/Eer+vopxq2Gh6VSkHQu29sF2vf6jQpKb5eprIyeCeD4BDxSz5PvslnXuwlcBwA3K/Itw23hju0Wn8ynTW/INashIbrawsbq5/32OWP+0J7Kqcu/IjHNkZ+A77vaZpu7wHIwXltZsV5jeXnYegfBaVI5Q63W3Z+4zvLcFlu4xXrGABuAkMI85Dz5GRa9wZP0dGNF9JPBLbRXlFYTrZVyjP5UjX/1AKAu/5hcGC7Otqtt2Z+0fhjwmWrcVQa5rwz3VXnWaszBtYczd9mSub99Vwb4XOdT2ZzdNuvvTFxSkotLfBUAvz3xkwGnxIw9T37OrFOnbTtj2WYFNLTzucf6wljt65Pt4xeqP2XjT/vU5R+aA+OG5ycCDtDlssKvA8ABe19c16GsR/n7HoAvA+BKspzi+wQAt1YX/zgZZV0BcKpd1MahIy2lE+BaDD4NWVsYfkIY2rXpDblmtS9EV1vYEP3sprcOOG6zYehrJwK4SUhCFVYESiHwXkMFyRtvjJHSpbCUnfkR4EYssQ3EGOs4xNpWxbMSr+TEHn31p37zj7U3NB73Erm0byIVTgRKI2B9Itc0jNJyfFn2WtYxH2N1y9AGqRnemptNeaHnPvpLfPM/B0DJs5t88kVhRADWPQDG3j5VWSYCIQR2ilwyeKx1HEIb3Gb4EBZtYZvyQs/bZNavldj4q8u/noP6P2sCnFMZetPXw19z1nSUuDkQ2D+ijI+1jkP9Xor5b82fGJ31OH36S+z2V5d/X47Kb3YErOviX3F2RJSguRHgVsOHBzwEjLmOQ70xjflvzasYnfU4XfpLe/NXl39XTur6rAmcHVAx1m/86j8rVzkRyJ0AyymnGLFrvyq7zeMU6zg0bQg9t3IP1dcM36a/tMZfXf5tuahriyBg2d6RWwjLiUBJBHYEwE2aOMKfazhMvY5Ds0ENPbeyD9XXDN/UX1q3v7r8mzmo80UR6Hsjat7sbecXWxQtJVYE0hJou6dCrlmtCdHVFrauv6TG//frzcDq9uu/CCyOgPUTwMUXR0wJFoF0BNoa1ZBrVktCdLWFrfSX1O2vLv8q13RcPAHr1qmXWzxBARCBeAJtjWrItXjNF8UM0dUWllJKevNnlz8fVuREQAQAWKcBXlcURUAEogm0Naoh16IVryOG6GoLW0rjry5/a0lR/FkSOK5nVHTbDd+8xo0e5ERABOIINO+n0PM4rRtiheprhk+xpW9TZupzLgfNHQPlREAEGgRC5ke33Zh/35CnUxEQAX8CbfdUyDV/Te0hQ3SVGFZd/u35rqsicCGBdxl7ALhXs5wIiEAcAWujGqd1Qyyr/lzja2GfDXmsfyLQSeDVxgeAAzsly0MERMBFwNqAuuS7/K36c4yvLn9XrstfBNYEnmB8APiMSIqACEQTsDag0YrXEa36c4uvLn9riVD8RRH4W+MDAFdS23xRxJRYEUhHwNqAWi2x6s8lvrr8rSVB8RdJ4FrGBwBWAFxeVU4ERCCcgLUBDde4cQyr/hziq8t/4zzVmQh4E9gMwJnGh4DHe2tTQBEQgToBawNalxXz36rfEj/FFEJ1+cfkuuKIQI3AEcYHgINrsvRXBETAn4ClAWVcq7Pqj41/NICtjPVOivRb+Sm+CBRPwDoTgD0IGgdQfDFQAiYgENuAVvGsJldyxjzyzZ8rCNJZ9a7F6CACIhBLgIv5WG/Ev4lVrngisGAC1vvOis6qPzR+9eZf2R0avxm+kqOjCIhAJIGtAfzZ+BDwxkjdiiYCSybQbNBCz63sQvVZwjcbf9pukce4ciIgAgkIfMN4M/4cgLYGTpARErEoAlM3gFb9vvHr3f71DPaN3xWuLkv/RUAEIgnsbXwA4A16/0jdiiYCSyXQ1bD5Xrdy89VjCdfV+NN2i1zGlRMBEUhA4DYJbsbDEtghESKwJAJTN4BW/a74bd3+9fx1xXf512XpvwiIQCQBjuJnN77rhuvzvwDAjSL1K5oILJFA3/3k42dl5qMjNkzfm39ld6zsKl4lR0cREAEjgTcbHwB4U77VaIOii8CSCFQNWezRwopT8WL1uuL5NP603SXH5W9Jv+KKgAjUCNwhwQ15HoDr1GTqrwiIQDcBVwPn8u+W3O9zGQBHJrjf2+xzdfvXLWuLH3KtLkv/RUAEDAS4LPAPElQKXJ5TTgREwE0gpLFrC+vWsGkIvvnzDb1NnvWa75t/ZZVVXyVHRxEQgQQEXpKgYuCaArdIYItEiMDcCYzdAObU+DNvx07/3MuT0icCJgLbAWA3vvXG/LTJCkUWgWUQsN5nucQPffOvctdqfyVHRxEQgUQE3pvgAYA39iMT2SMxIjBXAtYGMIf4Id/8m/lotb8pT+ciIAJGAinWBOCN/SsAVzXaougiMGcC1gZw6vixb/5Vnlrtr+ToKAIikJDAUYl6AT4IgIML5URABDYlYG0Ap45f7eq3acr8rljt99OiUCIgAkEE7pToAYA3+FODNCuwCCyHgLUBnDq+Naes9lsfQKz2K74IzJYAv+1Zb1DG/wOAXWZLSQkTgXgCKe6vKWXEp/yimFbbrZ8grPYrvgjMlsAeALi8r/UmZfyfArjGbEkpYSIQRyDFvTWljLhUb4iVwvbPA9hqg0j9EwERSEXg4EQPALzRvwrg0qkMkxwRmAGBFA3glDKsWZDKdvUEWHNC8UWghcD1AJyb8CHg4wAu0aJHl0SABG4CYD8AxwP4/frH//sC2GmGiFI1gFPJsWZJSrv1EGDNDcUXgRYC/5HwAYA3/KEAtmjRo0vLJXBJAAcA4CqSXY3CnwDsP7MHyK60lnLdWmJTp1OfA6w5ovgi0CDAN/YTeirmmJv4/QBY6cuJAMsBV470LUdHzOghwDfNuYazlt4h0qWeAGuuKL4INAjcGgDfwFLesIcB0DSeBugFnh4YUa5ePxNOKe+nKWRZs2Eom/UQYM0ZxReBBoGXRVTUrhv8MwC2bOjR6XII8Jt/X7d/V/nhw+iOM8DUlb5SrluzYMh06iHAmjuKLwI1AhcH8JUBHgLeVdOhv8siwAF/sY3APjNAFZv2XOJZs2DodOghwJpDii8CNQLXB/BrQ6XddcP/dU2H/i6HgGVsybdmgKnrfijlujULxkinHgKsuaT4IlAjcK/Ibtu+m/0jNfn6uxwCvzM8TP52Bpj67okS/KxZMFYa9RBgzSnFF4EagZcaKu62m55zvlOsD9CcR/7H1V4EZwI4GcBxAD61nkr2zwD+dvV/m1qa9Hd8AsyftvLgey1FmRk/1Rs0+qazK9wGSXH/uuT6Xo/TuiGWr54U4Zb4EHDl1Wfbu69e2DiVm9u8c3n309Z1IpdoJ1fWvT8EcMxqrQ3OznoJgH8AcM0N2aR/IrCBwNUBfMFYcbfd0NfeoCL4n8888jadHIB2LAB+T76nBiQGc7dG+KWxHJX+ANdWJkOuWfmH6GoLO7X+Npv6ri3hIeDmqx1YXwzgawmWcj8JwBsA3EG7ulqL+jzi7wbgx8ZKu+sG/atIRKHzyLv08zrHN7wJwG1V4CNzIyzaqcaytGuYuuxC95VFH3gRvScAACAASURBVD9rgnx09IWZWn+fbV1+c3wI4BLre67f4rvSbb3+g9W9+sLVAwF7FeQWSOCBiZcFrhdITuuKXRMgZh55XXfX/++uHnYem+jTxAKLi1eS2e3Yxd/n+uO8tOQbyCeNfWGsKeuT7eM3tX4fG9vCzOUhgA3/MwH8zHgftTHqunb2emlu9gTLLYTA0wYY+FcvYN+I5Bg7j7yu2/X/R6tvZk/V54HIHOqPximgLv59/u/uF5+9b1/afPysCfTR0Rdmav19trn8Sn8IuP+AvbEudvTnINx/AcDp4XIzJbDZage/VxkraZ/C9PhIfpZ55D521cN8fz2gJtJURWshwC7FOuPQ/5xFcJkWuaVcCk1vM7w1nU15oedT6w+1txm+xIeAbQF82HjfNDlYzrlZ182sBUHx8yPAxp8DQCyFwyfuiYZ9ASzzyH1sawvDkbLb5ZddRVrEt5g2xiHXHlNkyi8yOiSdbWGtSW+TGXJtav0htnaFLekhgDOXzkhwz3SxiL3OGQXsJWabITcDAhdbD4aLLRC+8c4CEDv4j5gt88h9bWwLx8GCD5hBPk+dhKskGKnMsRqldkO2la2Qa9b8C9HVFnZq/W02xVwr4SHgeQN/ho3h1ozzNo2Zst4S08fnU9x/jfCUyZXcLI0/SfE7VLMQjnV+wXrv+tLnok9d4r6ZIA+fPXUiIvVby2qk2r9EK12/1f56/FwfAvgyxs2v6rbm/J87e17+LyVMf4ojsPfAhe18ANRxqQRkpvgE0Lz5jlqNir1CgrQsVQTXYGgyDT0/F8AeBQIMTWczvDXJTXmh51PrD7XXFT63hwC+jPGt2mV3bv5cJ2Yra+FQ/PEJ/OvAhY3TvrhQRSq378D2+t5YHAhzjVSJWpicXRLl4ekAti+MnW/56gpnTW6XXN/rU+v3tTMkXE4PAf+Z6N4ISX+qsHwxSvGSZy1jiu9J4KEJvsd2FR7O83/5AN9qdwJA2V16x7x+CoDrebJWsI0JpOrJ4XLPJT2IWcvnxhTDz0rXz8bamoa2+Dk8BDxnoLS1pXeoa+8ML5KKMQUBrnxXrQ2dujBw5cDbD5io/TO6UfgQoAUywjOb84lTlTv2BJTyOcCa5nDSG8coXT8XD5vjQ8DfZPRiYy0jvLflMiZwHQDWNdm7CsmRAK46cNo5CO/whA1IV1p8r/MtVINgwjKd3wu5aZMvY1c4Psy+oIA1AlzpcPmHUd40tEu+y39TiWFXXPJd/tQ2t4cA1pdjruznYmz155gvLiEvlyEBfqP5esKKt15Y+H1+i5HSzIcAjpTN5XMAv3+VOjVtpCzbRM2LBiiH7A14YsYPAvX7Jeb/JhADL8TorMcJVLdJ8LqsmP+VwDk9BHDXvhgWOcfhJ74tq8zSMR8C/ztAYWMjzO12p3A7rnf24xTDqdYIqG7EV08BoGCdVwTw8wHKI/ODZeE9ALji5O4AuP5ADtM3q7ISe7Rmd6zeKl5O+ufwEHCvgcp/lV9THrnNsFxGBB41QGHjdKx7Z5RGvoWzYdlhtYXxXdZr+nP9eb4ZDn0zcJ0AbjEs509giDLZl8/cC50zONhbxQGlY7s+23z8rPb66OgLk5v+kh8CWFdxufE+3rF+vwHAeo+bm3EHTe7oR33sAeagWXbRc78T9j7wnojV0xePmwhpBVXrHZMo/vUHeENm43+3RPaNIYY3AqfZDDX+gTcDZavQ++cm5z0fPVAF1Fc50Y89VxxQOmbPgMsml78/2faQLvku/3ap/ldd8l3+bZpKfQjgzpau9Ib6nwTg0av9XLhroK+73HprYQ5oDtXnCv8WXyMUbjgCfPL7SuLM5aCruw9n8qCSuZnM0wfcWevgQa2fn3BOpeRSy67KZCj/I0Z8CLCmwZr7c9Vf2kMA6+QfJizz56xe8J5lHIPFb/ZcfpgvdtZyUsU/r8C1Oqz3WHbx/yNhhjJj2fjfI7tUhhvEp2QORBtiOmSpD0fhFNPEeGDiMlpVQL5HDigdw/na0xXOamOXXN/rOesv6SEgxaZYVZ5xb4yUn7O4UNepCe/HvayFRvHjCdw4cQP3x5k0/nWiXKmQXWfVDZXiyJvyknUl+u8k8NrEeRCSj/wcwAGlQ7sQm9rCWu1rkxlyLXf9pTwEfCpRWeeMLn7fT+04aDbVYl2/0oyA1NnjJ4+bSnCN5pAb3BX2kX6qiwvFeekfSMzqycVRmNZgjgcYYpaKq0xX/tyjYGhX6Yo9Wu2L1VvFK0F/7g8B10y0AitfMoZo/Ks83jbhIMWcBopX6Zv9kYNBqhs3xZFvaHN2m68WMTowIbPTRvy2PJd84bfRjybMg5Byz6mkQ7sQe9rCWu1rkxlyrRT9HOfDRclC0uYb9vPGjW84ZdpXV1c4fqe/mTUzPOLfcjUugL2+XXb4Xn+Hhy4FSUiAN8BPEmRclcGfBMAGcgku5YYcj1kCsMRp5GJSHD1clb2xjtxqemhnTYvVviXpz7Un4OMJyjYH/I3lnp/A3rMAsEdabiQCL06QaVVlwa4mzq1fiuODzqGJ+HFsAbu25cIIkBkXVqrK4BhHPQC4eYfl4qahrfm4qcT+K0M+BMSk5acAODI+Jm4Vh3XKWCuuki7HMv3IaDNtH6PHor80LMSXCz1wEYaqwFiOXFHtRgvhVk8mK44TEzG8dV2w/gcR4GjpsaYI6hOAu84IyryWwJa6iHFjXG4PAVYG/LQ7tuPy2la7NSZqpFw7KEFmVZn9hJFszlHNLRI8rZPjG3NMXEE2XRfAZxOW6apsN48aBOiu5K3Fpsk89DxW/1weArjCX8giP7G8mvHIj2sNhOZXPbwWBWpSHeCcczj/bMyoKtMOU/d1km5o7nqnKYG2ws5PApyBckaisl2V8erIaYCcMju0q/TFHq32xeqt4pWsfw4PAVzedypn/SzKDdPkBibwkUQVJJ80OV1l6Y6VBr/bVRVg7PHvlg4yUfqvsN72l3OLY/OiLd5+iexziWnTHXLNJd/lH6KrLaxLvsu/TWbINZd8l3/pDwFc238q9yTjPffjqQxfil4OsuCGNCE3VFfYKQtabvn1zARMX5Vbogq3hxU584Ub+3SVYd/r7Oni9MMxnK9NXeGsNnbJ9b1eun7aP+QUQV+OseG4n8lU7vbGe429bHIDEuAa9LEFqx6PU/40cn1DRrHCsG4g9LUN4vQvMQGO1eCMgWMDP3+xQuKb/1iNP5Ndv89i/lvRxeisxyldf2V/qT0B21QJmOB41QTll7sRyg1A4Frr3c3qN2vM/7GWRB0AwaAiuVZ8DM8qDsdlbD2ohRJOAqwg77e6F/4dwDtXy1Z/FcDJAPjJgAuacFYLR/tzUasxvvk3c6UqD7HHprzQ81i9VbxQfc3wlZzYY1Oe5bzEnoAxd65ssuWugbH5VsUbcuXCpr2LOk81Z/q/F0XNP7HcP7sqxLHHO/mrU8iZEogtO1U8K5ZKTuyxdP1N+0vrCZjyDZq6Y8tNFY97DMglJsBpISkGRXF5ye0T2zYXcfwk8jPjDcC5tHLLJlBVhLFHK71YvVW80vW32V9STwDXeJnKsW2oykHsccoHmKm4Da73EQkyhhmqbRv7s+o9Rs779ouX7wIIxFacVTwrokpO7LF0/V32l9ITwJ7IqdxtjPWfBgEOlHMctBd7Q1fx2IPAKVZy3QSebuTMNcDllk2gut9ij1Z6sXqreKXr77O/hIeAp/QlYGA/TQMcGHCMeI7M5JNVdYPGHrl3gFw/Ac7lj+XLeN/oFy/fBRCwlB/Gtbql63fxy/0h4L2uBAzo/3/G+k8LAQ2QOU81ZgorBG5Owb2f5foJ7GBkzdHocssmsPQGeOr0+5Q+PgSwsbLaOkT83wPgaPyx3VbrGTSWNGmA+QC59qUEBZXftuXcBDjFzHID/NytQiFmTsBSfhjX6pau35cfp9tx6m+K3lUr82b8PX0TkTBcihdNbQaUMEMoyvpGWhWs2ya2a67iuJ5/xSzm+Ie5glG6vAnElJt6HG9FHQHrsmL+d4j1vhyjsx7HW1GigDsCeN167Qi+fddtifmfYjvgU1YDtrdMlD4fMaz3qDMmvfU42g7Yh3ZAmH9LkCn6Lh0AfLX8LPeMrxfqkP/cX0GuLAI3Wa8WyCWH2QDwx/+c0bFTRFJCyktb2AiVG0VpkxlybSNhESchutrCRqjMLsrHDHVIxeR5I6bqRQns5YZoFxvR5kWo+kyCjHncIkilS+QJBuZj7DefLqXLlsS3ngMcSwuze3h/ACGrs1UVeOzRmiuxeqt4peu32p8ivnU0PfOCa7Zw59eh3c0BsOeyyv/Y49uHNnRp8rl4BZc2jc0Qxjt/vXTq0thZ0ss3v1jmXH5WLn8CbPw/HZDPRwQ8BMSWnSqelV4lJ/ZYun6r/Snic0GdFFu2n7p6SB1yZT0ODP9RwH3QV6bunQKcZGwgcNcEGcNKTi6MALt9YwYGMc4Ua8+HpU6hSeDAiHuLA8Z8XF8l6ePno6MvjI+OvjB9sn38+mT7+PnoKCFMirVbyIs9kkPM4KLM4yLug7Y85BozfKiWS0hg7wSZw5GdcuEE2O3bVtD7ro2133x4ahSjToDf/GPezviAxwFjLtdXRnz8XPJd/j46+sK45Lv8+2T7+Lnkl+LPDat80usT5vsAdk6YcHb7p3rzp/2vTGibRK0JHGMsQBcAuKZoRhHgN9/DA/iPud98VIIU6S8E+KDmU+m2hdnnL1K6/7TFC7nWLdnPJ0RXW1g/Ld2h2mSGXOuWXJbPFgDYhR+S9r6w/Bz8fOObNt/SOeAvxTf/ylauMTPl/gVllQpPa68Y2Q1dZQqP3CZVLp6AzzxhvhWOvd98fIoUkwSGHuRZvwdj/ltzKUZnPU7p+q32p4z/mIQPAFUe8c2dm45xMSNfx0V+2BucYqpfZUd1fLOvEQrnT+DuCQqOlv71590Xkt2+fPPjCH/uNT/1fvN9tsrPTYD5V1VeoUdOEXW5UJnN8C75Lv+mvNBzl3yXf6i+ZniX/JL82QvwPUN5a7Kpn3OWwKEAOOPg9qtxLVwyni+OHDzON3Ju7EM/Lu9rKfN1nc3/nDI7xPiEkvJ4EFufk6DQ3G0QyyRUBMom0KzEQs9dqQ+V1wzvku/yb8oLPXfJd/mH6muGd8kvzf+eCeryJqNczvk5QW4AAgcZCw2///NpUE4ERGBjAtbKc2Npm54NLX9TjRtfWbr+jWnkcWbdZtyap0PE//bIqxXmkZMjWfF14wPAiSPZKTUiUBoBa2XoSu/Q8qXfRSA/f87lP91Yp1vLVcr4XF9mjEWK8svJESzaHMA5xsLyPyPYKRUiUCIBa0XoSvPQ8qXfRSBP/1uvd2W1lo8c4j8jT8TzsOqvjI0/C8gT5oFCqRCB5ASsFajLoKHlS7+LQL7+z0xQt1vLlzW+lvwduHzdP0EhudXANkq8CJRKwFoButI9tHzpdxHI258ziqxlZKr4XFn2UnnjLd+6FE+JmppRfjlQCoYhYK08XVYNLV/6XQTy9t9stUAbP9Fay8nY8T+3nmKYN90ZWLeXsXBwlSdtyziDgqAkDELAWnG6jBpavvS7COTvz/rZsumYtYyFxudKp5fLH+s8LHyL8QGAC0/IiYAItBMIrfya4dulbrjaDB96vkFS3L9Qfc3wcVo3xGrKCz3fIGn+/7jeS8y+FKFMLeHZHl18/lmRTwo/bHwA4Br2ciIgAu0ELJUh47rc0PKl30WgLP87rwZt/8xY51vLXFt8zkR7clko52Htl4yF4b/ngUGpEIFBCLRVdiHXXEaFyGoL65Lv8m+TGXLNJd/lH6KrLaxL/hz9rw7gQ8Z6v41l7DVuE8xt0eUmIHCysSBoa8YJMk0qiyEQWylW8VwJrcLFHl3yXf6xeqt4Lvku/0pO7NElf87+9wVwmrH+j+XOeL9e/Z4OgHsYyE1EgBuOWDJR6zNPlHFSWwQBy73FuC43tHzpdxEo239LAE8beeVAbhb0mvWGQmXTm4H13GLWUok8bwYMlAQRGIqA5d7SA4A7V4bm67ZgHiEuDYDbCX/Z2B705QcHjP8bgK3ngaz8VHAZ4L4M8/HjOgJyIiAC7QR87qG+MO1SN1zti+vjt0FS3D8fHX1h4rRuiNUn28dvgyT9qwjcFMALAHxldeRGbz4cu8JwE5/9ANwWANckkMuIALt/ujLO97pGbmaUoTIlOwK+91FXOFeCuuL5XnfJd/n76ukK55Lv8u+S63vdJX/p/lcCcNfVvgLPB/BOAFyg5xQAZ65/7EHmZ+QfAPjqajDf+1fA+Fn4AQC2Wzq83NPPbh/fG6Ur3GNzT6TsE4EJCXTdN77XXab7yukK55Lv8u+S63vdJd/l76unK5xLvvxFYLYEOPqy68bwvb7nbOkoYSJgJ+B7H3WFc1nQFc/3uku+y99XT1c4l3yXf5dc3+su+fIXgVkTsK4M9dxZ01HiRMBGwLch6grn0t4Vz/e6S77L31dPVziXfJd/l1zf6y758heBWRM429gLsPes6ShxImAj4NsQdYVzae+K53vdJd/l76unK5xLvsu/S67vdZd8+YvArAlYF4J406zpKHEiYCPg2xB1hXNp74rne90l3+Xvq6crnEu+y79Lru91l3z5i8CsCRxj7AE4eNZ0lDgRsBHwbYi6wrm0d8Xzve6S7/L31dMVziXf5d8l1/e6S778RWDWBD5qfADQZkCzLh5KnJGAb0PUFc6lviue73WXfJe/r56ucC75Lv8uub7XXfLlLwKzJvC/xgeA42dNR4kTARsB34aoK5xLe1c83+su+S5/Xz1d4VzyXf5dcn2vu+TLXwRmTWAv4wMAt3HUCk+zLiJKnIGAb0PUFc6luiue73WXfJe/r56ucC75Lv8uub7XXfLlLwKzJsClfH1vlq5wWvFp1kVEiTMQ6LpnfK+7VPvK6Qrnku/y75Lre90l3+Xvq6crnEu+/EVg1gQekuAB4E6zJqTEiUA8ga6Gx/e6S7OvnK5wLvku/y65vtdd8l3+vnq6wrnky18EZk1glwQPAM+aNSElTgTiCXQ1PL7XXZp95XSFc8l3+XfJ9b3uku/y99XTFc4lX/4iMGsCWyXY8entsyakxIlAPIGuhsf3ukuzr5yucC75Lv8uub7XXfJd/r56usK55MtfBGZP4CfGXoATZ09ICRSBOAJdDY/vdZdWXzld4VzyXf5dcn2vu+S7/H31dIVzyZe/CMyewCeMDwDcM/oqs6ekBIpAOIGuhsf3ukujr5yucC75Lv8uub7XXfJd/r56usK55MtfBGZP4OXGBwDeXPedPSUlUATCCXQ1PL7XXRp95XSFc8l3+XfJ9b3uku/y99XTFc4lX/4iMHsC90vwALD/7CkpgW0E2PPzgFX5eSGAdwP4GoBTAJwJ4DwAv1/5c7GofQHs1CZg5td+a7i3fuPBpqth873uoaI3iK+ernC9wj08u+T6XvdQoSAiMG8C2xsqqepGO3neiJS6GoFdAewD4FuBA0j/BIAPipeoyZr73xMM9xb5ulx1/8UeXfJd/rF6q3gu+S7/Sk7s0SVf/iKwCAI/MFRU1c13w0WQWmYiL7d6m/8XAN9OUE6OWNBDAHs+qvsj9Phaj6IWKrMZ3kNFb5CmvNDzXuEenqH6muE9VCiICMyfwFsNFVV1U/3r/DEtLoVbr5Z6fvG6S7/K5xTH1y+EJD97sOcjlBnj3NiDUajcZngPFb1BmvJCz3uFe3iG6muG91ChICIwfwKPiqikmjfTsfPHtJgUcn+HxwD4RYJy0SwnPGcDt+NCaPKzRxuDvmv7ebLpk+Hj56mmM5iPjr4wnYI9Pfpk+/h5qlEwEZg3gW0Dv+d23Vw+by3zJll+6nYA8PmIRqurTHRd5ziCJTiOeeC22V0cmtcPA3BxTzDNuKHnnmo6g4Xqa4bvFOzp0ZQXeu6pRsFEYP4Evh5QSXXdaK+cP6ZZp/BBADj6vCt/U173GeQ2F9h8COBnj77PAfTjm79v40821vyw8l26fis/xReBbAi8NEGF8rPACiybxC/ckIsBeF2C/A9pEDhFbmmOnz2qGRS/A8AfH4Q44C+m9yyEd1tYK/82mSHXStdvtV/xRSAbAik2BuLN/8BsUiRDfAjw7fRdIzf+LCc+89x97F9ymJDGti2slV2bzJBrpeu32q/4IpAVge8laAg+m1WKZEwfATb+H02Q5yGVfhV2SZ8A+vLA4lexjD1adDNurN4qXun6rfYrvghkRSDFssC8uW+VVapkTBsBjvR/W4JKvKrMQ48+89zb7Na1DQRCmTfDb5AU968pL/Q8TuuGWKH6muE3SNI/ERCBC5drbd4kMeeHiGX2BMb+5l8vR77z3LOHOLGBdaYx/63mx+isxyldv9V+xReB7Ah8KcFb4Z8B3DS7lMmgigBH+9cr4rH/+85zr+zVsZ2ANd/apfpfLV3/Zf2TqpAisAwCj0vUOHxwGbiKSyXn+Y811a+tgQiZ514c3JENbuMbcs1qboiutrBT6+d6F1tZjVB8EZgTAd4Qll3M6jf6HnMCM4O08Lv/GIv81MtA9T9mnvsMkA+ahIpt7NFqXKzeKt7U+mnH5wCoJ8CaE4o/KwLsoq1uUsvxqwA4x1wuDwJc3teSn6FxrfPc86CWrxWh+dEMb01ZU17o+dT6K3vVE2DNCcWfFYHrOFYtq24cn+MjZ0Wm3MRwY5+h1vbnJwWuJfDY1bRCbhd8ZS0INUpB8bn/+sJYjeyT7eNn1c8HTB89PmH0EGDNDcWfFYEPJLq5Tl+tMnf5WZEpMzEvSZSf9cr0JACPBnDpMpEUb3U9L2L+WwHE6KzHseo/IXGZ1ucAa44o/mwI7J7w5nrzbKiUmZDLJd7S95zVMrbPArBFmThmY3W9MY35bwURo7Mex6p/iKmsegiw5oriz4bAxxI9BFywGmxzp9lQKS8h/5IoH1l5fxe4cL2I8ijMz+J6Yxrz30okRmc9jlU/90/o22Cprivkvx4CrDmj+LMgkLIX4AcArjALKuUl4tuJHgC4YyS/78vlQSCkUWsLa01Fm8yQa1b9jM9dFkN0+obVQ0CK3JGM4gl8OOEN9t7iaZSXAA7K8630+sLxzV+Nf17535dfPn7W1Pjo6Atj1c/43M/iqERlvGmrHgJS5JBkFE2A3WznJ7zBOBVNbjwC3H62WbGFnvOb/07jmSxNngRC87EZ3lNNZ7CmvNDzTsGBHpzHz8Y6VL9PeD0EBGaGgs+PwBsT3lznAthtfoiyTRF33fOp6PrCcMCfXH4E+vLMx8+aIh8dfWGs+uvxLwPgyARlvc1eTRGsk9b/xRG4KoBfJ7y5TgNAmXLDErgKAA7AbKvUfK9xqp9G+w+bT7HSffOwK1ys3ipel1zf65WcVMe59QRsCeB2ADiI903rB5zvA/glgPPW9zXXQvgVAE6J/DgAvqztCeCWWosjVbGSHBL4Z2ND0qwU+FR9KaEdlMADEuQZ5/nL5UmgeU+FnltTFaqvGd6qvy1+6Q8B1wDwtPW4hj8a718u6X4wgEdoAHZbUdG1EAKbAzjGWCCbFQAXG6JcuWEIvMiYX1zhT4v8DJM3KaQ276fQc6sNofqa4a36u+KX9hDAOvA+AD6VoMeuybg6PxvA/wLQ/ixdpUbXnQR2TjwgkIXzAADcpEYuPQEuz1tVADFHxpfLl0BMntbjWFNWlxXz36q/L34JDwHcJ+VhANitH8MvNs4RAG7TB09+ItBF4GUDFFau6CWXnoC1x4Zr+8vlSyC2AajiWVNWyYk9WvW74uf8EHB7AMcOUJeG5MWHAFzbBVH+IlAnwHm3QxTcV6snoI45yf9TjRUM1xCQy5dASGXfFtaasjaZIdes+n3i5/YQwGW52etpHZwbwrkv7O/Xgwz1KdanNCnMhQRuCoDT+foKVowfv1FdXIyTEeBo4Zh8qOJsk8wSCRqCQJVPsUerTbF6q3hW/b7xc3kIuDmAk433ZMUu9fGw1YMJZw3JiYAXgScOVJA/AWArLwsUyEXAOoqYvT1y+RKwNgLWlE2tP8T+qR8CHg6AC2pZmQ0Z/8daoyWkSCnsOwcq0N8EwOkwcjYCnAYUW2FwBoBc3gRi87aKZ01dJSf2aNUfGn+qxYKeklGXvyuv+Eng70LBKvwyCfB71omGRqavMHLzoB2XiTVZqi37pXMFQbm8CfTdPz5+1tT56OgLY9UfE3/snoCXDFQ/9nG1+rHn8P4xcBVneQRusFq44qyBCjm7zLgohlwcgX0N+fLaOJWKNSIBa0VvNXVq/bH2j9UTwCW0rYymis+HgLvGAla8ZRG420D7cleF/31aySqqQHEDn5j90hmHm0DJ5U2guj9ij9bUxeqt4ln1W+KzJ+CzAzXQ3ECIm579eSD5Fb+hj/yEeAsLZMVdDoHHD1zYf7heF3s5RNOkdP+IfNkvjWpJGZiAtQGwmje1fqv97An4dMT9YU13SfE5lfhKVtCKvwwCLx/4ZuK2xK8EwBtXzo8AR/IfHpAvnA6kqZh+bKcOZW1IrPZPrd9qP+MP2RNg5ZNL/A9qjZYURW3+Mrik7/8ENDaxBfxHAB6sQuldoPgQ8HrH5wB2+/PNX42/N9bJA8beP1U8awIqObFHq/5U8fUQ4B6r8MhUsCVn3gS4otQ7RngIYKXzGQBclEjOjwBnVeyzGuHLEf7cRpQ//ueAP33z92OYU6jYhreKZ01LJSf2aNWfMj43vdLngO4HAW45rIWCUpa4Gcvi/vHchjK2YgiJx88C3AP7ujPmWU8aG/FXAeB2ylxV7Durvb+5pjfHYPBNRi6MwI0A8O2G+1EcueZ5+nqlS86JPn41AJWzKTigMjcXcp+0hbWmp01myDWr/tTxc+0J4Joc3JiLe3Nwee4rr3vquJ0610vZDcBTAbx3tawvy2xIHoSEfVNq4JI3XwLsSn73gIWxWXD5IMCFiebaI3Db1c3/UceCIj8H8A/zLVLJUsYlWTmW5KSApJ2f9QAAF0RJREFU8slPJBxQmdPqiM17IPTcCjRUXzO8Vf8Q8XN6CGD5fHTgltxcm2VPAKcElO1mvnSds47ltG85EfAiwO0u/2uAgthVQHmdm2x8ZCYzBvgQxQb96ACGTP9zvHJnWYE4PuXu67f8vvLj8uNWqrk8BLhsdflbS4BLvsvfqn+o+FM/BHD9E64hwJ7UWLclgOcNsGcLX7LkRMCbACtevm25KoMh/L8N4PkAruVtbR4B+ZTNbZfZFR3DhQ8B98kjKVlYwb3Pvx7Jso0/B1Tm4NpsC7lmTUOIrrawVv1Dxp/qIeC7iT837QLAuitoPe/OA7DtkOAle54E2C3FLqR6YRrrPxfkOGq9OMcVMsXLfbmfvnpL/UoiRqdl9KY6FXJ+K32r47NJTBnk54AclqmOsb0ex5ovdVkx/636h44/9kMAH1JZZlM7Dt6zLAvezNsXpzZQ8pZBgEtL/jpRA9cslL7nfAjhADq+Yd8RALvKpnCXXy+1STuOHYjJA6dIWCY6bwfgJwNxZVnjbIqpnW+Z7wpntb9Lru91q/4x4o/1EMA3/yEa/4oR39q/n+h+4MsFe3blRCCYALu3ObLat5IYOty56+k/L12vLcABYqkfCvjNmNPsHgXgzev0j7FMKHUtzbFi4hiIoXubctgsyXpvWMvG1Pqt9vvGH/ohgN/8x5hlcsvVuADrFuFVnu/uC0/hRKBJgDcUp6xUhSm3I7t4+bT84fXiOC9ab0r0iNW35HuvBxjuDGCP1QC9O69/3D2Lb9wctcsdwA4CwDXBuWjRGI19G0NOa1uSY+Nv2QCpjWHXNa6TPrXrss33utV+Xz1d4az6x4w/5EMAB/yN5Tgmqis/Qq7vNZbB0jNfAnwj5hzXkIKnsP68uNnJUhxHTPN7/1jlg+V2amdNq9X+qfVb7Q+NP8RDAKf6WUb7h6bhkuuXEmvecaxSqLvJ+oWKPcA+6xXkvg5HaPoVvoUAB7/xTdVaIBV/U4Zch2EJjtNNx+5R0ieATctb6D1YYtlM/RDAHsOx3RMT1LecDcDVE30cHzoOMPaE5rgOh0/aFcaDACvwZw4wZzW0Qppb+KWM1n1NggotNO+5fPLULtTmZnir/U15oedW/VPFT/UQwF4k30Y0ZVppP8cdhOZXMzwH2rocG/+USyzntA6HK+3yDyTAgXJfTVAwmwV1qecPCeRfYvAnTVBe+DaSw94J1nJtze+p9Vvtt8RnI2qtq7i871Tu0AT3DZcmdrkDE+hplrNc1uFwpV3+EQS4mRC7qLj5RDPjdR7GhKN+5+y4LnqqUc0hZYu7JubgQmxuC2tNQ5vMkGtW/VPHt2565tOADpXGFA/OXOCtz/Gb/xADoHNZh6Mv7fIzEtgGAJ8eh57OFVJhlRaWG4XM1XHN81TzmkPy9bCMtkwOsbstrLVstMkMuWbVP3V8a9c2H2CncrdP8ILl6sHgg3JIeQgJm8M6HFPl3aL0/hWAQwZYzS2ksJUa9oozLilvG7ByactvvnWwQuP+DLm4NjtDrlnTEaKrLaxV/9TxuRNnW7p8r/ElZyp3VaPtTCM3J+tzKVcfbDLNYRBuX9rll5gAn5a5xfAQXUrNwjWX81w2rUlcFPDXCSovnzz+HQBWNBzwl8M3/yZHnzT0hWnKCz3vk+3jF6ovt/BcC8InnV1hprw/2YPWZZfvda5z0ud4//jKCg2XwzocfWmX30AEdlh/GuAKfqGFZmnhp6xgBsr+C9/Ah1hJknOO/2e1SuMDVusJcGoq91rP3VnLszV9U+tv2t+cZz70PHLr58kpyxh1W/PvS80MaJxbH5D67MthHY5GcnU6JgGum80V+n6ZoCD3FbSS/bYeM0NG0sUNk1LmCQcRvnq1gmCum0T1YbVy6JPt4ze1/spGn3nmQ8wj91nMpo/RlGN0tk9wH3EMRJ/TJ4A+OvJLQoBPspzu9hENGNykYSxtG2RXgeCc6Z8lqLiqSpmrsN3CpTRj/yodsUdr0mL1VvGs+hk/dJ55ynnkvzCWxd1SAIiUwS2yq3yIPbrGAAy5LHcO63BEole0oQhw28unAPhygsIde1PkFI/7FczJpXz7Zxm5UuFwrGXNmvyp9dP+mHnmqeaRf9tYz7CumsqlmAbIpbf7HDc4Ys+LtZw041NmjmNy+ljIb2QC3HWQu8J9KtGqV81CONT5HwB8EsBTAXzTePPMaSEgvun92MijyrMvTrQCW+pboEpP7NFqT6zeKp5Vf+w8czYgO1qVA/i4sTxy+eqp3P8ZbWce+qw0un8CPVV5qY65rMMxVd5JbyABbu97p1V3IReu4OpdOc0k4EAivo3yO/Q9V8fL1NJmXWiEYyTm4h6aqCI5GcCU069S5kdVIcYerbbE6q3iWfVb5pmnmEce0/tQpZ1HjiHgaPyx3VYAUozQ52ZuLseByIcnunfJLKd1OFxpl3+mBDg//o7rLX7fDIA7W1kH9NRv7K7/fLvnW/3bV7sgPmO1CdIdVlPMeDN2OT5hd8nyuf7+LsEFXue3W58094Xhw9atCkx7l8l9afXx65Lre91HR18YXz1d4SyDzFLMI0+xqc6eXYkb8Dp7F/vyxdfPd/wMHwL42cXyOYBxc1uHY8AskuixCXBDIk4xvM96HMHe64aanxDYa8A3xzPXP+6EVd0knI7I6z9fDUbkoDK+zX9ivTXtS1fX+a3t7itZ1wPAZY5D3CNqeip9IcczVt10m4UozDTsdRL12jA/5uRCykJbWCuLNpkh16z6LW+xKeaRc6ntkPS2hT0FAHsox3L8lEadbbaEXDs7YhtjfnZhzwsfvnzyjmFyXodjrDyTnoUSSDFSl99JS3cvSFBh8QFuynnXQ+RBSIXdFtZqU5vMkGul6+eqkCl6Dp9nBREQn58FQ/KoK+xRAToVVAREIIIAxwPUexu6bsa+6/zUULo7JkGl9Y+lQ2ixvy/fffxaRAZd8tHRFyZIWUvgPtk+fi0igy9xmXIfXX1h2Iu4S7Dm8Ag3B8DPkH22+Po9O1y9YoiACIQSsE5p5OeLkt3VE+wD8b2Izy8lMPOtrLvCWdPYJdf3eun6ab/1M13F6lQAnMY8lNsWwI8SNf60mbOs5ERABAYmwAUvqkoi9ljynFlumRqb7ire0wbOo6nEV+mLPVrtjtVbxStdP+3ngOJzEpRRMuGgRjbUqR1lHpfIRtrJgcxyIiACIxC4b4Ibl1MMS3XWqZCsnOe6K2LVkMYerWUiVm8Vr3T9lf0pd6bkFtcpF/Bit3/KN3/mHQc2y4mACIxAgOv5W8cBcMRzqY3gd40PQB8YIY+mUlE1pLFHq92xeqt4peuv7L+1sYxWPKoj96d4/nqZ40pH6JGj/TngL9U3/8o21iV9U5dD7VR4ERABB4GPJahgXujQkaM3N+i5wJj2OQ7+q/KqqpRjj5Wc2GOs3iperN4qXiUn9ljJSXH8jLGctqWBb+5ca+CyAQayceY8/xRT/dpsKrk3MQCjgopAPgT+KUHlwrUKuINiSY6LNbVVQr7X+PBwtZISHGirL4eucIHqNgneJdf3+iYCAy/46ukKF6iuN/jtjWW1y0Ze5yyBQ9dd79Rz1XWPHmcJcUdBThdmtzyX9/WZX9+nq8+PW/DOZRXN3syUpwjkRIDd9+wW7Ls5ffy4331J7snGNHOzljk7nzzvC2Nl0yfbx690/U37uTueT7pLDcP1OOREQAQmIMA3AGvFwTdivi2U4tjdaEmza7eyUjh02Wlhw7hWt3T9TX5csZIr5Fm55Bifq5yOuWJhk63ORWDRBP46UcXCUcaXL4Tk+4xp/pdC0hlrprWhiNVbxVu6/opD/cgFcqxccovPzdNuV0+k/ouACIxP4GuJKhc2rCU46yJI9yohkQYbrQ2FQfWFUZeuv40f9xThjnVWNjnFf1VbQnVNBERgXAIPS1ixPHNc06O0sbfCUhH67lYWZVwGkSxsGNfqlq6/ix9X9PuJsexa2aaKzzX/t+hKqK6LgAiMR4Cbj3DJ0BQ3N7v1Hjqe6VGafmpMK5cRnrOzlgMrm6Xr7+O368Aj8q3sfeJzKuGcZ9H05Z/8RCBLAg8xNor1G58LDHGr4lzdr41pDZk/nSuDPrvqeRnzv0+2j1+MznocHx19YeqyYv73yU7hd7cEi3jFpCtFHD58cwtzOREQgYwIbAbgS8aGsV5B8CGAnxZydNYVEOfedVnPx5j/1jyP0VmPU7p+H/u5lHfq1fjqDIf4fzqAnXwSpzAiIALjE+DSo9YV8uoVB2XlOGKey47W7Qz5z0VL5u5CeLSFtfJpkxlyrXT9vvb/7er++r2hLIcwtYblzpnX9U2YwomACExD4KABKpT3ZzZFkLujxVZo35omW0bVGsumimc1tpITeyxdf4j9NwNwsqE8xzIOiccBf1xlUE4ERCBzAlwnP/UuX6wsWEnlMud3X0OFyW2U5+5CKve2sFY+bTJDrpWuP9R+buz1EUOZDmEbEpY9gK/QaP/Q7FR4EZiWwJ0SfwqoKg1WCOxh4HSmKR2/Q/4posJknBtPafhIuqv8ij1azYzVW8UrXX+s/Q8E8MuIcl1xS3lklz/rETkREIECCbx+wIrkLAAvBsA3l6nc/hHp228qY0fWa20IrOYuXb+FH6eovhnA+RHl28qd8Tm+hmv7a3lfSy4qrghMTIA38BcGrkS4wxi71HecIK2XAHB4QPq4ChvXS1iCszYEVkZL12/lx/g3BPDuEacLcnDs3trVL0XWSYYI5EGAi3WcFtBIWirur69nDHBQE5c9tTj2LOy8/vVtVcyHAPZ09H0OoB/f/JfS+JO7JR8Z1+qWrt/Krx5/u9U3+JcNeB8fC+CJqwf5repK9V8ERGAeBG4+wVSjXwA4BMBL16sK7rKeQsSGnY32JddvGpxWxIb+fquHhpes/n+4YwDj8et9zRm3zbEHYh8AHOHPXgn++J+9E0v45t9ksvQGeOr0N/MjxTnX+dgdANff/4rhEwGnHR4J4DkArp/CMMkQARHIm8A9AfwxwZuhtWK1xmcvww55o87COitnayIs6zQwrtVNnX6r/T7xL7NqyO8AYM/V9/q9ALwLwCcAfAbAMQA+DeCj60G7HK/zT6uZBnwQn/siWD7sFEYEFkfg3jN5COAnje0Xl3thCZ66AZx6nYap0x+WWwotAiIgAiMQ+LsClx9tq8zZhckuUbl2Am3MQq61S/W/OvU6DSFpbQvrn1KFFAEREIGCCNxjBruRsdLmw4xcO4G2Ri3kWrtU/6tTr9MQkta2sP4pVUgREAERKIwAR+r/sPAxAe8rjPmY5rY1aiHXUtg65ToNIWltC5si/ZIhAiIgAtkS4NreQ68T0Fa5prp29mpE9KWzpTutYVbGKayfcp2GHNKfgqFkiIAIiMBgBLhY0OsGWjbYWgn7xP/7wciULdiHXV+YVKmfap2GvrT5+KVKv+SIgAiIQPYEuOb3WAsG+VTAvmHelj3ZaQz05dcVLrXVY6/T0JUu3+up0y95IiACIpA1Ae4i+NbCegN+tV5UKGuwExjn29B1hZvA5KQqLesQcElcOREQARFYJAEuFvLZggYIPnyRudSf6K6G3fd6v/T8fadehyB/QrJQBERABDoIcI79gwCcXMCDwOc70rDky74NfVe40tlNvQ5B6fxkvwiIgAhcuKnPvQCwke1qLHK4fkvl1UYErHmykbACT6Zeh6BAZDJZBERABLoJ3G617e/BAM7N8GHgoG6zF+mz9AcAZvqU6xAsstAp0SIgAvMncCkAD1zv3JfLBkPc8vdG80fvnUI9AFy06+ThAQ+rhy1sy2jvwqSAIiACItBG4PKrnce40yC3KP2iYYtSa4PF+O9uM3Ch16w854JtqnUI5sJP6RABERABbwLconRXAA9dvXm9cLV17zvWqw1+cz2g8Mz1joTnA+B/Lkf8HQCnBLypdTVufwZwU29L5x2wi5Hv9bnRGXsdgrnxU3pEQAREYDAC2ybaqvhz2iXwwjzybei7wg2W0RIsAiIgAiIgAk0Cb0/QC8AG7TFNwQs872rYfa8vEJmSLAIiIAIiMBUBTuXzbaD6wnF1wKtMlYhM9Pbx8fHLJBkyQwREQAREYCkEjkr0EPCRhX8K8Gnk+8IspbwpnSIgAiIgApkQuGuiBwA2bk/PJE1TmNHXuPv4TWGzdIqACIiACCycQMjc7b7G7DwAeyyUZR8XH7+FYlOyRUAEREAEpiTAaYQXJOoJOBXA1adMzES6fRr5vjATmS21IiACIiACSyfw3kQPAGzkvgbgsgsD2te4+/gtDJeSKwIiIAIikAuBHRLvOcBBgVvkkrgR7PBp5PvCjGCiVIiACIiACIhAO4H/SNgLwMaOvQoXb1c1u6t9jbuP3+yAKEEiIAIiIALlEOAb+zcSPwR8CMAly0EQbalPI98XJlqxIoqACIiACIhACgK7A+BOf32NVajfBwFwR8M5u1AmzfBzZqO0iYAIiIAIFELgtYkfANjYfRkA9x+Yq2s26KHnc+WidImACIiACBREgN/tvzDAQ8BP1jsXFoTC29TQBr8Z3luRAoqACIiACIjAkASuA+CsAR4CzgHwxBkuG9xs0EPPh8xLyRYBERABERCBIAL3TLhAULNB/OTMPgk00xd6HpQxCiwCIiACIiACQxPYa4BegKpx/DmAh8+kN6BKU+xx6HyUfBEQAREQAREIInAxAO8Z8CGADebRAG4RZFVegW+QgE9eKZI1IiACIiACIgBgSwCfTdDI9b0dc+rhWwBcryDinNXwRgDnJ2BTULJlqgiIgAiIwJIIbA3gxAQNXd9DAP3YmL4DwI0zhstlk98AgAMaXenx9c84uTJNBERABERg6QS2A3BSwkavr3H8MwBuU/yQdQ/E1Ow3B3B3AIcAoG19tsf4TZ0+6RcBERABERCBXgLc6neMnoB6I/qr9Rv3XUZeVpjjH24N4NUAfjpAo19PYy90eYqACIiACIhADgSuBuCEgRvEeuNY//+79Vv4kwDsPMBmQzcE8CgAbwXAWQp13UP95wOOnAiIgAiIgAgUQeDKA60WGNrInru2402r8QP/BuBhAG6zGkfA7/TXAHDF2rbEl1+fXxvArQD8PYCnAjgQwJEA2BCH6k8R/pgiclxGioAIiIAIiMCaAHf5e/tEjWaKhjcXGS9RiRIBERABERCB0ghsBoAN2AV6EIjqPTivsKmPpZVP2SsCIiACIjAwgQcC+LUeAoIfAl4wcL5IvAiIgAiIgAgMToAbCH1JDwHeDwHvqo1PGDxzpEAEREAEREAEhiTArYT31ieB3ocALnb0stWnE04zlBMBERABERCBWRHgSPxvqTdgkweBbwLYdVY5rcSIgAiIgAiIQIMAewOeBoBz93MZcT+VHRzsx50VL9FgpFMREAEREAERmC0BbvBz6EI/C3B2xMEArj/b3FXCREAEREAERMBBYLf1+v5TvYWPrfeLAG7nYCJvERABERABEVgMgTsDOHrGnwXY8N9rMbmphIqACIiACIhAIIFbAvgvAFzOd+y389T6uEPgh1cPNny4kRMBERABERABEfAgsO16NcEfFPgg8GMArwJwXY90KogIiIAIiIAIiEAHAe7wtx+A0zN+GPjNqsE/aN3Nv0VHOnRZBERABERABEQgggAb1jusF8zh6oJ/mvCBgCP5jwPwmtXOg3dZTefbMiI9iiICIiACIiACIhBBgNv63nc1j/4VAD4O4GcDPhCctd4eeJ/19sJXi7BXUURABERABERABAYiwLEDdwXwOAAvBvDW9TTDYwGcDOCnAM5c9x7wLZ7/f772OxHAZ9fbGb8SwJPXXfr6lj9QZkmsCIiACIiACIiACIiACIiACIiACIiACIiACIiACIiACIiACIiACIiACIiACIiACIiACIiACIiACIiACIiACIiACIiACIiACIiACIiACIiACIiACIiACIiACIiACIiACIiACExN4P8DcApPLTHOB/oAAAAASUVORK5CYII=;" vertex="1" parent="5iqBXnzq-JTinNB5eCyv-27">
          <mxGeometry width="111.3" height="111.3" as="geometry" />
        </mxCell>
        <mxCell id="5iqBXnzq-JTinNB5eCyv-29" value="&lt;b&gt;&lt;font style=&quot;font-size: 17px;&quot; data-font-src=&quot;https://fonts.googleapis.com/css?family=Work+Sans&quot; face=&quot;Work Sans&quot;&gt;LLM&lt;/font&gt;&lt;/b&gt;" style="text;html=1;align=center;verticalAlign=middle;whiteSpace=wrap;rounded=0;" vertex="1" parent="5iqBXnzq-JTinNB5eCyv-27">
          <mxGeometry x="25.65000000000009" y="104" width="60" height="30" as="geometry" />
        </mxCell>
        <mxCell id="5iqBXnzq-JTinNB5eCyv-71" value="" style="group" vertex="1" connectable="0" parent="1">
          <mxGeometry x="-1880" y="1290" width="104.21" height="170" as="geometry" />
        </mxCell>
        <mxCell id="5iqBXnzq-JTinNB5eCyv-72" value="" style="group" vertex="1" connectable="0" parent="5iqBXnzq-JTinNB5eCyv-71">
          <mxGeometry width="104.21" height="170" as="geometry" />
        </mxCell>
        <mxCell id="5iqBXnzq-JTinNB5eCyv-73" value="&lt;font&gt;&lt;b&gt;Multivoques uniques&lt;/b&gt;&lt;/font&gt;&lt;div&gt;&lt;b&gt;NAF 2008&lt;br&gt;&lt;/b&gt;&lt;div&gt;770k&lt;/div&gt;&lt;/div&gt;" style="strokeWidth=2;html=1;shape=mxgraph.flowchart.database;whiteSpace=wrap;fillColor=#ffe6cc;strokeColor=#d79b00;fontFamily=Work Sans;fontSource=https%3A%2F%2Ffonts.googleapis.com%2Fcss%3Ffamily%3DWork%2BSans;" vertex="1" parent="5iqBXnzq-JTinNB5eCyv-72">
          <mxGeometry width="104.21" height="170" as="geometry" />
        </mxCell>
        <mxCell id="5iqBXnzq-JTinNB5eCyv-74" value="" style="shape=image;verticalLabelPosition=bottom;labelBackgroundColor=default;verticalAlign=top;aspect=fixed;imageAspect=0;image=https://upload.wikimedia.org/wikipedia/commons/thumb/4/47/Apache_Parquet_logo.svg/2560px-Apache_Parquet_logo.svg.png;" vertex="1" parent="5iqBXnzq-JTinNB5eCyv-72">
          <mxGeometry x="8.969999999999999" y="120" width="86.27" height="17.62" as="geometry" />
        </mxCell>
        <mxCell id="5iqBXnzq-JTinNB5eCyv-75" value="" style="group" vertex="1" connectable="0" parent="1">
          <mxGeometry x="-1664.49" y="1290" width="104.21" height="170" as="geometry" />
        </mxCell>
        <mxCell id="5iqBXnzq-JTinNB5eCyv-76" value="" style="group" vertex="1" connectable="0" parent="5iqBXnzq-JTinNB5eCyv-75">
          <mxGeometry width="104.21" height="170" as="geometry" />
        </mxCell>
        <mxCell id="5iqBXnzq-JTinNB5eCyv-77" value="&lt;font&gt;&lt;b&gt;Multivoques uniques&lt;/b&gt;&lt;/font&gt;&lt;div&gt;&lt;b&gt;NAF 2025&lt;br&gt;&lt;/b&gt;&lt;div&gt;770k&lt;/div&gt;&lt;/div&gt;" style="strokeWidth=2;html=1;shape=mxgraph.flowchart.database;whiteSpace=wrap;fillColor=#ffe6cc;strokeColor=#d79b00;fontFamily=Work Sans;fontSource=https%3A%2F%2Ffonts.googleapis.com%2Fcss%3Ffamily%3DWork%2BSans;" vertex="1" parent="5iqBXnzq-JTinNB5eCyv-76">
          <mxGeometry width="104.21" height="170" as="geometry" />
        </mxCell>
        <mxCell id="5iqBXnzq-JTinNB5eCyv-78" value="" style="shape=image;verticalLabelPosition=bottom;labelBackgroundColor=default;verticalAlign=top;aspect=fixed;imageAspect=0;image=https://upload.wikimedia.org/wikipedia/commons/thumb/4/47/Apache_Parquet_logo.svg/2560px-Apache_Parquet_logo.svg.png;" vertex="1" parent="5iqBXnzq-JTinNB5eCyv-76">
          <mxGeometry x="8.969999999999999" y="120" width="86.27" height="17.62" as="geometry" />
        </mxCell>
        <mxCell id="5iqBXnzq-JTinNB5eCyv-79" style="edgeStyle=orthogonalEdgeStyle;rounded=0;orthogonalLoop=1;jettySize=auto;html=1;exitX=0.5;exitY=1;exitDx=0;exitDy=0;exitPerimeter=0;entryX=0;entryY=0.5;entryDx=0;entryDy=0;" edge="1" parent="1" source="5iqBXnzq-JTinNB5eCyv-73" target="5iqBXnzq-JTinNB5eCyv-28">
          <mxGeometry relative="1" as="geometry" />
        </mxCell>
        <mxCell id="5iqBXnzq-JTinNB5eCyv-80" style="edgeStyle=orthogonalEdgeStyle;rounded=0;orthogonalLoop=1;jettySize=auto;html=1;exitX=1;exitY=0.5;exitDx=0;exitDy=0;entryX=0.5;entryY=1;entryDx=0;entryDy=0;entryPerimeter=0;" edge="1" parent="1" source="5iqBXnzq-JTinNB5eCyv-28" target="5iqBXnzq-JTinNB5eCyv-77">
          <mxGeometry relative="1" as="geometry" />
        </mxCell>
        <mxCell id="5iqBXnzq-JTinNB5eCyv-81" value="" style="group" vertex="1" connectable="0" parent="1">
          <mxGeometry x="-1479.9999999999995" y="950" width="104.21" height="170" as="geometry" />
        </mxCell>
        <mxCell id="5iqBXnzq-JTinNB5eCyv-82" value="" style="group" vertex="1" connectable="0" parent="5iqBXnzq-JTinNB5eCyv-81">
          <mxGeometry width="104.21" height="170" as="geometry" />
        </mxCell>
        <mxCell id="5iqBXnzq-JTinNB5eCyv-83" value="&lt;div&gt;&lt;font&gt;&lt;b&gt;Univoques&lt;/b&gt;&lt;/font&gt;&lt;/div&gt;&lt;div&gt;&lt;font&gt;&lt;b&gt;NAF 2025&lt;/b&gt;&lt;/font&gt;&lt;/div&gt;&lt;div&gt;1,3M&lt;/div&gt;" style="strokeWidth=2;html=1;shape=mxgraph.flowchart.database;whiteSpace=wrap;fillColor=#ffe6cc;strokeColor=#d79b00;fontFamily=Work Sans;fontSource=https%3A%2F%2Ffonts.googleapis.com%2Fcss%3Ffamily%3DWork%2BSans;" vertex="1" parent="5iqBXnzq-JTinNB5eCyv-82">
          <mxGeometry width="104.21" height="170" as="geometry" />
        </mxCell>
        <mxCell id="5iqBXnzq-JTinNB5eCyv-84" value="" style="shape=image;verticalLabelPosition=bottom;labelBackgroundColor=default;verticalAlign=top;aspect=fixed;imageAspect=0;image=https://upload.wikimedia.org/wikipedia/commons/thumb/4/47/Apache_Parquet_logo.svg/2560px-Apache_Parquet_logo.svg.png;" vertex="1" parent="5iqBXnzq-JTinNB5eCyv-82">
          <mxGeometry x="8.969999999999999" y="120" width="86.27" height="17.62" as="geometry" />
        </mxCell>
        <mxCell id="5iqBXnzq-JTinNB5eCyv-85" value="" style="group" vertex="1" connectable="0" parent="1">
          <mxGeometry x="-1480" y="1290" width="104.21" height="170" as="geometry" />
        </mxCell>
        <mxCell id="5iqBXnzq-JTinNB5eCyv-86" value="" style="group" vertex="1" connectable="0" parent="5iqBXnzq-JTinNB5eCyv-85">
          <mxGeometry width="104.21" height="170" as="geometry" />
        </mxCell>
        <mxCell id="5iqBXnzq-JTinNB5eCyv-87" value="&lt;font&gt;&lt;b&gt;Multivoques&lt;/b&gt;&lt;/font&gt;&lt;div&gt;&lt;b&gt;NAF 2025&lt;br&gt;&lt;/b&gt;&lt;div&gt;1,0M&lt;/div&gt;&lt;/div&gt;" style="strokeWidth=2;html=1;shape=mxgraph.flowchart.database;whiteSpace=wrap;fillColor=#ffe6cc;strokeColor=#d79b00;fontFamily=Work Sans;fontSource=https%3A%2F%2Ffonts.googleapis.com%2Fcss%3Ffamily%3DWork%2BSans;" vertex="1" parent="5iqBXnzq-JTinNB5eCyv-86">
          <mxGeometry width="104.21" height="170" as="geometry" />
        </mxCell>
        <mxCell id="5iqBXnzq-JTinNB5eCyv-88" value="" style="shape=image;verticalLabelPosition=bottom;labelBackgroundColor=default;verticalAlign=top;aspect=fixed;imageAspect=0;image=https://upload.wikimedia.org/wikipedia/commons/thumb/4/47/Apache_Parquet_logo.svg/2560px-Apache_Parquet_logo.svg.png;" vertex="1" parent="5iqBXnzq-JTinNB5eCyv-86">
          <mxGeometry x="8.969999999999999" y="120" width="86.27" height="17.62" as="geometry" />
        </mxCell>
        <mxCell id="5iqBXnzq-JTinNB5eCyv-89" value="" style="group" vertex="1" connectable="0" parent="1">
          <mxGeometry x="-1300" y="1120" width="104.21" height="170" as="geometry" />
        </mxCell>
        <mxCell id="5iqBXnzq-JTinNB5eCyv-90" value="" style="group" vertex="1" connectable="0" parent="5iqBXnzq-JTinNB5eCyv-89">
          <mxGeometry x="0.010000000000000009" width="104.21" height="170" as="geometry" />
        </mxCell>
        <mxCell id="5iqBXnzq-JTinNB5eCyv-91" value="&lt;font&gt;&lt;b&gt;Sirene 4&amp;nbsp;&lt;/b&gt;&lt;/font&gt;&lt;div&gt;&lt;font&gt;&lt;b&gt;NAF 2025&lt;/b&gt;&lt;/font&gt;&lt;div&gt;&lt;div style=&quot;font-size: 11px;&quot;&gt;2,3M&lt;/div&gt;&lt;/div&gt;&lt;/div&gt;" style="strokeWidth=2;html=1;shape=mxgraph.flowchart.database;whiteSpace=wrap;fillColor=#ffe6cc;strokeColor=#d79b00;fontFamily=Work Sans;fontSource=https%3A%2F%2Ffonts.googleapis.com%2Fcss%3Ffamily%3DWork%2BSans;" vertex="1" parent="5iqBXnzq-JTinNB5eCyv-90">
          <mxGeometry width="104.21" height="170" as="geometry" />
        </mxCell>
        <mxCell id="5iqBXnzq-JTinNB5eCyv-92" value="" style="shape=image;verticalLabelPosition=bottom;labelBackgroundColor=default;verticalAlign=top;aspect=fixed;imageAspect=0;image=https://upload.wikimedia.org/wikipedia/commons/thumb/4/47/Apache_Parquet_logo.svg/2560px-Apache_Parquet_logo.svg.png;" vertex="1" parent="5iqBXnzq-JTinNB5eCyv-90">
          <mxGeometry x="8.960000000000255" y="120" width="86.27" height="17.62" as="geometry" />
        </mxCell>
        <mxCell id="5iqBXnzq-JTinNB5eCyv-94" value="" style="endArrow=classic;html=1;rounded=0;exitX=1;exitY=0.5;exitDx=0;exitDy=0;exitPerimeter=0;entryX=0;entryY=0.5;entryDx=0;entryDy=0;entryPerimeter=0;" edge="1" parent="1" source="5iqBXnzq-JTinNB5eCyv-3" target="5iqBXnzq-JTinNB5eCyv-7">
          <mxGeometry width="50" height="50" relative="1" as="geometry">
            <mxPoint x="-1710" y="1180" as="sourcePoint" />
            <mxPoint x="-1660" y="1130" as="targetPoint" />
          </mxGeometry>
        </mxCell>
        <mxCell id="5iqBXnzq-JTinNB5eCyv-95" value="" style="endArrow=classic;html=1;rounded=0;exitX=1;exitY=0.5;exitDx=0;exitDy=0;exitPerimeter=0;entryX=0;entryY=0.5;entryDx=0;entryDy=0;entryPerimeter=0;" edge="1" parent="1" source="5iqBXnzq-JTinNB5eCyv-3" target="5iqBXnzq-JTinNB5eCyv-20">
          <mxGeometry width="50" height="50" relative="1" as="geometry">
            <mxPoint x="-2090" y="1230" as="sourcePoint" />
            <mxPoint x="-2110" y="1380" as="targetPoint" />
          </mxGeometry>
        </mxCell>
        <mxCell id="5iqBXnzq-JTinNB5eCyv-96" value="" style="endArrow=classic;html=1;rounded=0;exitX=1;exitY=0.5;exitDx=0;exitDy=0;exitPerimeter=0;entryX=0;entryY=0.5;entryDx=0;entryDy=0;entryPerimeter=0;" edge="1" parent="1" source="5iqBXnzq-JTinNB5eCyv-20" target="5iqBXnzq-JTinNB5eCyv-73">
          <mxGeometry width="50" height="50" relative="1" as="geometry">
            <mxPoint x="-1710" y="1180" as="sourcePoint" />
            <mxPoint x="-1660" y="1130" as="targetPoint" />
          </mxGeometry>
        </mxCell>
        <mxCell id="5iqBXnzq-JTinNB5eCyv-98" value="" style="endArrow=classic;html=1;rounded=0;exitX=1;exitY=0.5;exitDx=0;exitDy=0;exitPerimeter=0;entryX=0;entryY=0.5;entryDx=0;entryDy=0;entryPerimeter=0;" edge="1" parent="1" source="5iqBXnzq-JTinNB5eCyv-77" target="5iqBXnzq-JTinNB5eCyv-87">
          <mxGeometry width="50" height="50" relative="1" as="geometry">
            <mxPoint x="-1946" y="1395" as="sourcePoint" />
            <mxPoint x="-1860" y="1395" as="targetPoint" />
          </mxGeometry>
        </mxCell>
        <mxCell id="5iqBXnzq-JTinNB5eCyv-99" value="" style="endArrow=classic;html=1;rounded=0;exitX=1;exitY=0.5;exitDx=0;exitDy=0;exitPerimeter=0;entryX=0;entryY=0.5;entryDx=0;entryDy=0;entryPerimeter=0;" edge="1" parent="1" source="5iqBXnzq-JTinNB5eCyv-7" target="5iqBXnzq-JTinNB5eCyv-83">
          <mxGeometry width="50" height="50" relative="1" as="geometry">
            <mxPoint x="-1936" y="1405" as="sourcePoint" />
            <mxPoint x="-1850" y="1405" as="targetPoint" />
          </mxGeometry>
        </mxCell>
        <mxCell id="5iqBXnzq-JTinNB5eCyv-100" value="" style="endArrow=classic;html=1;rounded=0;exitX=1;exitY=0.5;exitDx=0;exitDy=0;exitPerimeter=0;entryX=0;entryY=0.5;entryDx=0;entryDy=0;entryPerimeter=0;" edge="1" parent="1" source="5iqBXnzq-JTinNB5eCyv-83" target="5iqBXnzq-JTinNB5eCyv-91">
          <mxGeometry width="50" height="50" relative="1" as="geometry">
            <mxPoint x="-1926" y="1415" as="sourcePoint" />
            <mxPoint x="-1840" y="1415" as="targetPoint" />
          </mxGeometry>
        </mxCell>
        <mxCell id="5iqBXnzq-JTinNB5eCyv-101" value="" style="endArrow=classic;html=1;rounded=0;exitX=1;exitY=0.5;exitDx=0;exitDy=0;exitPerimeter=0;entryX=0;entryY=0.5;entryDx=0;entryDy=0;entryPerimeter=0;" edge="1" parent="1" source="5iqBXnzq-JTinNB5eCyv-87" target="5iqBXnzq-JTinNB5eCyv-91">
          <mxGeometry width="50" height="50" relative="1" as="geometry">
            <mxPoint x="-1916" y="1425" as="sourcePoint" />
            <mxPoint x="-1830" y="1425" as="targetPoint" />
          </mxGeometry>
        </mxCell>
        <mxCell id="5iqBXnzq-JTinNB5eCyv-55" value="" style="group" vertex="1" connectable="0" parent="1">
          <mxGeometry x="-1092" y="1149.9999999999998" width="111.29999999999995" height="134" as="geometry" />
        </mxCell>
        <mxCell id="5iqBXnzq-JTinNB5eCyv-102" value="" style="group" vertex="1" connectable="0" parent="5iqBXnzq-JTinNB5eCyv-55">
          <mxGeometry width="111.3" height="134" as="geometry" />
        </mxCell>
        <mxCell id="5iqBXnzq-JTinNB5eCyv-56" value="" style="shape=image;verticalLabelPosition=bottom;labelBackgroundColor=default;verticalAlign=top;aspect=fixed;imageAspect=0;image=data:image/png,iVBORw0KGgoAAAANSUhEUgAAAgAAAAIACAYAAAD0eNT6AAAAAXNSR0IArs4c6QAAIABJREFUeAHtnQcYNUV1/l8EFQsWxAZiRaOClWpP1KixxhZrNDZssUeNJrEXsCBEBKMxUewiEnsBBBU7KiiIqCBiQSxgAxSU//++cNdvv/12d8qZ3Z3Zfed57rN3d2bOOfOb2Znd2SmAnAiIgAiIgAiIgAiIgAiIgAiIgAiIgAiIgAiIgAiIgAiIgAiIgAiIgAiIgAiIgAiIgAiIgAiIgAiIgAiIgAiIgAiIgAiIgAiIgAiIgAiIgAiIgAiIgAiIgAiIgAiIgAiIgAjMl8A1AfwdgCcAeBmAgwAcBeAEACcDOAPAmQD+DOD/rf/znH7fB3A0gHcBeNXK76kA7gNgBwCbzReZUiYCIiACIiACZRHYBsA/rBvrwwD8ct2os2FP/fsNgM8A2A/AIwBsVxYqWSsCIiACIiAC5RK4OIA7AnglgGNqb/GpG3tfeccD2AfA3QBcqlysslwEREAEREAE8iNwMQC3Xb95s/vet3EeO9w5AN4H4F6rTw9b5IdRFomACIiACIhAGQS2B/AKAKdl3Oh3PWT8dN0zcP0yUMtKERABERABEZiewM7rgXvnFdjwNx8IONDww6uBhXeeHqssEAEREAEREIE8CfA7+pdm0Og3HwKq86+sZxTkSV9WiYAIiIAIiMDIBPYAcMSMG/7qAaA68iHn9iMzljoREAEREAERyIYAv4+ze7xqGJd2PGS13sANsskNGSICIiACIiACAxPgVL7nrn7nLrjxrx52OM5hr9Vgx0sMzFziRUAEREAERGBSApzOx7nzVQOo40Usvglg10lzRspFQAREQAREYAACfOvn0roXqPHvfPg5H8DLAXDdAzkREAEREAERKJ7A9QBwBLze9v0YvHv1IMAHJjkREAEREAERKJbAQwBwDX01/mEMXlhsjstwERABERCBRRPgznlcxU8NfxwDDg5kz4mcCIiACIiACBRD4JIA3qnG3/zw89JiclyGioAIiIAILJ7AVTJZzY8b8xwN4L8APA8AP0XcarXE8HUBbLvaWOiKADZf59Zl1+fXALA7gHsDeDKA/VebEB0OYKoNiL62+NIkACIgAiIgAkUQuDqAEyd68+c4g4MB7Ang5gPsxsdFix4J4H8A/GykNP6qiFyXkSIgAiIgAosmsN3qLfukkRrGalzBLwG8fr3RzpgL6XCaHnsKuIDPjwdO86ILlRIvAiIgAiKQNwFu2/u9gRvCqtHn7nqfXPU0PAgAxxpM7fgZ4a7r3oc/DcBg6vRJvwiIgAiIgAi0EtgGwHcHaPiqBr86cpGctwG4YasVeVzk+AL2SJydkEceKZMVIiACIiACIlAjsOV6oF3VSA9x5Fv1m9eD92qqs/7LsRAHAuBUPiuTrBMq40RABERABJZHgN/B35eggetrID8L4GYFo+VOf33p8/ErOPkyXQREQAREYI4EuK6/TwMWE4bT7h4KgIsJle5i0l+PU3r6Zb8IiIAIiMCMCNxrwE19OMCP8/Tn4uqNecz/uXBQOkRABERABAonwIFuZw3w9s+Fe544k7f+ehbHNPr1OHVZ+i8CIiACIiACkxDgDnVfHKDx/wmAXSdJ0fBK6415zP/hLZQGERABERABEXAQeN0Ajf+XVsv1ctT8XF1Mo1+PM1cuSpcIiIAIiEAhBPYAwEV46o2T9f+hq9X0OJVwzs7KaM5slDYREAEREIHMCXCZ3eMTN/6cQshPCnN3egCYew4rfSIgAiIwYwIvSNz4v2eAzXpyxa8HgFxzRnaJgAiIgAj0EuAueH9I+ADwodo2vL2KZ+KpB4CZZKSSIQIiIAJLI8Atdq2NWBX/GACXzRzgTQDst/7k8XsA/PHzx74AdoqwvUp77DFCZdZRUvPNOrEyTgREQARKJbBbwgV/fgDgahmD4M6CBzgGOnJfgv0BhGw9HNvwV/EyRhZk2lB8g4xQYBEQAREQAT8CRyR6++emOLv7qZwkFBunTweklVx8HwKqhjz2OAmQxEqH5JvYVIkTAREQARG4W0CD6GrcnpY5Tu7c50pD05/b/vq4ZrzQcx8duYcZkm/uaZd9IiACIlAcgc9ENIptjdtHM1/el9+kY9Y34OeAHT1ytY1JyDUPFVkHGZpv1omXcSIgAiJQGoGdEzX+v1p9V79K5onngL+QBrkedh+PtNXDx/z3UJF1kKH5Zp14GScCIiACpRF4h6FRrDdyjy0g4ScY0votj/TVecT891CRdZCh+WadeBknAiIgAiUR4Fa8fzQ0ilUj97nMu/6rPPmdIa2/rYT0HCsescce0UV4Dc23CAgyUgREQATGJLAVgF0APHS18M5LAbwXwBcAfBPAyQDOXDf056///xDAdwCcYmgQq0aO39RvOmZiDboqm2OPLtWxcqt4Lvmh/mPPw6/SEXsMTZ/Ci4AIiMDiCLDBvweA1wL4RuTAtthKuhnv3QXRb9oeeu5Kaqi8ZniXfF//qebhN9MTeu6bPoUTAREQgUURuByARwM4EgDf5EMr1yHCc3T8DQvKBSsDV1KHlu/ST/8p5+HnkH4fRgojAiIgAtkT2AzAXQG8C8A5mTT69Ur+7dkT3NjAuu0x/zeWtulZjMx6nE0lhl+Zch5+PS0x/8NTqxgiIAIiMDMCm6++0T8YwHEZNvr1iv3mhXGv2x7z35XcGJn1OC75Lv+p5+HX0xLz35U++YuACIjAbAmw4X8UgJMyb/hZuXOQYWkuplGqx3Gltx425r9LvsufmxjF6GUcn3UOXPpjdVfxXPLlLwIiIAKzJLAHgK8bKvCqEh3r+IgCc8HKxpXkoeW79E89D3/q9Lv4yF8EREAEsiJwJQBvmngkf2jFzWmFW2ZF0c+Y0HQ2w7u0NMOHnrvku/y5VkGoziq8zzoHLv2VrNijS778RUAERGA2BO4F4BeGSju2orXGO6jQHLCm25XsoeVLv4uA/EVABEQgcwJbrOx7UWFv/fXG7b6Z8+0yr56GmP9dcqvrMTLrcSo5sce6rJj/sXqreDE663EqOTqKgAiIwCwJbA/g6ALf+quKmtMRL1NozlRpiD26kh0rt4rnku/yr+TEHl3yXf6xeqt4LvnyFwEREIFiCdwSwBkFN/6sqA8pln7893HfBqoKF3u0oo3VW8UrXb/VfsUXAREQgUEI3BGAZZBWVUlPfeQSxKU6KztXuoeWL/0uAvIXAREQgcwI/D2Acwt/82fj9plCdv3ryv6hG+ih5Xelq7q+dP0VBx1FQAREIAsCDwDANfOtlfPU8X8M4NpZEI03wsrQpXlo+dLvIiB/ERABEciEALv9/zCDxp/bCt8gE6YWM4ZuoIeW70r70vW7+MhfBERABEYhwAF/vxm58ecAw4+uFunZC8DDAewOYAcAV17vEsed4q6yvrYzgAeurr8SwCc71iP47ioNzyh00Z+2TB66gRxaflua6teWrr/OQv9FQAREYBIC1xpxtP/XVinkmgK7AbiYMbXbrrYbvgOA2wLYzigrx+hDN5BDy3cxXbp+Fx/5i4AIiMCgBLjIz9Dz/PlZ4X0Abj1oSuYnfOgGcmj5rhxZun4XH/mLgAiIwKAEXjNgtz9nEuwNYOtBUzBf4UM3kEPLd+XM0vW7+MhfBERABAYjwLX9LxjgAYAy3w7gmoNZvgzBQzeQQ8t35dLS9bv4yF8EREAEBiHAXf2G2NjnpwDuMojFyxM6dAM5tHxXji1dv4uP/EVABERgEALc0tdaATfjHwpgm0GsXabQJt/Qcxe1UHnN8C75Lv+mvNBzl3yXf6i+ZniXfPmLgAiIQHYEdh1gZz9O5dssu5SWbVCzwQk9d6U+VF4zvEu+y78pL/TcJd/lH6qvGd4lX/4iIAIikBWBzQF8PeHbP1cNfEJWKZyPMc0GJ/TcRSJUXjO8S77Lvykv9Nwl3+Ufqq8Z3iVf/iIgAiKQFYFHJW78759V6uZlTLPBCT130QiV1wzvku/yb8oLPXfJd/mH6muGd8mXvwiIgAhkQ4Bv/yclfAB4SjYpm6chzQYn9NxFJVReM7xLvsu/KS/03CXf5R+qrxneJV/+IiACIpANgQcnbPxfkk2q5mtIs8EJPXeRCZXXDO+S7/Jvygs9d8l3+Yfqa4Z3yZe/CIiACGRBgAP0jkv0APAhDfgbJU+bDU7oucvIUHnN8C75Lv+mvNBzl3yXf6i+ZniXfPmLgAiIQBYE7pqo8T99vVlPFomauRHNBif03IUnVF4zvEu+y78pL/TcJd/lH6qvGd4lX/4iIAIikAWBdyV4AOAKf/fIIjXLMKLZ4ISeuyiFymuGd8l3+TflhZ675Lv8Q/U1w7vky18EREAEJidwOQBnJ3gA4PK+cuMRaDY4oecuS0PlNcO75Lv8m/JCz13yXf6h+prhXfLlLwIiIAKTE3hMgsafG/tw22C58Qj81pBvv/Ews9mghZ57qOgNEqqvGb5XuIdnU17ouYcKBREBERCBaQkcaWhIqkqRu/rJjUvgBEO+fcvD1CpvY48eKnqDxOqt4vUK9/Cs5MQePVQoiAiIgAhMR2ArAOcbGhJWjudoS99JMnBfQ7691sPi2IaviuehojdIJSf22CvcwzNWbxXPQ4WCiIAIiMB0BO5paESqiu6/pzN/0Zp3AsCllqt88D0yzo09yPnK6wrnoaI3SJdc3+u9wj08ffV0hfNQoSAiIAIiMB0Bvgl2VWC+13eezvzFa94/Iv/286Tmm/9d4TzVdAbrkut7vVOwp4evnq5wnmoUTAREQASmIWDd+Odr05gtrWsClwBweMBDwGEALu5Jr6th873uqaYzmK+ernCdgj09uuT6XvdUo2AiIAIiMD4Bfv//c0Dj0VbxvWh8s6WxQYAPAa93fA5gtz/f/H0bf6poy++Qaw0zg09DdLWFDVbYiNAmM+RaQ5xORUAERCAfArskqOR3yyc5i7dkRwD7AOAI/9+tf/zPzzw+3/ybAEMau7awTXmh520yQ66F6muGD9HVFrYpT+ciIAIikA2BhxkfAH4O4GLZpEaGpCbQ1qiFXLPaE6KrLWzp+q32K74IiIAIdBLgjn1tFafvtY92SpbHHAj4loOucFYGXXJ9r5eu32q/4ouACIhAJ4H3GR8A9uqULI85EPBtaLvCWRl0yfW9Xrp+q/2KLwIiIAKdBD5vfAB4eKdkecyBgG9D2xXOyqBLru/10vVb7Vd8ERABEegk8E3jA4AGAHainYWHb0PbFc4KoUuu7/XS9VvtV3wREAER6CRwqvEBYIdOyfKYAwHfhrYrnJVBl1zf66Xrt9qv+CIgAiLQSeBXxgeAbToly2MOBHwb2q5wVgZdcn2vl67far/ii4AIiEAngT8aHwBCFpXpNEIe2RLwbWi7wlkT1iXX93rp+q32K74IiMCCCGwO4AYA7gHgaasd+v4TwAcAfBbAtwFw3v6Z6937fCvRvnCXXBDbJSa1L+99/KzMfHT0hbHq/63hAfk3VuUjxL8WgIcAePW6njgWwC8A0HZy5SqhrC9+BIADht++Wm3y3wHcZbXg1OVGsE8qREAEeghcbX0Ds6E/GsDvDRVWX0Xa5adPAD2ZMwOvrnz3vW5F4KunK5xV/wmG+4krMObmtljVE3cGcMC6Ue/i5nOdDwdfBvBcANfPLaGyRwTmSKC6gbnuO9/ofW7UIcNce46Qlaa/ELCWnb8Iivwztf59DfcYl1/OxW27MoR7dvzUkB5XXnwGwIMAcF8KOREQgUQEuNQuu9zeBsA6aM91E4f63yJRGiUmTwKh5aEZ3pqqprzQc6v+nRwbLHXZw42XYvZesNrbjH91AAcCOG/Ahr/JgDOLHgWALytyIiACkQT4fY5L9Z424s3bvJld5w+OTJuilUHAlf8uf2sqXfJd/lb9jL9/xP3HXRendHwLfyGAsyNsdzH19T8RwF9PCUG6RaBEArsCeA+A8ye8eX1vcj6gyM2XgG856ApnJdMl1/e6VT/jszE9POBePCxwy+UUNtZl7AHg+AB7fVnGhLsAwFsAXL5uoP6LgAhsSuBvVk/MR2Vy4/re7IdsmgxdmREB33LQFc6Kokuu73Wr/io+HwI47oZd+1266cc3/6mmxm622v75WZm+OHwPwM0rmDqKgAhsIHDbAhv+qhL8xoZk6N8MCVT5HHu0IonVW8Wz6m/G33E1/W0fABzh/7v1j/854G/Kb/6XWum3buxVMRvqeC6AhzaB6lwElkpgewAHAWA32VA33dByOapYbr4ErOXHSmZq/Vb7x4h/WQD87GBlNUZ81nXPHgOKdIhArgS4eA6/nf+hkJu2r2L4Ya6QZVcSAn157+NnNcJHR18Yq/7c4/Pb+jEF1iPPzx2s7BOBIQjcHsB3CrxhuyrZTw0BSTKzIdCV777XrQnx1dMVzqo/5/hbAjiy4LrkCTnDlW0ikJIA3/pfU3h3f1sly+WG5eZLoC3PQ65ZyYToagtr1Z9rfA74e2/BjT/ziisJ3jNXwLJLBFIRuBEADpZrq6BKvsb1wjW9J1UpyVOOtXxaUzW1fqv9Q8V/xkzqE+4zcN2hIEmuCExNgEtjcrSwtSLLMb5G9E5duobXby13Vgun1m+1f4j4txp5ZT9rHrjicwzDVFMnh8gfyRQBcFc+ThdyFf4S/TmS98XK40UQsJZPK6Sp9VvtTx2fnxJz2APEmi/N+M9LDUryRGAqApcB8OGZNv5clvj+U4GV3tEJNCvq0HOrwaH6muGt+nOL/4KZ1itcI4DbmMuJQNEErprJtJyz1suXcmWyp64H2+wC4Jqr1cquWNuxiz0VPOemITsA4GqEj1n5v2K1xec7AXwSwKcBvGE1e4Hr/qurrujiGWx8s0ENPQ9W2IgQqq8ZviGu6FPu6HfOQA8AHM/zLgCPBcClyK+8vte5wNA1AOy2rkc48HCoLcffX3TuyPjFE2Djb9k/vFl5hZyfsWrA37FuvLU39+KLYjIAIWWwLazVkDaZIdes+nOKz4fwkLT7hD1ptdnYowFcOiChl1ttK7wngFMS28NPi3xJkROB4ghcZYINOH62GoX/OgC3Ay4cc1AcNBmcPQGfRqQvjDWBfbJ9/Kz6c4nPt/A/Jmxw2ZPAfQMsW/ZyHQJ+u2f3vU9e+IT5YC7AZYcI+BJgdxnXA/cp4NYwfEr+xGpa4X3UHe+bPQpnIGAtrwbVF0adWr/V/lTxX5SwfvkugJ1SGbZ+az81kX3cUOnaCW2TKBEYlMA2AI5LVPj7KjveGG9NfOMOCkbCZ0Ggr0z6+Fkh+OjoC2PVn0N8jrv5SaI65uvr7/up08Ue0FSfP1+Z2jjJE4EhCHCAzJcT3ZhdlRjf+D+wWvWLiwnJicDYBLrKpe91q72+errCWfXnEP8uieoYvvmzt3Iox0GK309gK2cacaVDORHImgAH3XVVPCmuf2H9fT9rCDJu1gSs5dgKZ2r9VvtTxH9jgnqG3+lvlsIYh4xbJhqrsLNDj7xFYFICz01wU3ZVblwe82GTpk7KReAiAl1l1Pe6laOvnq5wVv05xE/R/c8Bf2M57vTXlR++17lbqpwIZEngHuuNLHwLc0g4DvDbLstUX2TUTVbrBnBtgePX84E5J5j/99X4hIxzLd60kLLbFjZe80Ux22SGXLPqnzo+18kPSW9bWE71s4z2D2XA1Qp/ZLSbuxzGuGb91MYj5Jrqt5hcmHEcfovnohkhhcgnLAsat8fM9dsXb+oDHA8+HKi4f22RoRkXg8Ukzafs9oWxguqT7eNn1T91fO634ZPOvjCc5z+2e6LRbu6fwkXKfJ1P/dTHyMdP9Ztvbsw0HEfjchStT2EJCcOn5ZtnzIw3F1cD9E3TEXoIyDg3w0zzzfOucGHaNg3dJdf3+qYSy7ry2oD7ro0JX1ZCFvlJReeyCVYt3NHTmND6qY1TyDXVb54ZM7dgQ6zD/VUAHD2bszswohJ6fc4Jkm3eBEIqxraw3oo6ArbJDLnWIbaYy4dG3Ht1Plzedypntf1enobH1E91RjH/Vb95Zs5cgnEEbcqVuFjoDpno6TwkT/hN7c8RlRC7y3yf4EPsUdhxCcRUjvU4VmvrsmL+W/VPHf/YiHuvzolr+0/lnmS0/SkehsfWT3VGMf9Vv3lkzlyCsOv/G8bC3Cxk/wPgYgUA4oC/pu2+59wOWa5sAr553RXOmvouub7Xrfqnjn+64f4jI27sM5W7vdF2nwWBLPWTbxnqCqf6baqSNbLelMtwsjC9J3CAy8jJ3UidZXUvLo8sVzaBrsrP97o19b56usJZ9U8d3zrgmCuVTuW4OVpXvvhcZ+Pucpb6yceGvjCq31y5MwP/awH4g7Eg1wsRp/lx0EopjqNx6/aH/P9tKYmUnZ0EQvK7LWynYE+PNpkh1zzVZBvsfMP9R06XmDBl3DUwJK+aYd/kYbulfmrqCz1X/eaRQaUHOchYiOuFiqNHuYNWSc467mHKCqgkzrnaWi+/Mf+t6YrRWY9j1T91fDYy9fSE/udy5VM56g61tx7e5wHAyqeuL/Q/e2fkZkzgppED4NoK0g9Xc+Sn7I6LzaZfGW/irWMVK14WBNrKcsg1ayJCdLWFteqfOv53jPcftxGeym1vtP01HobrE4AHJAWJI/AxYwGuKiR+QtglzoTJY/3AyOB6k6dABlgIVGU49mjRzbixeqt4Vv1Txw9Zf6NKc/2424QJuI0x/17oYTtXIK2nd8z/XKNBbqYE/iZhwdqzYEYc6GK5qbiTmVy5BCx5z7hWN7V+q/3W+NYNx3ym0llt7IpvnQb4mC7Btes7AeCUPGs5CY1PnTeu2aG/MyPw2USFimMISnafMnJ4asmJl+3mitWKMLRiboa36p8yPlfT40JhzTSFnL93wgT8n9H2O3jazuXHQ5ikCOszQ8HTfAXLjQCX5U1RSM5YbZxzxdwSF2iP9eaaciWywKQqeAsB633QIjLo0tT6g4xNGJiNf4qXEO4xwtH4Y7utAFhH6PuukMqBxocnqrN9ytthALg2jNxMCfx3osL0jzPgwy5En5uiK8zPMt7gaAbZM3gSuvLV97rVQF89XeGs+qeIn6rxr5hM8QmSPX+V/pgjB02HOD4EcHneIT8HUDbf/NX4h+RMYWE5av0cY+FlgefgnVx39gvJkr9NwGLK1chC0qqwmxKIqbzrcTaVGHalLivmf5i26UOnbvzJ7JSRpx9znRPqjMmvKs67I7OCy49zhT6OXbL2QNAWyqAsDvjTN//ITCkp2rONBZeFhqP+/6qkRPfYyqmLMXsBVDcyj//ZI19eeROo52PMf2vqYnTW41j1jxl/iMa/YvG8EROSYuXUx41or1SJwIUEuDa/9cmVN9wbZsbTuiHJLwFcZmZMlpKcqgGJPVo5xeqt4ln1jxV/yMafLM4daSoyx09ZV07lCweXEZYTgVEJWOet8kY7DwCXD56TY5daVaHGHp8+JyALSktsflfxrKgqObFHq/4x4g/d+FfsTgVwlQETxEF7P0pQV3Dwo5wIjE6AK09VN0vs8X9Ht3p4hfdMwOXH6gUYPqMG0BB7H1TxrCZVcmKPVv1Dxx+r8a/4ceU839H1IWmnzOMS1BO085EhihVWBFIRONlYgDlKdC7f/utMuX/BWUY2vLH3qgvV/yIIVA1H7NGayFi9VTyr/iHjj934V0y+D2DnhAljt3+KN3/a94uRBywmxCBRJRO4WYIG7pCSAThs58YcVQUSe+TnkVs49Mg7LwKxeV3Fs6amkhN7tOofKv5UjX/FkZt8Pd+4MylH+3PAn/Wbf2UTjy8ZCrjkikAfgRQjV+/dp6Bwv9sleADgDf69iRYmKRz/ZObXK+eY/1bDY3TW41j1DxF/6sa/zodv7k8EQJt8HRf54Tz/FAOm67acCeAKvkYonAikJPANYwPHXfPmvPUt1zT4rpFRdbN/AMDmKTNPsgYjUOVZ7NFqWKzeKp5Vf+r4OTX+FSMeOUvgUABcv//261H4XMWUs3e4oyAHSNOPy/ummF9f1139/9fUsCVPBHwI8InWOtf9jT6KCg/DubnVzWo9/lfhLJZivjWfrZym1m+1vx6fjemRCe8hK5uc4nPbY441khOB0QncKcFNyS7yuTsugcklOlNVHJwxscXcoRWePmteW5M/tX6r/VV8Nf7d9QZfvm5bgdJRBMYmwMEwloqG691zEaElOOsa303O7HZkD4xcngSa+RV6bk1VqL5meKv+FPFz7fZvsprq/JUpIEuGCMQS+JDxAeB9sYoLjMduOg7kS1lZcGyBZgfkWRis+WxN1dT6rfbrzb+/rjhKvYDWIqb4VgKnGxs07pi3JHcXI6+2Sv389U5b6g3IqyS15VXINWtqQnS1hbXqt8Qf8s3/c6vPcY9KMHapjdlY17juytUsgBVXBKwEtk/QmHENgaW59yfg1lbR/BTAM7RqYDbFqS2PQq5ZExKiqy2sVX9sfDb+bKTbbLJeo1zKp/vngXRYbXTF50vX9dZp0EEEJiPAKS+uwtrnz7mrS/n+X88kTg3iJj99bCx+lM39vXefybbKdXYl/bfkIeNa3dT6Y+wfq/GvbHsugAsGvBetedCMz8b/JpXxOorAlAQebrxxDpvS+Il1c4+AMSqeMwC8BwA3FLrbernlrWe+7sLEWfsX9c3KO/T8L4Ii/4Tqa4aPVBsdbezGvzL0sQC4FHkz/bmds9tfb/5Vruk4OYF/M940S5/PnmIDJUsl9XsAx69WENsXwE4JShPfTPZby6Rsl22p9SdIQlIRrvS7/K3GuOS7/K36Q+JP1fhXNv4dAC5I5mIylT/XQNA2v1Vu6ZgFAS7gY7khlr56FdcG4EheC8NUcfkGtH9kzwDXNT/AOKjKoj+Lm6HFCGvetIgMujS1fl9jp278KzuvDeArmdyPVd5xnj+n+mnNjyqXdMyGwMeNN8s/ZJOS6Qzh+t2ptgKtKg3L8YjAhwA2/p82loO6vaH6p8s5t+Z6umL+uzX0h4jRWY/TLz2N75BT/Y6OWCeDDe3TAPj0YNVZDfHdrQAoAAAgAElEQVSfU3z/Jg1mSRGB9AS+aaz4d01vUpESrz7A5iCWCokDCH3dgcYy0GZniH5fO6cI15a2kGtWm0N0tYW16nfFz+XNv83O668+i3G2zhjjdJrsOTiaC6zNeX+UNua6VhgB66I2HA0vdxEBDu5JvUNYs2LxPWd3/I4eGcNv/tZ9INps8tXvYeKkQdrSFnLNanyIrrawVv198XNu/Ot277zexIdlso1Rymscg/Bi7epXx6//OROwrm2/Tc6Jm8A2Luxh3VkxVYW0j0f6OeAvlb6mHB/9HiZOGqSZptBzq/Gh+prhrfq74pfS+Nft5/gAfos/NXGZ5wM01yb4R23oU8et/yUQ4MIzzUoj5Fwr122ay5fPZGDgtzY1bZMrJxjzv6+s+OjfxKDMLvSlz8fPmhwfHX1hrPrb4pfY+NfTwa29d1m/qXPsS8xYgdMAcAn0x2hkfx2t/pdG4BfGBoADyOQ2JcCBSC8aqHu9r8Kv+/12U7M2uTLU3ua0w0f/JgZldqHOM+a/NTkxOutxrPqb8Utv/Jvp4Tnv1RsBuNd68ODL1tNqOcWZv71WdeQLATwSwB21fG8bQl0rlQAr6XqFEfKfg2v4NC3XTYCLBQ25YmBffv2m26y/+Fjyv083/Xz0/8WQTP+40ujytybLJd/lb9Vfj5/baP+6bfovAiIQQeBswwMAv31tHqFzaVG2Ww3IO9jA2VXJd/n7dMHrE0B/aexi63u9X7rb11dPVzi3Br8Qc3zz90u5QonAjAlYV8668ozZpE4a5wN/e8QHgdd6JIArCHY1HtbrPvo9TJw0iJWB1fip9dN+TmUbarGr+sY+VlaKLwIiEEjAOiKW387k/AlwzMSTV1uZWmdfuBoGTnm6sYdZXD54iOlRvvo9TJw0iIuzy99qvEu+y9+qn/G5uqRLT4y/Gv8UuSMZImAgwHXkY27eKg53E5QLJ8C3Ko4gPsnIv8qH5pHT+3zdEBV8iH5fO6cI1+Qaem61OVRfM7xVP9eSGOIBUY2/NWcUXwQSELAuAXu/BDYsWQQHUd5mNbKYezJw9bBmBR5zzh0auUeBr+PDyOGJdNPeUP2+dk4RLoZ/PY7V5rqsmP9W/UN8IopZ3teaDsUXARFoIfAOY8XPNbfl0hDg5wHuaPbq1ZSkr0VMIeSbGt+8Qxr/ynI+BHD5XsvbnkV/ZUdux5hGtx7Hmp66rJj/Vv2pB4nqzd+aI4ovAgkJvMr4APCWhLZI1MYEtl6tMHYnAE9cN+yfAPD11Ypj3FOcUwv/CIDz+DnanwPufL75b6xh0zN2+XIFP8r0WSMgtf5NLZr2SkyjW49jtb4uK+a/Vb9PGfC1S42/NTcUXwQSE2Dj4nsDt4U7JrE9EicCORFoK/Mh16xpCdHVFnZq/ZVNavytOTFMfC7lfo+VaC5a9k4AX1yNTfrR+nPk+eu24SwAXDGWdf2hqx7GlwN4EABOb5YrnADfMKubNOZ4rva5LrwEyPw+AjH3RD1On2wfv7qsmP8+OvrCxOhsxlHj30d4fL+brZdBTrFnCTeTe91qDNFtAVxs/KRIo5XA9sYHAN7sPrvOWe1UfBGYgkCzMQs9t9ocqq8Zfmr9avytOZAm/qUBPH49tqhZRlKdfx/AcwDw06VcIQQ4Ct26GNDjCkmrzBSBUALWyjFUXzN86fq5gqDcdATY8D9rNY7ojAQver5lkcuL770aVHyl6ZItzSEEPmUsHP8XokxhRaAgAr6VXlc4a1K75PpeL12/1f4lx3/A+nu+b1lJHY4vlk/RcvH5F0HukW3JfG6nuWX+yZSFIhBMwHJfMK7VLV2/ld8S418NwMeMdbq13NXjf2m92+IS86KINHMbzHqGxfzn/HU5EZgbgZh7oR7HyqMuK+Z/6fqt9i8t/t1G7u73LZPnAPinpWVGKem9gnEBGBYCLicrJwJzI+BbwXWFs/Lokut7vXT9VvuXFJ/f+rlDq2/ZmCLcAfokkGeR5BxPS4H4OQCuZCcnAnMiYLknGNfqlq7fym8J8Tn97kBj/W0tZyHxPwSAgxPlMiLAxR1CMrEt7MMzSo9MEYEUBNrKecg1qw0hutrClq7fav/c43MWV0mNf1VGuV/IpeaeOSWlb48EDwBfKCnBslUEPAhUFVbs0UNFb5BYvVW8XuEenpWc2KOHCgUxEHhDgno7Nm+t8T6iReQMOZ84KruRTk9QmHZObJfEicCUBKyVnNX2peu38ptz/GckqK+t5csa/01zzqDS0pZiX3htDlRarsvePgLWCq5Pto/f0vX7MFpimL9NMHDbWrZSxX/0EjMwxzSn+AzADSRumGPiZJMIRBCwVnIRKjeKsnT9G8HQyYUEuIEPN+exlo1c4nMdmRspb6cnwAEl3NzBWjC4Y5ScCMyBgPVesDJYun4rvznGPyRBHW0tV6njc7EgbSaUQWl9XqLCdZsM0iITRMBKwFrRSb+VgOLXCdw9Uf1sLddDxP/nekL1fxoCVwbwhwSF7POrLSfZoyAnAiUTsFZ01rQvXb+V35ziXyJRD21bmfoNgA8AeAKAWwPYdv1GfkUAVwFwu7Ufw3BVvzYZ1mvcO4CL0slNTOCgRBl8j4nTIfUiYCVgrdSk30pA8SsC3M7XWh6b8fnJ98kALlMp8Thyh8cnAjhtAHu4L43chAR2BXBCoow9asJ0SLUIpCDQrDBDz602hOprhi9dv9X+ucS/OIAfJKqXWUbOXS0b/B8A2KsQ67jyKz8Z/zGhXdxKWL0AsTliiMeC8DIAHMXfrERizylrK4NNiioCUxOILftVPKv9lZzYY+n6rfbPJf6DEtbLPwRwk4Rgbgng+wnte3ZC2yTKg8B1AVj3AuiqoHb30K8gIpArga5y7Xvdmi5fPV3hStdvtX8u8bl0blceh1w/bv19PzWXqyfsOeZnCY0fS51DHfLuC+CsRIWrrSDeoUOvLotACQTaynTINWsaQ3S1hS1dv9X+OcS/VqJd/vjmz8F9QzkOFjw1UVvCgYhyAxLgE9ZLAVyQKMPaKh9eu/6AaZBoERiaQFe59r1utc9XT1e40vVb7Z9D/KckqKP5zT9lt38X113W4wu6yqPv9X26FOi6nQB3YXpfgkLlyswztbiDPbMkYVICrjLu8rca75Lv8i9dv9X+OcT/eIK6mgP+xnIp1pI5cSxjl6ZnawBfTFCgXBUP/due4vgUuh+A4wFwCUj++H9fADstLTOU3uwJ+JTzvjDWBPbJ9vErXb/V/tTxbwqAe6awgTp7hHqUS/6eZ9TDb+qW0f6hDLdMNGNhu1DFCt9P4GoAvmksTD6VDsNwUYf69yZOGTnA8S3rT+uba8zC2k9Mvksn4Fveu8JZ+XXJ9b1eun6r/aniX9qj/vLNk7HDcZ7/2I7rBFjTeb+xjZ6zvu0HXEWqmdGc/vf3NZhs/D8dUCCOGPmJtWaq/orARgSaZTv0fCNhESeh+prhI1RuFKUpL/R8I2GFntw44Qj3UH7W8FzhL2SRn1RZdPkEPSQvT2XM0uXwzf+kgAbYUug4o+DeDeAHRuh+fUOGTkVgCgKWe4FxrW7p+q38rPEfuf5Mac2HqeJz6d6p3MER9X6dE8epyRkJcOtIfmOvgx3iP79TvRnAVRv28pv/nyP083PAjg1ZOhWBsQlY7xWrvUvXb+UXG59d/v8bUW9Z8yt1fK7tP5V7mpEf16aRMxDgaH9us5i6UNXlsbv/LQC4mFCb44C/eviQ/22DCNt06JoIDEUgpLy2hbXa1SYz5Frp+q32x8Qvucu/WTamnE+/h6HuZzq4boFcJAHurWztgmkWpuY5v+u7Ru5b9hX4VmTaFU0EUhFolvnQc6sdofqa4UvXb7U/NH7pXf7N/K8PxA5lYQ3PcWdNe0LOf2c1YMnxuatSCOyQsGespsFwbWofx0wMkV0Py40h5ERgSgL18hjz32p7jM56nNL1W+33jT+XLv963vM/B2BP5ci0aU/IOTcZkosgwEF4Q63w92EAXPfZ11l3itKUQF/SCjcEgZAKqy2s1aY2mSHXStdvtd8n/g1HnB4dkncpwk4xA6BizocPSxr0AFCRDDjeAACnfljAt8U9Z7X/86MD7KiC/tJoCwcxyonAVATa7oWQa1a7Q3S1hS1dv9V+V/y5dfk3ywDX55/KUXfTnpBztmNyAQT4tnysEXpbBnGrx5sH2FEPat0cYte6MP0XgZEJtN0PIdes5oboagtbun6r/V3x59rl3ywDt+0CMMJ16yBAth1yAQSG+O7/OQBXCrChGdS6zfDjmgJ1LgIjEmhWqKHnVlND9TXDl67fan9b/DmN8m/md/N8ymmAjze+jH6lLfN0rZ3AbQBw7nyzAFjO3wuA6zpb3LuMNr3bolxxRcBIwHL/MK7VLV2/lV8z/ty7/JvlZcqFgKwbzrHtkPMgwMEW3zE2tM2Cw0UwOJXQ6l5otIuzCKYcyGJNv+KXTaB5X4SeW1Mfqq8ZvnT9Vvur+Evp8m/mP8duXbaCMOKRdbZlBhjT8aIR7S1a1QuMjWyz0HBhnxSNP6HeP4Ftjyk6d2R8yQSa90bouTXtofqa4UvXb7Wf8ZfU5d/Mf55zY56xHT/dttkScu2eYxtdor7rAzg3AewqY9htk6rxJ0+OBLVOSfwugIuXmDmyuXgC1X0Re7QCiNVbxStdv9X+0rv8U2wHfNrI6wFwMPrJxjaJbcaUMxis5W60+P9nBF1VFDweNVBBSbEF8bNHIzqtIu6dwOWTuX/D7z3ylmEYdl+PVRlTpKxpH2/UMwH8Yr3hFMvQQQBeBuAfAPxV4gfKFGkIkVG/P2L+h+hqCxujsx6nTWbItbqsmP8hulKGHbPLn/cfexmGcp/0qAdcefO8oYxrkfuvCez9eotcXWoQ4BQPV8b7+nOq3xUb8lOdck1/Xzu6wrGXg9NK5uo4juOAyI2TKmYcBLr/QFspW+zjt8CPAODmIFx0pSRXsY09WtMaq7eKV7r+GPvH7PLnWCk+bAzprJvqsCxwUZ1bDmnkWjb3HvhDgvpeWwF7ZNYXEoBm4TgbwE099MUG2SWRnaevNh7i+tJzc2xcua9CVWlbj0ckfghIbd9xAJ6z2j1yuwIy0poX1iQuXX8ov7G6/NnzRl1jONZ5MTuqNssOX/KG3BuAdrKObuqNOR+yPRojzwbXcddEoJk5jxjcWsCyKVC9ALHxuMYI9o6p4sCEeVmxen3CBAxhH+3kFtLvHOnNJBZHxTP2GKu3ihert4pXyYk9VnJij7F6Q+Nx1PlY2/cO3eXflvbDEtURrIeH+LbOxj/Fp16WM20C11YCGtc+m6hAcK7/GO5fEtnLAsKnzLl8DuA39RRP980Kmp8DdkyQsUPZ17SXY1k4XiA317Qz9NyanlB9zfCl6/exf25d/m1pfkDC+pMr7O3cpiTy2q0Svvmz/E65eFEkgnGj3S5RYfgxgK1HMn2r9WCxZgUVe87vTJz+WPoaARzwF8vAFY9jL6yOgwtdelL5s0fgdSN8Uw1hYk1biK62sEvX38akfm2OXf719FX/N08wsr5eljimigMDLQu9cbQ/ZaT45l/Zxr1jhh5TUTEt9nhIokqZc/THdFzYocroVEf2BnCea6kPAqk+jbTxTNGVNqR9bTbz2kkZ9fB02eh73Xp/+erpCle6/i77597l35buxw5Qf7I3gPXn5dsUdlwj+z0TP5BU5fe5HTp1eU2A37/PT1AQPjEBUc4y+HkC26vCUj9ypPl7Vl1RXH969/V3rhK2EraullVn0Pz/2wR5PKR9TXvr5yzjT01gv1VE3aaY/9JvJbBp/CV0+W+aaoC9AEM9kHMg+MHrmTr8vMpv+nwTZx3KMQOsU9k1z0/GQ9UJXPNAb/9tOV+79pIEDSi7Wrlt8BTuUQnsD6mIx54nH8qUjXRIekLCpthOc0j7fNLCaY0pF6YKzR8fG/vChOprhu+T7ePXlBd67qOjL0yoPlf4pXT5d3G4y4D1RV8+juH3kK5E6/pFBFgRclUna2a8cUKgmwE4OkEaYhgMOU8+FulQT/TkU+ongGbeplyaOjSfmraEnofqa4YP1dcM35QXet6UF3oeqq8r/BK7/LtYvH2i+jM070PCc7EjOQeBv06Q8Rz8MfU0uusB+HWCtIQUsHrY1PPkHdnW6z3kILvX9mr28xzSvnqeuP5zkaQpnMsul7/VZpd8l3/p+mk/F49KNcXMxYurWOY+noifUvnt3pWWUvy5kug1rQV1CfHfnCDT35AJqAcmSIulgKecJ29ButMA2ziTC3s7UixPOpR9MXk3xaYmMXbW41jKBuPWZcX8L13/0rv8u/KPq8DyU25MmcgpDpcSv09XInV9A4EtAPzKmOGcb87Ng3JxfEOdqjCmmiefgiW/c6fmwOmFqdwQ9sWklxXebqkS5Sknxs56HE81ncHqsmL+dwr29IjRWY/jqWaTYGN2+fMzXIqH5U0SMfCFFDvu1fNqiv//PjCj2YhPMff/g5nR4HiAsVbvaivcKebJp0DKkbaHJ3wI4KphKXdPTG1fW174XmNXcMq0ufLP166ucC75Lv8uub7XXfJd/r56usK55Lf5L3WUfxsL17VXJKw3uvJwqOv/DYBtgJwHgb0TZHSO+yuzMv9ogrTFFNIUg+Q8ss4rCBtZfpZgz0RMWhiHcfnmP0QDmcK+2HQ143EfgbFcU3foudXOUH3N8KXp/yfPXTCb6Qw9H3Mtf2seuOLnMk4nJA+4BDinNcp5ErAOguGCOfyMkKOjXRzpHVKAUoRNMU8+NU8u38ueCT6c+My3ZRiG5eeUMboxQ+1LkU9NGdx6eKyBWk3doefW8hGqrxm+FP3q8o/PKb5Fc/vtZt7nes5ZaGr8A/L7SqtlbzlYwpKhKUaEB5gcHJSF+NXGNIbyyfEBIBjcxBG4UyAXCtkBANcE52pl7Mn4vLE3w5WXzxgp3S47XP5WM13yXf4l6FeXvzWXLorP1fm47a+rTEzlzzFoz0+T1GVJ4ShJa6ZxDEEJjssTjzVFMKdPACXkTaiNV14/EKTc6ri6D7gr5Biu0hd7tNoYq7eKl7t+dflbc2jj+FzFL8VaMVX5SXVkr93dNjZVZ74EXmN8ACD8krpcrgsg1W6HfQU4l0GAvuWg5HBcSvQjxnLczEvODx/aNXWGnlvtC9XXDJ+rfnX5W3OmO/4VALw18b3WLFch59zp82rd5srHReBIY2a+w6UgQ39+EuAc4DOMae8qqKnmyWeILmuTHgyAO3515UvI9aeNkNIQe9rCWk1skxlyLUf96vK35opf/DuvxweFlJeUYU9eLeB0Pz9TFaqPgHX+P78Nler4NMttf60MmgU75Tz5UtlOZfe1AJyS4CHgbSMkoFluQs+tJobqa4a36L9sgjxq6leXf5PIsOccYM39V76bIC+bZavr/Eer+vopxq2Gh6VSkHQu29sF2vf6jQpKb5eprIyeCeD4BDxSz5PvslnXuwlcBwA3K/Itw23hju0Wn8ynTW/INashIbrawsbq5/32OWP+0J7Kqcu/IjHNkZ+A77vaZpu7wHIwXltZsV5jeXnYegfBaVI5Q63W3Z+4zvLcFlu4xXrGABuAkMI85Dz5GRa9wZP0dGNF9JPBLbRXlFYTrZVyjP5UjX/1AKAu/5hcGC7Otqtt2Z+0fhjwmWrcVQa5rwz3VXnWaszBtYczd9mSub99Vwb4XOdT2ZzdNuvvTFxSkotLfBUAvz3xkwGnxIw9T37OrFOnbTtj2WYFNLTzucf6wljt65Pt4xeqP2XjT/vU5R+aA+OG5ycCDtDlssKvA8ABe19c16GsR/n7HoAvA+BKspzi+wQAt1YX/zgZZV0BcKpd1MahIy2lE+BaDD4NWVsYfkIY2rXpDblmtS9EV1vYEP3sprcOOG6zYehrJwK4SUhCFVYESiHwXkMFyRtvjJHSpbCUnfkR4EYssQ3EGOs4xNpWxbMSr+TEHn31p37zj7U3NB73Erm0byIVTgRKI2B9Itc0jNJyfFn2WtYxH2N1y9AGqRnemptNeaHnPvpLfPM/B0DJs5t88kVhRADWPQDG3j5VWSYCIQR2ilwyeKx1HEIb3Gb4EBZtYZvyQs/bZNavldj4q8u/noP6P2sCnFMZetPXw19z1nSUuDkQ2D+ijI+1jkP9Xor5b82fGJ31OH36S+z2V5d/X47Kb3YErOviX3F2RJSguRHgVsOHBzwEjLmOQ70xjflvzasYnfU4XfpLe/NXl39XTur6rAmcHVAx1m/86j8rVzkRyJ0AyymnGLFrvyq7zeMU6zg0bQg9t3IP1dcM36a/tMZfXf5tuahriyBg2d6RWwjLiUBJBHYEwE2aOMKfazhMvY5Ds0ENPbeyD9XXDN/UX1q3v7r8mzmo80UR6Hsjat7sbecXWxQtJVYE0hJou6dCrlmtCdHVFrauv6TG//frzcDq9uu/CCyOgPUTwMUXR0wJFoF0BNoa1ZBrVktCdLWFrfSX1O2vLv8q13RcPAHr1qmXWzxBARCBeAJtjWrItXjNF8UM0dUWllJKevNnlz8fVuREQAQAWKcBXlcURUAEogm0Naoh16IVryOG6GoLW0rjry5/a0lR/FkSOK5nVHTbDd+8xo0e5ERABOIINO+n0PM4rRtiheprhk+xpW9TZupzLgfNHQPlREAEGgRC5ke33Zh/35CnUxEQAX8CbfdUyDV/Te0hQ3SVGFZd/u35rqsicCGBdxl7ALhXs5wIiEAcAWujGqd1Qyyr/lzja2GfDXmsfyLQSeDVxgeAAzsly0MERMBFwNqAuuS7/K36c4yvLn9XrstfBNYEnmB8APiMSIqACEQTsDag0YrXEa36c4uvLn9riVD8RRH4W+MDAFdS23xRxJRYEUhHwNqAWi2x6s8lvrr8rSVB8RdJ4FrGBwBWAFxeVU4ERCCcgLUBDde4cQyr/hziq8t/4zzVmQh4E9gMwJnGh4DHe2tTQBEQgToBawNalxXz36rfEj/FFEJ1+cfkuuKIQI3AEcYHgINrsvRXBETAn4ClAWVcq7Pqj41/NICtjPVOivRb+Sm+CBRPwDoTgD0IGgdQfDFQAiYgENuAVvGsJldyxjzyzZ8rCNJZ9a7F6CACIhBLgIv5WG/Ev4lVrngisGAC1vvOis6qPzR+9eZf2R0avxm+kqOjCIhAJIGtAfzZ+BDwxkjdiiYCSybQbNBCz63sQvVZwjcbf9pukce4ciIgAgkIfMN4M/4cgLYGTpARErEoAlM3gFb9vvHr3f71DPaN3xWuLkv/RUAEIgnsbXwA4A16/0jdiiYCSyXQ1bD5Xrdy89VjCdfV+NN2i1zGlRMBEUhA4DYJbsbDEtghESKwJAJTN4BW/a74bd3+9fx1xXf512XpvwiIQCQBjuJnN77rhuvzvwDAjSL1K5oILJFA3/3k42dl5qMjNkzfm39ld6zsKl4lR0cREAEjgTcbHwB4U77VaIOii8CSCFQNWezRwopT8WL1uuL5NP603SXH5W9Jv+KKgAjUCNwhwQ15HoDr1GTqrwiIQDcBVwPn8u+W3O9zGQBHJrjf2+xzdfvXLWuLH3KtLkv/RUAEDAS4LPAPElQKXJ5TTgREwE0gpLFrC+vWsGkIvvnzDb1NnvWa75t/ZZVVXyVHRxEQgQQEXpKgYuCaArdIYItEiMDcCYzdAObU+DNvx07/3MuT0icCJgLbAWA3vvXG/LTJCkUWgWUQsN5nucQPffOvctdqfyVHRxEQgUQE3pvgAYA39iMT2SMxIjBXAtYGMIf4Id/8m/lotb8pT+ciIAJGAinWBOCN/SsAVzXaougiMGcC1gZw6vixb/5Vnlrtr+ToKAIikJDAUYl6AT4IgIML5URABDYlYG0Ap45f7eq3acr8rljt99OiUCIgAkEE7pToAYA3+FODNCuwCCyHgLUBnDq+Naes9lsfQKz2K74IzJYAv+1Zb1DG/wOAXWZLSQkTgXgCKe6vKWXEp/yimFbbrZ8grPYrvgjMlsAeALi8r/UmZfyfArjGbEkpYSIQRyDFvTWljLhUb4iVwvbPA9hqg0j9EwERSEXg4EQPALzRvwrg0qkMkxwRmAGBFA3glDKsWZDKdvUEWHNC8UWghcD1AJyb8CHg4wAu0aJHl0SABG4CYD8AxwP4/frH//sC2GmGiFI1gFPJsWZJSrv1EGDNDcUXgRYC/5HwAYA3/KEAtmjRo0vLJXBJAAcA4CqSXY3CnwDsP7MHyK60lnLdWmJTp1OfA6w5ovgi0CDAN/YTeirmmJv4/QBY6cuJAMsBV470LUdHzOghwDfNuYazlt4h0qWeAGuuKL4INAjcGgDfwFLesIcB0DSeBugFnh4YUa5ePxNOKe+nKWRZs2Eom/UQYM0ZxReBBoGXRVTUrhv8MwC2bOjR6XII8Jt/X7d/V/nhw+iOM8DUlb5SrluzYMh06iHAmjuKLwI1AhcH8JUBHgLeVdOhv8siwAF/sY3APjNAFZv2XOJZs2DodOghwJpDii8CNQLXB/BrQ6XddcP/dU2H/i6HgGVsybdmgKnrfijlujULxkinHgKsuaT4IlAjcK/Ibtu+m/0jNfn6uxwCvzM8TP52Bpj67okS/KxZMFYa9RBgzSnFF4EagZcaKu62m55zvlOsD9CcR/7H1V4EZwI4GcBxAD61nkr2zwD+dvV/m1qa9Hd8AsyftvLgey1FmRk/1Rs0+qazK9wGSXH/uuT6Xo/TuiGWr54U4Zb4EHDl1Wfbu69e2DiVm9u8c3n309Z1IpdoJ1fWvT8EcMxqrQ3OznoJgH8AcM0N2aR/IrCBwNUBfMFYcbfd0NfeoCL4n8888jadHIB2LAB+T76nBiQGc7dG+KWxHJX+ANdWJkOuWfmH6GoLO7X+Npv6ri3hIeDmqx1YXwzgawmWcj8JwBsA3EG7ulqL+jzi7wbgx8ZKu+sG/atIRKHzyLv08zrHN7wJwG1V4CNzIyzaqcaytGuYuuxC95VFH3gRvScAACAASURBVD9rgnx09IWZWn+fbV1+c3wI4BLre67f4rvSbb3+g9W9+sLVAwF7FeQWSOCBiZcFrhdITuuKXRMgZh55XXfX/++uHnYem+jTxAKLi1eS2e3Yxd/n+uO8tOQbyCeNfWGsKeuT7eM3tX4fG9vCzOUhgA3/MwH8zHgftTHqunb2emlu9gTLLYTA0wYY+FcvYN+I5Bg7j7yu2/X/R6tvZk/V54HIHOqPximgLv59/u/uF5+9b1/afPysCfTR0Rdmav19trn8Sn8IuP+AvbEudvTnINx/AcDp4XIzJbDZage/VxkraZ/C9PhIfpZ55D521cN8fz2gJtJURWshwC7FOuPQ/5xFcJkWuaVcCk1vM7w1nU15oedT6w+1txm+xIeAbQF82HjfNDlYzrlZ182sBUHx8yPAxp8DQCyFwyfuiYZ9ASzzyH1sawvDkbLb5ZddRVrEt5g2xiHXHlNkyi8yOiSdbWGtSW+TGXJtav0htnaFLekhgDOXzkhwz3SxiL3OGQXsJWabITcDAhdbD4aLLRC+8c4CEDv4j5gt88h9bWwLx8GCD5hBPk+dhKskGKnMsRqldkO2la2Qa9b8C9HVFnZq/W02xVwr4SHgeQN/ho3h1ozzNo2Zst4S08fnU9x/jfCUyZXcLI0/SfE7VLMQjnV+wXrv+tLnok9d4r6ZIA+fPXUiIvVby2qk2r9EK12/1f56/FwfAvgyxs2v6rbm/J87e17+LyVMf4ojsPfAhe18ANRxqQRkpvgE0Lz5jlqNir1CgrQsVQTXYGgyDT0/F8AeBQIMTWczvDXJTXmh51PrD7XXFT63hwC+jPGt2mV3bv5cJ2Yra+FQ/PEJ/OvAhY3TvrhQRSq378D2+t5YHAhzjVSJWpicXRLl4ekAti+MnW/56gpnTW6XXN/rU+v3tTMkXE4PAf+Z6N4ISX+qsHwxSvGSZy1jiu9J4KEJvsd2FR7O83/5AN9qdwJA2V16x7x+CoDrebJWsI0JpOrJ4XLPJT2IWcvnxhTDz0rXz8bamoa2+Dk8BDxnoLS1pXeoa+8ML5KKMQUBrnxXrQ2dujBw5cDbD5io/TO6UfgQoAUywjOb84lTlTv2BJTyOcCa5nDSG8coXT8XD5vjQ8DfZPRiYy0jvLflMiZwHQDWNdm7CsmRAK46cNo5CO/whA1IV1p8r/MtVINgwjKd3wu5aZMvY1c4Psy+oIA1AlzpcPmHUd40tEu+y39TiWFXXPJd/tQ2t4cA1pdjruznYmz155gvLiEvlyEBfqP5esKKt15Y+H1+i5HSzIcAjpTN5XMAv3+VOjVtpCzbRM2LBiiH7A14YsYPAvX7Jeb/JhADL8TorMcJVLdJ8LqsmP+VwDk9BHDXvhgWOcfhJ74tq8zSMR8C/ztAYWMjzO12p3A7rnf24xTDqdYIqG7EV08BoGCdVwTw8wHKI/ODZeE9ALji5O4AuP5ADtM3q7ISe7Rmd6zeKl5O+ufwEHCvgcp/lV9THrnNsFxGBB41QGHjdKx7Z5RGvoWzYdlhtYXxXdZr+nP9eb4ZDn0zcJ0AbjEs509giDLZl8/cC50zONhbxQGlY7s+23z8rPb66OgLk5v+kh8CWFdxufE+3rF+vwHAeo+bm3EHTe7oR33sAeagWXbRc78T9j7wnojV0xePmwhpBVXrHZMo/vUHeENm43+3RPaNIYY3AqfZDDX+gTcDZavQ++cm5z0fPVAF1Fc50Y89VxxQOmbPgMsml78/2faQLvku/3ap/ldd8l3+bZpKfQjgzpau9Ib6nwTg0av9XLhroK+73HprYQ5oDtXnCv8WXyMUbjgCfPL7SuLM5aCruw9n8qCSuZnM0wfcWevgQa2fn3BOpeRSy67KZCj/I0Z8CLCmwZr7c9Vf2kMA6+QfJizz56xe8J5lHIPFb/ZcfpgvdtZyUsU/r8C1Oqz3WHbx/yNhhjJj2fjfI7tUhhvEp2QORBtiOmSpD0fhFNPEeGDiMlpVQL5HDigdw/na0xXOamOXXN/rOesv6SEgxaZYVZ5xb4yUn7O4UNepCe/HvayFRvHjCdw4cQP3x5k0/nWiXKmQXWfVDZXiyJvyknUl+u8k8NrEeRCSj/wcwAGlQ7sQm9rCWu1rkxlyLXf9pTwEfCpRWeeMLn7fT+04aDbVYl2/0oyA1NnjJ4+bSnCN5pAb3BX2kX6qiwvFeekfSMzqycVRmNZgjgcYYpaKq0xX/tyjYGhX6Yo9Wu2L1VvFK0F/7g8B10y0AitfMoZo/Ks83jbhIMWcBopX6Zv9kYNBqhs3xZFvaHN2m68WMTowIbPTRvy2PJd84bfRjybMg5Byz6mkQ7sQe9rCWu1rkxlyrRT9HOfDRclC0uYb9vPGjW84ZdpXV1c4fqe/mTUzPOLfcjUugL2+XXb4Xn+Hhy4FSUiAN8BPEmRclcGfBMAGcgku5YYcj1kCsMRp5GJSHD1clb2xjtxqemhnTYvVviXpz7Un4OMJyjYH/I3lnp/A3rMAsEdabiQCL06QaVVlwa4mzq1fiuODzqGJ+HFsAbu25cIIkBkXVqrK4BhHPQC4eYfl4qahrfm4qcT+K0M+BMSk5acAODI+Jm4Vh3XKWCuuki7HMv3IaDNtH6PHor80LMSXCz1wEYaqwFiOXFHtRgvhVk8mK44TEzG8dV2w/gcR4GjpsaYI6hOAu84IyryWwJa6iHFjXG4PAVYG/LQ7tuPy2la7NSZqpFw7KEFmVZn9hJFszlHNLRI8rZPjG3NMXEE2XRfAZxOW6apsN48aBOiu5K3Fpsk89DxW/1weArjCX8giP7G8mvHIj2sNhOZXPbwWBWpSHeCcczj/bMyoKtMOU/d1km5o7nqnKYG2ws5PApyBckaisl2V8erIaYCcMju0q/TFHq32xeqt4pWsfw4PAVzedypn/SzKDdPkBibwkUQVJJ80OV1l6Y6VBr/bVRVg7PHvlg4yUfqvsN72l3OLY/OiLd5+iexziWnTHXLNJd/lH6KrLaxLvsu/TWbINZd8l3/pDwFc238q9yTjPffjqQxfil4OsuCGNCE3VFfYKQtabvn1zARMX5Vbogq3hxU584Ub+3SVYd/r7Oni9MMxnK9NXeGsNnbJ9b1eun7aP+QUQV+OseG4n8lU7vbGe429bHIDEuAa9LEFqx6PU/40cn1DRrHCsG4g9LUN4vQvMQGO1eCMgWMDP3+xQuKb/1iNP5Ndv89i/lvRxeisxyldf2V/qT0B21QJmOB41QTll7sRyg1A4Frr3c3qN2vM/7GWRB0AwaAiuVZ8DM8qDsdlbD2ohRJOAqwg77e6F/4dwDtXy1Z/FcDJAPjJgAuacFYLR/tzUasxvvk3c6UqD7HHprzQ81i9VbxQfc3wlZzYY1Oe5bzEnoAxd65ssuWugbH5VsUbcuXCpr2LOk81Z/q/F0XNP7HcP7sqxLHHO/mrU8iZEogtO1U8K5ZKTuyxdP1N+0vrCZjyDZq6Y8tNFY97DMglJsBpISkGRXF5ye0T2zYXcfwk8jPjDcC5tHLLJlBVhLFHK71YvVW80vW32V9STwDXeJnKsW2oykHsccoHmKm4Da73EQkyhhmqbRv7s+o9Rs779ouX7wIIxFacVTwrokpO7LF0/V32l9ITwJ7IqdxtjPWfBgEOlHMctBd7Q1fx2IPAKVZy3QSebuTMNcDllk2gut9ij1Z6sXqreKXr77O/hIeAp/QlYGA/TQMcGHCMeI7M5JNVdYPGHrl3gFw/Ac7lj+XLeN/oFy/fBRCwlB/Gtbql63fxy/0h4L2uBAzo/3/G+k8LAQ2QOU81ZgorBG5Owb2f5foJ7GBkzdHocssmsPQGeOr0+5Q+PgSwsbLaOkT83wPgaPyx3VbrGTSWNGmA+QC59qUEBZXftuXcBDjFzHID/NytQiFmTsBSfhjX6pau35cfp9tx6m+K3lUr82b8PX0TkTBcihdNbQaUMEMoyvpGWhWs2ya2a67iuJ5/xSzm+Ie5glG6vAnElJt6HG9FHQHrsmL+d4j1vhyjsx7HW1GigDsCeN167Qi+fddtifmfYjvgU1YDtrdMlD4fMaz3qDMmvfU42g7Yh3ZAmH9LkCn6Lh0AfLX8LPeMrxfqkP/cX0GuLAI3Wa8WyCWH2QDwx/+c0bFTRFJCyktb2AiVG0VpkxlybSNhESchutrCRqjMLsrHDHVIxeR5I6bqRQns5YZoFxvR5kWo+kyCjHncIkilS+QJBuZj7DefLqXLlsS3ngMcSwuze3h/ACGrs1UVeOzRmiuxeqt4peu32p8ivnU0PfOCa7Zw59eh3c0BsOeyyv/Y49uHNnRp8rl4BZc2jc0Qxjt/vXTq0thZ0ss3v1jmXH5WLn8CbPw/HZDPRwQ8BMSWnSqelV4lJ/ZYun6r/Snic0GdFFu2n7p6SB1yZT0ODP9RwH3QV6bunQKcZGwgcNcEGcNKTi6MALt9YwYGMc4Ua8+HpU6hSeDAiHuLA8Z8XF8l6ePno6MvjI+OvjB9sn38+mT7+PnoKCFMirVbyIs9kkPM4KLM4yLug7Y85BozfKiWS0hg7wSZw5GdcuEE2O3bVtD7ro2133x4ahSjToDf/GPezviAxwFjLtdXRnz8XPJd/j46+sK45Lv8+2T7+Lnkl+LPDat80usT5vsAdk6YcHb7p3rzp/2vTGibRK0JHGMsQBcAuKZoRhHgN9/DA/iPud98VIIU6S8E+KDmU+m2hdnnL1K6/7TFC7nWLdnPJ0RXW1g/Ld2h2mSGXOuWXJbPFgDYhR+S9r6w/Bz8fOObNt/SOeAvxTf/ylauMTPl/gVllQpPa68Y2Q1dZQqP3CZVLp6AzzxhvhWOvd98fIoUkwSGHuRZvwdj/ltzKUZnPU7p+q32p4z/mIQPAFUe8c2dm45xMSNfx0V+2BucYqpfZUd1fLOvEQrnT+DuCQqOlv71590Xkt2+fPPjCH/uNT/1fvN9tsrPTYD5V1VeoUdOEXW5UJnN8C75Lv+mvNBzl3yXf6i+ZniX/JL82QvwPUN5a7Kpn3OWwKEAOOPg9qtxLVwyni+OHDzON3Ju7EM/Lu9rKfN1nc3/nDI7xPiEkvJ4EFufk6DQ3G0QyyRUBMom0KzEQs9dqQ+V1wzvku/yb8oLPXfJd/mH6muGd8kvzf+eCeryJqNczvk5QW4AAgcZCw2///NpUE4ERGBjAtbKc2Npm54NLX9TjRtfWbr+jWnkcWbdZtyap0PE//bIqxXmkZMjWfF14wPAiSPZKTUiUBoBa2XoSu/Q8qXfRSA/f87lP91Yp1vLVcr4XF9mjEWK8svJESzaHMA5xsLyPyPYKRUiUCIBa0XoSvPQ8qXfRSBP/1uvd2W1lo8c4j8jT8TzsOqvjI0/C8gT5oFCqRCB5ASsFajLoKHlS7+LQL7+z0xQt1vLlzW+lvwduHzdP0EhudXANkq8CJRKwFoButI9tHzpdxHI258ziqxlZKr4XFn2UnnjLd+6FE+JmppRfjlQCoYhYK08XVYNLV/6XQTy9t9stUAbP9Fay8nY8T+3nmKYN90ZWLeXsXBwlSdtyziDgqAkDELAWnG6jBpavvS7COTvz/rZsumYtYyFxudKp5fLH+s8LHyL8QGAC0/IiYAItBMIrfya4dulbrjaDB96vkFS3L9Qfc3wcVo3xGrKCz3fIGn+/7jeS8y+FKFMLeHZHl18/lmRTwo/bHwA4Br2ciIgAu0ELJUh47rc0PKl30WgLP87rwZt/8xY51vLXFt8zkR7clko52Htl4yF4b/ngUGpEIFBCLRVdiHXXEaFyGoL65Lv8m+TGXLNJd/lH6KrLaxL/hz9rw7gQ8Z6v41l7DVuE8xt0eUmIHCysSBoa8YJMk0qiyEQWylW8VwJrcLFHl3yXf6xeqt4Lvku/0pO7NElf87+9wVwmrH+j+XOeL9e/Z4OgHsYyE1EgBuOWDJR6zNPlHFSWwQBy73FuC43tHzpdxEo239LAE8beeVAbhb0mvWGQmXTm4H13GLWUok8bwYMlAQRGIqA5d7SA4A7V4bm67ZgHiEuDYDbCX/Z2B705QcHjP8bgK3ngaz8VHAZ4L4M8/HjOgJyIiAC7QR87qG+MO1SN1zti+vjt0FS3D8fHX1h4rRuiNUn28dvgyT9qwjcFMALAHxldeRGbz4cu8JwE5/9ANwWANckkMuIALt/ujLO97pGbmaUoTIlOwK+91FXOFeCuuL5XnfJd/n76ukK55Lv8u+S63vdJX/p/lcCcNfVvgLPB/BOAFyg5xQAZ65/7EHmZ+QfAPjqajDf+1fA+Fn4AQC2Wzq83NPPbh/fG6Ur3GNzT6TsE4EJCXTdN77XXab7yukK55Lv8u+S63vdJd/l76unK5xLvvxFYLYEOPqy68bwvb7nbOkoYSJgJ+B7H3WFc1nQFc/3uku+y99XT1c4l3yXf5dc3+su+fIXgVkTsK4M9dxZ01HiRMBGwLch6grn0t4Vz/e6S77L31dPVziXfJd/l1zf6y758heBWRM429gLsPes6ShxImAj4NsQdYVzae+K53vdJd/l76unK5xLvsu/S67vdZd8+YvArAlYF4J406zpKHEiYCPg2xB1hXNp74rne90l3+Xvq6crnEu+y79Lru91l3z5i8CsCRxj7AE4eNZ0lDgRsBHwbYi6wrm0d8Xzve6S7/L31dMVziXf5d8l1/e6S778RWDWBD5qfADQZkCzLh5KnJGAb0PUFc6lviue73WXfJe/r56ucC75Lv8uub7XXfLlLwKzJvC/xgeA42dNR4kTARsB34aoK5xLe1c83+su+S5/Xz1d4VzyXf5dcn2vu+TLXwRmTWAv4wMAt3HUCk+zLiJKnIGAb0PUFc6luiue73WXfJe/r56ucC75Lv8uub7XXfLlLwKzJsClfH1vlq5wWvFp1kVEiTMQ6LpnfK+7VPvK6Qrnku/y75Lre90l3+Xvq6crnEu+/EVg1gQekuAB4E6zJqTEiUA8ga6Gx/e6S7OvnK5wLvku/y65vtdd8l3+vnq6wrnky18EZk1glwQPAM+aNSElTgTiCXQ1PL7XXZp95XSFc8l3+XfJ9b3uku/y99XTFc4lX/4iMGsCWyXY8entsyakxIlAPIGuhsf3ukuzr5yucC75Lv8uub7XXfJd/r56usK55MtfBGZP4CfGXoATZ09ICRSBOAJdDY/vdZdWXzld4VzyXf5dcn2vu+S7/H31dIVzyZe/CMyewCeMDwDcM/oqs6ekBIpAOIGuhsf3ukujr5yucC75Lv8uub7XXfJd/r56usK55MtfBGZP4OXGBwDeXPedPSUlUATCCXQ1PL7XXRp95XSFc8l3+XfJ9b3uku/y99XTFc4lX/4iMHsC90vwALD/7CkpgW0E2PPzgFX5eSGAdwP4GoBTAJwJ4DwAv1/5c7GofQHs1CZg5td+a7i3fuPBpqth873uoaI3iK+ernC9wj08u+T6XvdQoSAiMG8C2xsqqepGO3neiJS6GoFdAewD4FuBA0j/BIAPipeoyZr73xMM9xb5ulx1/8UeXfJd/rF6q3gu+S7/Sk7s0SVf/iKwCAI/MFRU1c13w0WQWmYiL7d6m/8XAN9OUE6OWNBDAHs+qvsj9Phaj6IWKrMZ3kNFb5CmvNDzXuEenqH6muE9VCiICMyfwFsNFVV1U/3r/DEtLoVbr5Z6fvG6S7/K5xTH1y+EJD97sOcjlBnj3NiDUajcZngPFb1BmvJCz3uFe3iG6muG91ChICIwfwKPiqikmjfTsfPHtJgUcn+HxwD4RYJy0SwnPGcDt+NCaPKzRxuDvmv7ebLpk+Hj56mmM5iPjr4wnYI9Pfpk+/h5qlEwEZg3gW0Dv+d23Vw+by3zJll+6nYA8PmIRqurTHRd5ziCJTiOeeC22V0cmtcPA3BxTzDNuKHnnmo6g4Xqa4bvFOzp0ZQXeu6pRsFEYP4Evh5QSXXdaK+cP6ZZp/BBADj6vCt/U173GeQ2F9h8COBnj77PAfTjm79v40821vyw8l26fis/xReBbAi8NEGF8rPACiybxC/ckIsBeF2C/A9pEDhFbmmOnz2qGRS/A8AfH4Q44C+m9yyEd1tYK/82mSHXStdvtV/xRSAbAik2BuLN/8BsUiRDfAjw7fRdIzf+LCc+89x97F9ymJDGti2slV2bzJBrpeu32q/4IpAVge8laAg+m1WKZEwfATb+H02Q5yGVfhV2SZ8A+vLA4lexjD1adDNurN4qXun6rfYrvghkRSDFssC8uW+VVapkTBsBjvR/W4JKvKrMQ48+89zb7Na1DQRCmTfDb5AU968pL/Q8TuuGWKH6muE3SNI/ERCBC5drbd4kMeeHiGX2BMb+5l8vR77z3LOHOLGBdaYx/63mx+isxyldv9V+xReB7Ah8KcFb4Z8B3DS7lMmgigBH+9cr4rH/+85zr+zVsZ2ANd/apfpfLV3/Zf2TqpAisAwCj0vUOHxwGbiKSyXn+Y811a+tgQiZ514c3JENbuMbcs1qboiutrBT6+d6F1tZjVB8EZgTAd4Qll3M6jf6HnMCM4O08Lv/GIv81MtA9T9mnvsMkA+ahIpt7NFqXKzeKt7U+mnH5wCoJ8CaE4o/KwLsoq1uUsvxqwA4x1wuDwJc3teSn6FxrfPc86CWrxWh+dEMb01ZU17o+dT6K3vVE2DNCcWfFYHrOFYtq24cn+MjZ0Wm3MRwY5+h1vbnJwWuJfDY1bRCbhd8ZS0INUpB8bn/+sJYjeyT7eNn1c8HTB89PmH0EGDNDcWfFYEPJLq5Tl+tMnf5WZEpMzEvSZSf9cr0JACPBnDpMpEUb3U9L2L+WwHE6KzHseo/IXGZ1ucAa44o/mwI7J7w5nrzbKiUmZDLJd7S95zVMrbPArBFmThmY3W9MY35bwURo7Mex6p/iKmsegiw5oriz4bAxxI9BFywGmxzp9lQKS8h/5IoH1l5fxe4cL2I8ijMz+J6Yxrz30okRmc9jlU/90/o22Cprivkvx4CrDmj+LMgkLIX4AcArjALKuUl4tuJHgC4YyS/78vlQSCkUWsLa01Fm8yQa1b9jM9dFkN0+obVQ0CK3JGM4gl8OOEN9t7iaZSXAA7K8630+sLxzV+Nf17535dfPn7W1Pjo6Atj1c/43M/iqERlvGmrHgJS5JBkFE2A3WznJ7zBOBVNbjwC3H62WbGFnvOb/07jmSxNngRC87EZ3lNNZ7CmvNDzTsGBHpzHz8Y6VL9PeD0EBGaGgs+PwBsT3lznAthtfoiyTRF33fOp6PrCcMCfXH4E+vLMx8+aIh8dfWGs+uvxLwPgyARlvc1eTRGsk9b/xRG4KoBfJ7y5TgNAmXLDErgKAA7AbKvUfK9xqp9G+w+bT7HSffOwK1ys3ipel1zf65WcVMe59QRsCeB2ADiI903rB5zvA/glgPPW9zXXQvgVAE6J/DgAvqztCeCWWosjVbGSHBL4Z2ND0qwU+FR9KaEdlMADEuQZ5/nL5UmgeU+FnltTFaqvGd6qvy1+6Q8B1wDwtPW4hj8a718u6X4wgEdoAHZbUdG1EAKbAzjGWCCbFQAXG6JcuWEIvMiYX1zhT4v8DJM3KaQ276fQc6sNofqa4a36u+KX9hDAOvA+AD6VoMeuybg6PxvA/wLQ/ixdpUbXnQR2TjwgkIXzAADcpEYuPQEuz1tVADFHxpfLl0BMntbjWFNWlxXz36q/L34JDwHcJ+VhANitH8MvNs4RAG7TB09+ItBF4GUDFFau6CWXnoC1x4Zr+8vlSyC2AajiWVNWyYk9WvW74uf8EHB7AMcOUJeG5MWHAFzbBVH+IlAnwHm3QxTcV6snoI45yf9TjRUM1xCQy5dASGXfFtaasjaZIdes+n3i5/YQwGW52etpHZwbwrkv7O/Xgwz1KdanNCnMhQRuCoDT+foKVowfv1FdXIyTEeBo4Zh8qOJsk8wSCRqCQJVPsUerTbF6q3hW/b7xc3kIuDmAk433ZMUu9fGw1YMJZw3JiYAXgScOVJA/AWArLwsUyEXAOoqYvT1y+RKwNgLWlE2tP8T+qR8CHg6AC2pZmQ0Z/8daoyWkSCnsOwcq0N8EwOkwcjYCnAYUW2FwBoBc3gRi87aKZ01dJSf2aNUfGn+qxYKeklGXvyuv+Eng70LBKvwyCfB71omGRqavMHLzoB2XiTVZqi37pXMFQbm8CfTdPz5+1tT56OgLY9UfE3/snoCXDFQ/9nG1+rHn8P4xcBVneQRusFq44qyBCjm7zLgohlwcgX0N+fLaOJWKNSIBa0VvNXVq/bH2j9UTwCW0rYymis+HgLvGAla8ZRG420D7cleF/31aySqqQHEDn5j90hmHm0DJ5U2guj9ij9bUxeqt4ln1W+KzJ+CzAzXQ3ECIm579eSD5Fb+hj/yEeAsLZMVdDoHHD1zYf7heF3s5RNOkdP+IfNkvjWpJGZiAtQGwmje1fqv97An4dMT9YU13SfE5lfhKVtCKvwwCLx/4ZuK2xK8EwBtXzo8AR/IfHpAvnA6kqZh+bKcOZW1IrPZPrd9qP+MP2RNg5ZNL/A9qjZYURW3+Mrik7/8ENDaxBfxHAB6sQuldoPgQ8HrH5wB2+/PNX42/N9bJA8beP1U8awIqObFHq/5U8fUQ4B6r8MhUsCVn3gS4otQ7RngIYKXzGQBclEjOjwBnVeyzGuHLEf7cRpQ//ueAP33z92OYU6jYhreKZ01LJSf2aNWfMj43vdLngO4HAW45rIWCUpa4Gcvi/vHchjK2YgiJx88C3AP7ujPmWU8aG/FXAeB2ylxV7Durvb+5pjfHYPBNRi6MwI0A8O2G+1EcueZ5+nqlS86JPn41AJWzKTigMjcXcp+0hbWmp01myDWr/tTxc+0J4Joc3JiLe3Nwee4rr3vquJ0610vZDcBTAbx3tawvy2xIHoSEfVNq4JI3XwLsSn73gIWxWXD5IMCFiebaI3Db1c3/UceCIj8H8A/zLVLJUsYlWTmW5KSApJ2f9QAAF0RJREFU8slPJBxQmdPqiM17IPTcCjRUXzO8Vf8Q8XN6CGD5fHTgltxcm2VPAKcElO1mvnSds47ltG85EfAiwO0u/2uAgthVQHmdm2x8ZCYzBvgQxQb96ACGTP9zvHJnWYE4PuXu67f8vvLj8uNWqrk8BLhsdflbS4BLvsvfqn+o+FM/BHD9E64hwJ7UWLclgOcNsGcLX7LkRMCbACtevm25KoMh/L8N4PkAruVtbR4B+ZTNbZfZFR3DhQ8B98kjKVlYwb3Pvx7Jso0/B1Tm4NpsC7lmTUOIrrawVv1Dxp/qIeC7iT837QLAuitoPe/OA7DtkOAle54E2C3FLqR6YRrrPxfkOGq9OMcVMsXLfbmfvnpL/UoiRqdl9KY6FXJ+K32r47NJTBnk54AclqmOsb0ex5ovdVkx/636h44/9kMAH1JZZlM7Dt6zLAvezNsXpzZQ8pZBgEtL/jpRA9cslL7nfAjhADq+Yd8RALvKpnCXXy+1STuOHYjJA6dIWCY6bwfgJwNxZVnjbIqpnW+Z7wpntb9Lru91q/4x4o/1EMA3/yEa/4oR39q/n+h+4MsFe3blRCCYALu3ObLat5IYOty56+k/L12vLcABYqkfCvjNmNPsHgXgzev0j7FMKHUtzbFi4hiIoXubctgsyXpvWMvG1Pqt9vvGH/ohgN/8x5hlcsvVuADrFuFVnu/uC0/hRKBJgDcUp6xUhSm3I7t4+bT84fXiOC9ab0r0iNW35HuvBxjuDGCP1QC9O69/3D2Lb9wctcsdwA4CwDXBuWjRGI19G0NOa1uSY+Nv2QCpjWHXNa6TPrXrss33utV+Xz1d4az6x4w/5EMAB/yN5Tgmqis/Qq7vNZbB0jNfAnwj5hzXkIKnsP68uNnJUhxHTPN7/1jlg+V2amdNq9X+qfVb7Q+NP8RDAKf6WUb7h6bhkuuXEmvecaxSqLvJ+oWKPcA+6xXkvg5HaPoVvoUAB7/xTdVaIBV/U4Zch2EJjtNNx+5R0ieATctb6D1YYtlM/RDAHsOx3RMT1LecDcDVE30cHzoOMPaE5rgOh0/aFcaDACvwZw4wZzW0Qppb+KWM1n1NggotNO+5fPLULtTmZnir/U15oedW/VPFT/UQwF4k30Y0ZVppP8cdhOZXMzwH2rocG/+USyzntA6HK+3yDyTAgXJfTVAwmwV1qecPCeRfYvAnTVBe+DaSw94J1nJtze+p9Vvtt8RnI2qtq7i871Tu0AT3DZcmdrkDE+hplrNc1uFwpV3+EQS4mRC7qLj5RDPjdR7GhKN+5+y4LnqqUc0hZYu7JubgQmxuC2tNQ5vMkGtW/VPHt2565tOADpXGFA/OXOCtz/Gb/xADoHNZh6Mv7fIzEtgGAJ8eh57OFVJhlRaWG4XM1XHN81TzmkPy9bCMtkwOsbstrLVstMkMuWbVP3V8a9c2H2CncrdP8ILl6sHgg3JIeQgJm8M6HFPl3aL0/hWAQwZYzS2ksJUa9oozLilvG7ByactvvnWwQuP+DLm4NjtDrlnTEaKrLaxV/9TxuRNnW7p8r/ElZyp3VaPtTCM3J+tzKVcfbDLNYRBuX9rll5gAn5a5xfAQXUrNwjWX81w2rUlcFPDXCSovnzz+HQBWNBzwl8M3/yZHnzT0hWnKCz3vk+3jF6ovt/BcC8InnV1hprw/2YPWZZfvda5z0ud4//jKCg2XwzocfWmX30AEdlh/GuAKfqGFZmnhp6xgBsr+C9/Ah1hJknOO/2e1SuMDVusJcGoq91rP3VnLszV9U+tv2t+cZz70PHLr58kpyxh1W/PvS80MaJxbH5D67MthHY5GcnU6JgGum80V+n6ZoCD3FbSS/bYeM0NG0sUNk1LmCQcRvnq1gmCum0T1YbVy6JPt4ze1/spGn3nmQ8wj91nMpo/RlGN0tk9wH3EMRJ/TJ4A+OvJLQoBPspzu9hENGNykYSxtG2RXgeCc6Z8lqLiqSpmrsN3CpTRj/yodsUdr0mL1VvGs+hk/dJ55ynnkvzCWxd1SAIiUwS2yq3yIPbrGAAy5LHcO63BEole0oQhw28unAPhygsIde1PkFI/7FczJpXz7Zxm5UuFwrGXNmvyp9dP+mHnmqeaRf9tYz7CumsqlmAbIpbf7HDc4Ys+LtZw041NmjmNy+ljIb2QC3HWQu8J9KtGqV81CONT5HwB8EsBTAXzTePPMaSEgvun92MijyrMvTrQCW+pboEpP7NFqT6zeKp5Vf+w8czYgO1qVA/i4sTxy+eqp3P8ZbWce+qw0un8CPVV5qY65rMMxVd5JbyABbu97p1V3IReu4OpdOc0k4EAivo3yO/Q9V8fL1NJmXWiEYyTm4h6aqCI5GcCU069S5kdVIcYerbbE6q3iWfVb5pmnmEce0/tQpZ1HjiHgaPyx3VYAUozQ52ZuLseByIcnunfJLKd1OFxpl3+mBDg//o7rLX7fDIA7W1kH9NRv7K7/fLvnW/3bV7sgPmO1CdIdVlPMeDN2OT5hd8nyuf7+LsEFXue3W58094Xhw9atCkx7l8l9afXx65Lre91HR18YXz1d4SyDzFLMI0+xqc6eXYkb8Dp7F/vyxdfPd/wMHwL42cXyOYBxc1uHY8AskuixCXBDIk4xvM96HMHe64aanxDYa8A3xzPXP+6EVd0knI7I6z9fDUbkoDK+zX9ivTXtS1fX+a3t7itZ1wPAZY5D3CNqeip9IcczVt10m4UozDTsdRL12jA/5uRCykJbWCuLNpkh16z6LW+xKeaRc6ntkPS2hT0FAHsox3L8lEadbbaEXDs7YhtjfnZhzwsfvnzyjmFyXodjrDyTnoUSSDFSl99JS3cvSFBh8QFuynnXQ+RBSIXdFtZqU5vMkGul6+eqkCl6Dp9nBREQn58FQ/KoK+xRAToVVAREIIIAxwPUexu6bsa+6/zUULo7JkGl9Y+lQ2ixvy/fffxaRAZd8tHRFyZIWUvgPtk+fi0igy9xmXIfXX1h2Iu4S7Dm8Ag3B8DPkH22+Po9O1y9YoiACIQSsE5p5OeLkt3VE+wD8b2Izy8lMPOtrLvCWdPYJdf3eun6ab/1M13F6lQAnMY8lNsWwI8SNf60mbOs5ERABAYmwAUvqkoi9ljynFlumRqb7ire0wbOo6nEV+mLPVrtjtVbxStdP+3ngOJzEpRRMuGgRjbUqR1lHpfIRtrJgcxyIiACIxC4b4Ibl1MMS3XWqZCsnOe6K2LVkMYerWUiVm8Vr3T9lf0pd6bkFtcpF/Bit3/KN3/mHQc2y4mACIxAgOv5W8cBcMRzqY3gd40PQB8YIY+mUlE1pLFHq92xeqt4peuv7L+1sYxWPKoj96d4/nqZ40pH6JGj/TngL9U3/8o21iV9U5dD7VR4ERABB4GPJahgXujQkaM3N+i5wJj2OQ7+q/KqqpRjj5Wc2GOs3iperN4qXiUn9ljJSXH8jLGctqWBb+5ca+CyAQayceY8/xRT/dpsKrk3MQCjgopAPgT+KUHlwrUKuINiSY6LNbVVQr7X+PBwtZISHGirL4eucIHqNgneJdf3+iYCAy/46ukKF6iuN/jtjWW1y0Ze5yyBQ9dd79Rz1XWPHmcJcUdBThdmtzyX9/WZX9+nq8+PW/DOZRXN3syUpwjkRIDd9+wW7Ls5ffy4331J7snGNHOzljk7nzzvC2Nl0yfbx690/U37uTueT7pLDcP1OOREQAQmIMA3AGvFwTdivi2U4tjdaEmza7eyUjh02Wlhw7hWt3T9TX5csZIr5Fm55Bifq5yOuWJhk63ORWDRBP46UcXCUcaXL4Tk+4xp/pdC0hlrprWhiNVbxVu6/opD/cgFcqxccovPzdNuV0+k/ouACIxP4GuJKhc2rCU46yJI9yohkQYbrQ2FQfWFUZeuv40f9xThjnVWNjnFf1VbQnVNBERgXAIPS1ixPHNc06O0sbfCUhH67lYWZVwGkSxsGNfqlq6/ix9X9PuJsexa2aaKzzX/t+hKqK6LgAiMR4Cbj3DJ0BQ3N7v1Hjqe6VGafmpMK5cRnrOzlgMrm6Xr7+O368Aj8q3sfeJzKuGcZ9H05Z/8RCBLAg8xNor1G58LDHGr4lzdr41pDZk/nSuDPrvqeRnzv0+2j1+MznocHx19YeqyYv73yU7hd7cEi3jFpCtFHD58cwtzOREQgYwIbAbgS8aGsV5B8CGAnxZydNYVEOfedVnPx5j/1jyP0VmPU7p+H/u5lHfq1fjqDIf4fzqAnXwSpzAiIALjE+DSo9YV8uoVB2XlOGKey47W7Qz5z0VL5u5CeLSFtfJpkxlyrXT9vvb/7er++r2hLIcwtYblzpnX9U2YwomACExD4KABKpT3ZzZFkLujxVZo35omW0bVGsumimc1tpITeyxdf4j9NwNwsqE8xzIOiccBf1xlUE4ERCBzAlwnP/UuX6wsWEnlMud3X0OFyW2U5+5CKve2sFY+bTJDrpWuP9R+buz1EUOZDmEbEpY9gK/QaP/Q7FR4EZiWwJ0SfwqoKg1WCOxh4HSmKR2/Q/4posJknBtPafhIuqv8ij1azYzVW8UrXX+s/Q8E8MuIcl1xS3lklz/rETkREIECCbx+wIrkLAAvBsA3l6nc/hHp228qY0fWa20IrOYuXb+FH6eovhnA+RHl28qd8Tm+hmv7a3lfSy4qrghMTIA38BcGrkS4wxi71HecIK2XAHB4QPq4ChvXS1iCszYEVkZL12/lx/g3BPDuEacLcnDs3trVL0XWSYYI5EGAi3WcFtBIWirur69nDHBQE5c9tTj2LOy8/vVtVcyHAPZ09H0OoB/f/JfS+JO7JR8Z1+qWrt/Krx5/u9U3+JcNeB8fC+CJqwf5repK9V8ERGAeBG4+wVSjXwA4BMBL16sK7rKeQsSGnY32JddvGpxWxIb+fquHhpes/n+4YwDj8et9zRm3zbEHYh8AHOHPXgn++J+9E0v45t9ksvQGeOr0N/MjxTnX+dgdANff/4rhEwGnHR4J4DkArp/CMMkQARHIm8A9AfwxwZuhtWK1xmcvww55o87COitnayIs6zQwrtVNnX6r/T7xL7NqyO8AYM/V9/q9ALwLwCcAfAbAMQA+DeCj60G7HK/zT6uZBnwQn/siWD7sFEYEFkfg3jN5COAnje0Xl3thCZ66AZx6nYap0x+WWwotAiIgAiMQ+LsClx9tq8zZhckuUbl2Am3MQq61S/W/OvU6DSFpbQvrn1KFFAEREIGCCNxjBruRsdLmw4xcO4G2Ri3kWrtU/6tTr9MQkta2sP4pVUgREAERKIwAR+r/sPAxAe8rjPmY5rY1aiHXUtg65ToNIWltC5si/ZIhAiIgAtkS4NreQ68T0Fa5prp29mpE9KWzpTutYVbGKayfcp2GHNKfgqFkiIAIiMBgBLhY0OsGWjbYWgn7xP/7wciULdiHXV+YVKmfap2GvrT5+KVKv+SIgAiIQPYEuOb3WAsG+VTAvmHelj3ZaQz05dcVLrXVY6/T0JUu3+up0y95IiACIpA1Ae4i+NbCegN+tV5UKGuwExjn29B1hZvA5KQqLesQcElcOREQARFYJAEuFvLZggYIPnyRudSf6K6G3fd6v/T8fadehyB/QrJQBERABDoIcI79gwCcXMCDwOc70rDky74NfVe40tlNvQ5B6fxkvwiIgAhcuKnPvQCwke1qLHK4fkvl1UYErHmykbACT6Zeh6BAZDJZBERABLoJ3G617e/BAM7N8GHgoG6zF+mz9AcAZvqU6xAsstAp0SIgAvMncCkAD1zv3JfLBkPc8vdG80fvnUI9AFy06+ThAQ+rhy1sy2jvwqSAIiACItBG4PKrnce40yC3KP2iYYtSa4PF+O9uM3Ch16w854JtqnUI5sJP6RABERABbwLconRXAA9dvXm9cLV17zvWqw1+cz2g8Mz1joTnA+B/Lkf8HQCnBLypdTVufwZwU29L5x2wi5Hv9bnRGXsdgrnxU3pEQAREYDAC2ybaqvhz2iXwwjzybei7wg2W0RIsAiIgAiIgAk0Cb0/QC8AG7TFNwQs872rYfa8vEJmSLAIiIAIiMBUBTuXzbaD6wnF1wKtMlYhM9Pbx8fHLJBkyQwREQAREYCkEjkr0EPCRhX8K8Gnk+8IspbwpnSIgAiIgApkQuGuiBwA2bk/PJE1TmNHXuPv4TWGzdIqACIiACCycQMjc7b7G7DwAeyyUZR8XH7+FYlOyRUAEREAEpiTAaYQXJOoJOBXA1adMzES6fRr5vjATmS21IiACIiACSyfw3kQPAGzkvgbgsgsD2te4+/gtDJeSKwIiIAIikAuBHRLvOcBBgVvkkrgR7PBp5PvCjGCiVIiACIiACIhAO4H/SNgLwMaOvQoXb1c1u6t9jbuP3+yAKEEiIAIiIALlEOAb+zcSPwR8CMAly0EQbalPI98XJlqxIoqACIiACIhACgK7A+BOf32NVajfBwFwR8M5u1AmzfBzZqO0iYAIiIAIFELgtYkfANjYfRkA9x+Yq2s26KHnc+WidImACIiACBREgN/tvzDAQ8BP1jsXFoTC29TQBr8Z3luRAoqACIiACIjAkASuA+CsAR4CzgHwxBkuG9xs0EPPh8xLyRYBERABERCBIAL3TLhAULNB/OTMPgk00xd6HpQxCiwCIiACIiACQxPYa4BegKpx/DmAh8+kN6BKU+xx6HyUfBEQAREQAREIInAxAO8Z8CGADebRAG4RZFVegW+QgE9eKZI1IiACIiACIgBgSwCfTdDI9b0dc+rhWwBcryDinNXwRgDnJ2BTULJlqgiIgAiIwJIIbA3gxAQNXd9DAP3YmL4DwI0zhstlk98AgAMaXenx9c84uTJNBERABERg6QS2A3BSwkavr3H8MwBuU/yQdQ/E1Ow3B3B3AIcAoG19tsf4TZ0+6RcBERABERCBXgLc6neMnoB6I/qr9Rv3XUZeVpjjH24N4NUAfjpAo19PYy90eYqACIiACIhADgSuBuCEgRvEeuNY//+79Vv4kwDsPMBmQzcE8CgAbwXAWQp13UP95wOOnAiIgAiIgAgUQeDKA60WGNrInru2402r8QP/BuBhAG6zGkfA7/TXAHDF2rbEl1+fXxvArQD8PYCnAjgQwJEA2BCH6k8R/pgiclxGioAIiIAIiMCaAHf5e/tEjWaKhjcXGS9RiRIBERABERCB0ghsBoAN2AV6EIjqPTivsKmPpZVP2SsCIiACIjAwgQcC+LUeAoIfAl4wcL5IvAiIgAiIgAgMToAbCH1JDwHeDwHvqo1PGDxzpEAEREAEREAEhiTArYT31ieB3ocALnb0stWnE04zlBMBERABERCBWRHgSPxvqTdgkweBbwLYdVY5rcSIgAiIgAiIQIMAewOeBoBz93MZcT+VHRzsx50VL9FgpFMREAEREAERmC0BbvBz6EI/C3B2xMEArj/b3FXCREAEREAERMBBYLf1+v5TvYWPrfeLAG7nYCJvERABERABEVgMgTsDOHrGnwXY8N9rMbmphIqACIiACIhAIIFbAvgvAFzOd+y389T6uEPgh1cPNny4kRMBERABERABEfAgsO16NcEfFPgg8GMArwJwXY90KogIiIAIiIAIiEAHAe7wtx+A0zN+GPjNqsE/aN3Nv0VHOnRZBERABERABEQgggAb1jusF8zh6oJ/mvCBgCP5jwPwmtXOg3dZTefbMiI9iiICIiACIiACIhBBgNv63nc1j/4VAD4O4GcDPhCctd4eeJ/19sJXi7BXUURABERABERABAYiwLEDdwXwOAAvBvDW9TTDYwGcDOCnAM5c9x7wLZ7/f772OxHAZ9fbGb8SwJPXXfr6lj9QZkmsCIiACIiACIiACIiACIiACIiACIiACIiACIiACIiACIiACIiACIiACIiACIiACIiACIiACIiACIiACIiACIiACIiACIiACIiACIiACIiACIiACIiACIiACIiACIiACIiACExN4P8DcApPLTHOB/oAAAAASUVORK5CYII=;" vertex="1" parent="5iqBXnzq-JTinNB5eCyv-102">
          <mxGeometry width="111.3" height="111.3" as="geometry" />
        </mxCell>
        <mxCell id="5iqBXnzq-JTinNB5eCyv-57" value="&lt;b&gt;&lt;font style=&quot;font-size: 17px;&quot; data-font-src=&quot;https://fonts.googleapis.com/css?family=Work+Sans&quot; face=&quot;Work Sans&quot;&gt;FastText&lt;/font&gt;&lt;/b&gt;" style="text;html=1;align=center;verticalAlign=middle;whiteSpace=wrap;rounded=0;" vertex="1" parent="5iqBXnzq-JTinNB5eCyv-102">
          <mxGeometry x="25.65000000000009" y="104" width="60" height="30" as="geometry" />
        </mxCell>
        <mxCell id="5iqBXnzq-JTinNB5eCyv-104" value="" style="endArrow=classic;html=1;rounded=0;exitX=1;exitY=0.5;exitDx=0;exitDy=0;exitPerimeter=0;entryX=0;entryY=0.5;entryDx=0;entryDy=0;" edge="1" parent="1" source="5iqBXnzq-JTinNB5eCyv-91" target="5iqBXnzq-JTinNB5eCyv-56">
          <mxGeometry width="50" height="50" relative="1" as="geometry">
            <mxPoint x="-1710" y="1180" as="sourcePoint" />
            <mxPoint x="-1120" y="1206" as="targetPoint" />
          </mxGeometry>
        </mxCell>
      </root>
    </mxGraphModel>
  </diagram>
</mxfile>
